<?xml version="1.0" encoding="utf-8"?>
<!-- Generator: Adobe Illustrator 24.1.2, SVG Export Plug-In . SVG Version: 6.00 Build 0)  -->
<svg version="1.1" id="Слой_1" xmlns="http://www.w3.org/2000/svg" xmlns:xlink="http://www.w3.org/1999/xlink" x="0px" y="0px"
	 viewBox="0 0 850.39 850.39" style="enable-background:new 0 0 850.39 850.39;" xml:space="preserve">
<style type="text/css">
	.st0{fill:#B58361;}
	.st1{fill:#28120E;}
	.st2{fill:#9E6F4F;}
	.st3{fill:#A57555;}
	.st4{opacity:0.75;fill:#845638;enable-background:new    ;}
	.st5{opacity:0.15;fill:#694B43;enable-background:new    ;}
	.st6{fill:#230C09;}
	.st7{fill:#C19476;}
	.st8{fill:#2D1712;}
	.st9{fill:#B28364;}
	.st10{fill:#381E17;}
	.st11{fill:#D8AE8F;}
	.st12{fill:#44271D;}
	.st13{opacity:0.75;fill:#C99A7B;enable-background:new    ;}
	.st14{opacity:0.49;fill:#3A1D15;enable-background:new    ;}
	.st15{fill:url(#SVGID_1_);}
	.st16{fill:url(#SVGID_2_);}
	.st17{fill:#E0BEA2;}
	.st18{fill:#4D2F22;}
	.st19{opacity:0.29;fill:#684D49;enable-background:new    ;}
	.st20{fill:#C9C5C3;}
	.st21{fill:#F7DED2;}
	.st22{fill:#D3A989;}
	.st23{fill:#3D251C;}
	.st24{fill:#91593D;}
	.st25{fill:#AD7550;}
	.st26{fill:#895037;}
	.st27{fill:#7F402A;}
	.st28{fill:#894D33;}
	.st29{fill:#A86C4A;}
	.st30{fill:#9B6649;}
	.st31{fill:#AF7B58;}
	.st32{fill:#AA7550;}
	.st33{fill:#B78662;}
	.st34{fill:#965C40;}
	.st35{fill:#AF7C5A;}
	.st36{fill:#A37252;}
	.st37{fill:#EFCCAF;}
	.st38{fill:#C1976F;}
	.st39{opacity:0.49;fill:#B2794F;enable-background:new    ;}
	.st40{fill:#9B6648;}
	.st41{fill:#EFE6E6;}
	.st42{fill:url(#SVGID_3_);}
	.st43{fill:url(#SVGID_4_);}
	.st44{fill:url(#SVGID_5_);}
	.st45{fill:url(#SVGID_6_);}
	.st46{fill:url(#SVGID_7_);}
	.st47{fill:url(#SVGID_8_);}
	.st48{fill:#37A51C;}
</style>
<g id="Слой_1_1_">
	<path class="st0" d="M314.36,273.93c4.45-1.25,7.69-2.85,9.8-4.07c2.72-1.57,3.44-2.41,6.14-3.71c2.66-1.28,4.45-1.66,8.71-2.71
		c7.55-1.87,11.33-2.8,13.13-3.62c2.48-1.12,5.95-3.17,9.52-7.23c-6.16-0.47-12.92-0.71-20.18-0.57c-6.59,0.13-12.74,0.55-18.4,1.15
		c-0.08,6.13-1.66,9.86-2.63,11.69c-0.64,1.2-1.79,3.06-2.8,4.56C316.38,271.33,315.23,272.85,314.36,273.93z"/>
	<path class="st1" d="M252.97,480.82c1.29,1.11,3.04,2.91,4.38,5.52c0.62,1.22,1.19,2.7,2.28,8.76c1.25,6.92,0.8,6.68,1.52,8.95
		c0.97,3.05,1.97,4.08,4.76,8.95c1.26,2.2,3.03,5.42,4.95,9.48c-1.01-1.25-2.42-2.74-4.34-4.14c-3.26-2.38-6.47-3.4-8.55-3.88
		c-1.06-6.14-1.34-11.12-1.39-14.6c-0.06-3.94,0.16-7.24-0.95-11.8C254.88,484.91,253.78,482.44,252.97,480.82z"/>
	<path class="st2" d="M517.04,567.6c-2.39,0.91-4.1,1.8-5.71,2.64c-8.15,4.26-7.94,4.19-8.8,4.62c-2.49,1.22-6.21,2.75-11.23,3.81
		c7.51-0.49,15.03-0.99,22.54-1.48c0.17-0.93,0.54-2.32,1.43-3.79c0.71-1.17,1.38-1.8,2.76-3.24c0.88-0.92,2.15-2.28,3.67-4.05
		C520.54,566.4,518.93,566.87,517.04,567.6z"/>
	<path class="st1" d="M566.2,325.59c1.91,3.46,2.82,3.45,4.47,6.19c3.09,5.1,1.7,8.02,4.38,15.23c1.14,3.07,2.44,5.37,3.23,6.66
		c-1.28-5.51-2.38-11.69-3.05-18.47c-0.33-3.39-0.53-6.65-0.62-9.75c-1.55-0.26-4.35-0.95-7.18-3.01c-2.07-1.51-3.39-3.19-4.16-4.37
		C563.72,319.9,564.55,322.61,566.2,325.59z"/>
	<path class="st3" d="M323.05,255.67c-0.34,4.8-2.15,8.69-3.89,11.46c3.22-2.18,5.12-4.39,6.27-6.06c0.94-1.36,2.05-3.31,4.45-4.61
		c0.97-0.52,1.8-0.75,2.51-0.92c4.69-1.15,9.2-1.29,9.72-1.31c8.73-0.22,9.57,0.01,12.9-0.38c2.94-0.35,5.28-0.89,6.74-1.27
		c-5.79-0.29-10.7-0.43-14.51-0.5c-6.16-0.11-9.4-0.03-12.55,0.19c-3,0.21-5.71,0.53-6.17,0.59c-2.05,0.25-3.88,0.52-5.41,0.78
		C323.12,254.3,323.1,254.97,323.05,255.67z"/>
	<path class="st4" d="M521.69,566.1c-1.23,1.09-3.03,2.65-5.26,4.47c-1.83,1.5-2.77,2.27-3.65,2.84c-2.77,1.82-5.25,2.54-7.98,3.3
		c-2.32,0.65-5.54,1.34-9.48,1.56c3.62,0.05,7.52-0.05,11.64-0.37c2.42-0.18,4.74-0.43,6.96-0.71c0.58-1.05,1.2-2.12,1.89-3.22
		C517.73,570.95,519.74,568.33,521.69,566.1z"/>
	<path class="st5" d="M257.99,487.84c-0.47,1.91-0.35,3.37-0.15,4.36c0.25,1.25,0.57,1.42,0.84,2.86c0.29,1.55-0.04,1.52,0.18,4.1
		c0.16,1.97,0.45,3.08,0.92,4.1c0.25,0.54,0.27,0.45,0.44,0.84c0.8,1.91-0.15,2.96,0.07,4.68c0.29,2.15,2,2.22,2.8,5.04
		c0.31,1.1,0.33,2.07,0.29,2.69c0.42,0.17,0.85,0.37,1.29,0.59c2.89,1.47,4.88,3.58,6.2,5.37c-1.54-3.65-3.09-6.38-4.23-8.21
		c-1.01-1.62-2.26-3.43-3.8-6.45c-0.84-1.66-1.27-2.51-1.69-3.77c-0.62-1.89-0.47-2.45-1.13-6.68c-0.21-1.33-0.49-3.12-0.97-5.31
		C258.66,490.25,258.26,488.8,257.99,487.84z"/>
	<path class="st6" d="M255.92,486.38c0.27,0.7,0.59,1.54,0.88,2.69c0.2,0.8,0.45,2.02,0.58,6.33c0.04,1.47,0.02,1.58,0.07,4.91
		c0.04,2.51,0.06,3.77,0.07,3.95c0.3,3.94,1.36,5.17,1.64,9.04c0.1,1.4,0.05,2.52,0.01,3.16c-0.98-0.35-1.97-0.69-2.95-1.03
		c-0.51-1.37-1.16-3.43-1.54-5.99c-0.91-6.13,0.53-9.77,0.81-14.62c0.19-3.35-0.14-8.11-2.52-14.01
		C254.04,482.37,255.08,484.22,255.92,486.38z"/>
	<path class="st5" d="M563.27,318.08c0.96,2.35,2.15,3.87,3.06,4.81c1.59,1.65,2.37,1.65,3.59,3.31c0.61,0.84,1.1,2.13,2.1,4.71
		c0.47,1.22,0.96,2.5,1.48,4.3c0.5,1.7,0.8,3.09,0.97,3.94c0.32,1.57,0.49,2.96,0.82,5.68c0.19,1.59,0.34,2.93,0.44,3.89
		c-1.27-2.8-1.82-4.97-2.08-6.48c-0.09-0.5-0.31-1.9-0.7-3.96c-0.28-1.44-0.41-2.16-0.52-2.56c-0.72-2.52-1.91-4.23-2.19-4.62
		c-0.36-0.5-0.29-0.33-1.67-2.1c-0.81-1.03-1.2-1.54-1.5-1.96c-1.04-1.46-1.58-2.72-2.19-4.15
		C564.36,321.68,563.76,320.05,563.27,318.08z"/>
	<path class="st6" d="M567.7,322.66c0.53,0.54,1.21,1.27,1.96,2.19c0.77,0.95,0.85,1.17,2.23,3.15c1.91,2.75,2.49,3.37,2.61,4.68
		c0.04,0.5-0.04,0.37-0.04,1.34c0.01,1.9,0.35,3.26,0.54,4.14c0.37,1.69,0.48,3.43,0.73,5.14c0.76,5.26,0.89,6.13,1.38,7.52
		c0.46,1.32,1.52,3.93,2.11,3.8c0.55-0.12,0.42-2.59,0.35-4.84c-0.4-13.17,1.6-17.67-1.99-21.87c-0.39-0.46-1.07-1.17-2.11-1.88
		c-0.19-0.58-0.66-1.78-1.84-2.76c-0.41-0.34-1.7-1.42-3.57-1.34C568.95,321.98,568.12,322.4,567.7,322.66z"/>
	<path class="st7" d="M402.61,231.43c2.79,0.22,6.6,0.83,10.83,2.5c3.01,1.2,5.46,2.63,7.33,3.91c0.15,0.15,0.3,0.3,0.45,0.45
		c-0.35,2.05-1.23,5.29-3.78,8.01c-1.91,2.04-5.15,4.16-14.08,4.95c-11.16,0.99-12.65-1.85-23.32-1.43
		c-8.55,0.34-8.21,2.19-18.37,2.76c-7.88,0.44-9.83-0.58-18.65-0.59c-4.61-0.01-11.45,0.25-19.91,1.65
		c-0.03-1.16-0.22-2.99-1.06-5.04c-0.84-2.05-1.98-3.49-2.76-4.34c2.92,1.18,3.17,1.29,3.17,1.29c2.31-0.02,5.82-0.11,10.09-0.38
		c7.44-0.48,11.6-1.18,25.46-3.21c14.53-2.13,21.8-3.18,22.07-3.19c7.35,0,13.83,1.1,19.04-3.14
		C400.89,234.19,401.98,232.55,402.61,231.43z"/>
	<path class="st8" d="M247.07,470.3c1.78,2.53,3.96,6.05,5.9,10.52c1.08,2.49,2.32,5.35,3.09,9.28c0.9,4.6,0.35,6.53,0.61,12.61
		c0.12,2.77,0.43,6.82,1.31,11.75c-1.47-0.37-3.66-0.73-6.3-0.46c-1.74,0.18-3.21,0.59-4.33,1c0.2-8.66,0.25-17.56,0.15-26.7
		C247.43,482.18,247.28,476.19,247.07,470.3z"/>
	<path class="st0" d="M470.6,589.73c1.51-1.54,3.61-3.46,6.32-5.36c1.01-0.71,3.95-2.61,7.28-4.14c4.15-1.91,6.69-1.65,19.48-2.38
		c2.2-0.13,5.74-0.34,10.16-0.67c-0.25,1.39-0.45,3.24-0.31,5.41c0.14,2.08,0.55,3.83,0.96,5.14c-9.77,2.19-21.56,3.65-34.83,2.87
		C476.51,590.41,473.49,590.11,470.6,589.73z"/>
	<path class="st8" d="M574.61,325.45c0.06,1.97,0.18,4.7,0.46,7.96c0.26,3.01,0.61,6.98,1.54,11.98c1.26,6.75,2.06,10.82,4.91,15.32
		c1.15,1.82,2.31,3.19,3.14,4.09c-0.44-4.55-0.9-8.26-1.24-10.76c-1.18-8.91-2.04-12.34-2.28-18.47c-0.16-4.11,0.02-7.46,0.2-9.58
		c-1.04,0.05-2.23,0.05-3.53-0.07C576.62,325.83,575.55,325.65,574.61,325.45z"/>
	<path class="st5" d="M251.29,477.26c-0.86,1.2-1.92,3.09-1.84,5.37c0.1,3.07,2.15,3.71,3.02,7.52c0.67,2.93-0.4,3.18,0,7.88
		c0.29,3.42,0.92,3.98,1.17,6.7c0.21,2.18,0.13,5.32-1.23,9.29c0.78-0.09,1.77-0.15,2.92-0.02c1.04,0.11,1.93,0.33,2.63,0.56
		c-0.25-1.37-0.61-3.55-0.86-6.25c-0.67-7.38,0.31-9.88-0.72-16.27c-0.5-3.08-1.21-5.5-1.67-6.91
		C253.63,481.84,252.35,479.18,251.29,477.26z"/>
	<path class="st5" d="M576.74,325.83c0.04,1.26,0.12,3.13,0.32,5.4c0.23,2.62,0.39,3.12,0.59,5.06c0.6,6.02-0.41,6.34,0.41,9.52
		c0.8,3.09,1.86,3.16,2.66,6.24c0.79,3.02,0.49,5.72,0.12,7.53c-0.52-0.85-1.22-2.11-1.83-3.71c-0.65-1.69-0.92-3.03-1.3-4.95
		c-0.71-3.68-1.07-5.52-1.34-7.27c-0.43-2.77-1.01-6.52-1.4-11.51c-0.21-2.68-0.31-4.96-0.36-6.67
		C575.33,325.58,576.03,325.7,576.74,325.83z"/>
	<path class="st3" d="M606.33,532.87c0.28-4.07,1.73-7.37,3.14-9.71c-2.6,1.85-4.13,3.73-5.06,5.14c-0.76,1.15-1.65,2.81-3.59,3.9
		c-0.78,0.44-1.46,0.63-2.02,0.78c-3.78,0.98-7.42,1.1-7.85,1.1c-7.05,0.19-7.72-0.01-10.41,0.33c-2.37,0.29-4.27,0.75-5.44,1.08
		c4.67,0.25,8.64,0.36,11.71,0.42c4.98,0.09,7.58,0.03,10.13-0.16c2.42-0.18,4.61-0.45,4.98-0.5c1.66-0.21,3.13-0.44,4.37-0.66
		C606.28,534.04,606.29,533.47,606.33,532.87z"/>
	<path class="st1" d="M247.07,470.3c0.28,1.51,0.6,3.45,0.9,5.72c0.19,1.43,0.31,2.57,0.38,3.23c0.3,2.89,0.38,4.73,0.5,6.72
		c0.25,4.11,0.38,3.62,0.92,10.63c0.28,3.58,0.33,4.87,0.35,6.3c0.02,2.57,0.03,3.86-0.07,5.03c-0.17,1.84-0.45,3.07-0.07,4.84
		c0.21,0.97,0.52,1.73,0.77,2.23c-1.36,0.49-2.71,0.97-4.07,1.46c0.15-3.14,0.27-6.32,0.35-9.55c0.3-12.46-0.01-24.35-0.77-35.61
		C246.52,470.94,246.8,470.62,247.07,470.3z"/>
	<path class="st1" d="M578.11,325.95c0.42,0.87,1,2.26,1.28,4.04c0.27,1.68,0.03,2.12,0.21,4.5c0.16,2.22,0.4,2.14,0.72,5.01
		c0.27,2.44,0.12,2.61,0.41,4.96c0.19,1.5,0.4,2.59,0.66,3.99c0.4,2.09,0.71,3.3,1.33,5.94c0.33,1.39,0.81,3.45,1.37,5.98
		c0.83-4.84,0.82-8.72,0.69-11.26c-0.23-4.32-0.95-6.6-1.8-12.73c-0.63-4.52-0.94-8.18-1.09-10.42c-0.48,0.03-0.99,0.06-1.52,0.06
		C579.56,326.04,578.81,326.01,578.11,325.95z"/>
	<path class="st9" d="M320.41,245.64c0.21,0.29,0.42,0.6,0.63,0.95c0.23,0.38,0.43,0.75,0.6,1.1c2.79-0.07,7.01-0.24,12.14-0.64
		c6.78-0.53,7.39-0.86,13.64-1.41c9.82-0.86,10.8-0.24,20.57-1.15c7.87-0.73,6.76-1.08,11.59-1.31c5.7-0.26,9.42,0.13,15.3-1.15
		c0,0,2.4-0.52,5.73-1.84c4.94-1.96,5.92-3.35,6.3-3.99c0.85-1.45,0.91-2.97,0.85-3.96c-0.85-0.19-1.75-0.36-2.7-0.51
		c-0.85-0.13-1.66-0.23-2.43-0.31c-0.32,0.8-0.95,2.13-2.13,3.46c0,0-1.87,2.11-5.16,3.42c-3.8,1.51-13.84,2.68-27.19,2.36
		c-7.32,1.27-14.64,2.55-21.96,3.82c-4.29,0.48-8.8,0.87-13.51,1.13c-3.83,0.22-7.53,0.33-11.09,0.37
		C321.19,245.88,320.8,245.76,320.41,245.64z"/>
	<path class="st10" d="M228.99,437.8c-0.07-2.96,0.09-6.74,0.95-11.04c0.87-4.35,2.2-7.94,3.43-10.66c1.25,0.28,3.03,0.82,4.95,1.91
		c0.65,0.37,5.8,3.38,8.19,9.52c1.09,2.81,0.87,6.98,0.38,15.23c-0.36,6.04-0.65,6.58-0.76,10.66c-0.15,5.58,0.27,9.39,0.57,12.94
		c0.44,5.09,0.56,10.92,0.81,22.56c0.14,6.44,0.2,15.31-0.15,26.08c-1.11,0.56-2.23,1.11-3.34,1.68
		c-0.68-14.34-1.22-20.42-1.61-23.26c-0.04-0.27-0.43-3.16-0.92-7.06c-0.3-2.38-0.45-3.57-0.54-4.45c-0.27-2.68-0.35-4.66-0.5-8.46
		c-0.17-4.26-0.15-5.08-0.38-7.28c-0.13-1.2-0.34-2.54-0.7-4.27c-0.55-2.61-2.23-9.68-6.57-17.8
		C231.4,441.46,230.04,439.34,228.99,437.8z"/>
	<path class="st7" d="M433.74,608.45c-2.44,0.33-7.6,0.69-13.33-1.71c-3.8-1.59-6.43-3.81-8-5.36c0.53-1.17,1.06-2.35,1.58-3.53
		c0.94-1.4,2.5-3.37,4.89-5.2c0.9-0.68,4.36-3.23,9.71-4.19c6.03-1.08,7.4,1.16,16.56,1.33c3.96,0.07,3.62-0.35,11.04-0.57
		c4.98-0.15,8.55-0.07,11.8,0c17.68,0.37,26.68,0.53,34.81-0.15c3.19-0.27,7.19-0.7,11.81-1.45c0.39,1.17,0.78,2.33,1.16,3.49
		c-2.86,0.32-7.23,0.83-12.56,1.52c-17.79,2.32-18.65,3.13-27.26,3.9c-15.33,1.38-16.95-0.81-24.89,1.61
		C443.04,600.63,437.28,605.13,433.74,608.45z"/>
	<path class="st10" d="M581.34,326c-0.16,1.93-0.35,5.07-0.22,8.95c0.18,5.63,0.89,8.65,2.01,16.94c1.06,7.79,0.61,6.43,1.53,12.9
		c1.58,11.16,2.41,11.67,2.62,17.56c0.15,4.23-0.28,3.78-0.29,12.42c0,7.06,0.28,10.13,0.43,11.56c0.67,6.33,1,9.49,2.86,11.99
		c3.08,4.16,8.38,5.26,11.56,5.57c0.92-2.21,1.83-4.79,2.57-7.71c1.14-4.51,1.56-8.58,1.67-11.9c-5.43-4.84-8.21-9.55-9.71-12.76
		c-1.89-4.04-1.19-4.49-4.76-24.75c-0.94-5.31-1.71-9.43-2.28-15.61c-0.27-2.9-0.3-4.23-0.57-8.57c-0.26-4.16-0.67-10.19-1.35-17.65
		C585.38,325.32,583.36,325.66,581.34,326z"/>
	<path class="st9" d="M417.75,605.5c2.61,0.27,6.62,0.39,11.22-0.82c3.56-0.93,4.33-1.84,10.59-4.3c3.27-1.28,6.83-2.68,11.52-3.84
		c4.6-1.14,8.2-1.53,12.74-1.99c4.25-0.44,6.63-0.51,11.61-0.77c9.45-0.49,14.17-0.74,18.47-1.23c5.07-0.58,12.2-1.79,20.76-4.6
		c0.37,1.11,0.74,2.22,1.11,3.33c-4.94,0.83-10.01,1.6-15.22,2.29c-10.58,1.41-20.74,2.37-30.42,3c-4,0.18-8,0.37-12.01,0.55
		c-1.07,0.25-2.59,0.65-4.38,1.27c-3.71,1.28-6.2,2.68-8.98,4.22c-2.45,1.36-6.14,3.38-11.04,6c-1.26,0.09-2.97,0.14-4.98-0.01
		c-1.36-0.11-3.46-0.28-6.09-1.06C421.39,607.15,419.67,606.53,417.75,605.5z"/>
	<path class="st5" d="M241.07,426.82c-1.01,2.26-0.85,4.29-0.58,7.26c0.7,7.68,0.96,9.63,0.96,9.63c0.78,5.9,1.17,8.85,1.5,12.47
		c0.18,2.02,0.47,5.57,0.61,9.98c0.17,5.1-0.02,6.01,0.15,9.83c0.23,5.16,0.83,8.86,1.08,10.59c0.71,5,1.37,13.55,1.08,29.05
		c0.37-0.18,0.77-0.36,1.19-0.52c0.1-0.04,0.21-0.08,0.3-0.12c0.07-2.28,0.15-4.96,0.2-7.96c0.02-1.24,0.06-3.81,0.07-7.02
		c0.01-5.29-0.07-9.18-0.23-16.73c-0.12-5.62-0.18-8.46-0.3-10.48c-0.15-2.59-0.27-3.53-0.65-9.41c-0.31-4.78-0.35-5.96-0.35-7.48
		c0.01-2.69,0.18-5.14,0.29-6.83c0.12-1.73,0.16-1.9,0.39-4.57c0.52-6.23,0.62-9.17,0.5-12.13c-0.08-2.09-0.22-2.86-0.37-3.5
		c-0.64-2.68-1.96-4.64-2.92-5.81C243.1,423.8,241.87,425.01,241.07,426.82z"/>
	<path class="st8" d="M229.18,431.98c0.7,1.37,1.8,3.52,3.17,6.14c3.48,6.64,4.42,8.12,5.63,10.95c0.34,0.8,1.96,4.64,3.07,9.83
		c0.97,4.52,0.58,5.5,1.54,17.81c0.4,5.11,0.49,5.33,0.66,8.44c0.28,5.13,0.28,9.33,0.23,12.12c-1.87-7.92-3.26-14.41-4.18-18.85
		c-2.75-13.34-3.74-20.16-6.96-30.83c-1.31-4.33-2.55-7.83-3.37-10.08C229.05,435.66,229.12,433.82,229.18,431.98z"/>
	<path class="st5" d="M582.83,325.9c-0.54,2.4-0.69,4.44-0.71,5.94c-0.03,2.2,0.22,3.8,0.29,4.21c0.25,1.56,0.6,2.69,0.72,3.08
		c1.12,3.78,1.59,9.08,1.99,13.82c0.52,6,0.13,5.49,0.54,9.36c0.44,4.17,0.98,5.67,3.76,17.12c2.29,9.41,2.71,11.66,3.07,14.43
		c0.92,7.15,0.43,10.41,0,12.36c-0.88,3.98-2.51,7.01-3.74,8.93c-0.14-0.53-0.34-1.34-0.52-2.35c-0.15-0.81-0.28-1.65-0.57-4.34
		c-0.2-1.85-0.3-2.79-0.37-3.7c-0.15-2.01-0.2-3.6-0.22-4.69c-0.08-3.97,0.04-7.3,0.15-13.13c0.09-5.19,0.06-6.18-0.07-7.53
		c-0.24-2.49-0.56-3.41-1.22-6.87c-0.81-4.19-1.21-7.35-1.71-11.29c-0.63-4.92-0.47-4.99-1.14-9.9c-0.49-3.63-0.63-3.93-1.06-7.32
		c-0.46-3.58-0.76-5.94-0.88-8.96c-0.09-2.24-0.11-5.34,0.23-9.05C581.84,325.97,582.34,325.93,582.83,325.9z"/>
	<path class="st8" d="M583.71,325.78c0.6,2.42,1.44,6.07,2.22,10.55c0.98,5.65,1.26,9.15,1.84,14.17
		c0.73,6.37,1.43,10.71,2.79,19.16c1.91,11.92,2.91,17.95,4.58,21.77c3.93,8.96,5.01,11.15,5.01,11.15
		c0.98,1.97,1.79,3.51,2.56,5.83c1.12,3.41,1.44,6.38,1.53,8.36c0.47-1.76,0.9-3.73,1.23-5.89c0.37-2.41,0.54-4.63,0.6-6.61
		c-2.45-3.36-5.71-8.49-8.27-15.31c-1.17-3.1-1.86-5.7-2.46-8.19c-2.21-9.24-3.96-20.91-5.12-44.82c-0.13-2.76-0.31-6.85-0.47-11.85
		c-1.07,0.44-2.32,0.88-3.74,1.22C585.21,325.55,584.43,325.69,583.71,325.78z"/>
	<path class="st11" d="M335.78,218.7c4.14,0.16,10.8,0.34,19.04,0.19c12.08-0.21,17.31-0.95,28.17-1.14
		c5.38-0.1,13.44-0.08,23.41,0.57c0.12,2.18,0.12,7.77-3.43,13.33c-0.7,1.09-2.53,3.9-5.82,6.06c-5.28,3.47-8.82,1.67-20,2.75
		c-8.51,0.82-8.36,2.05-19.65,3.28c-7.43,0.81-5.97,0.11-12.62,0.91c-3.81,0.46-9.44,0.81-20.71,1.53c-0.7,0.04-2.14,0.12-3.77-0.52
		c-2.43-0.96-3.86-2.97-4.62-4.28c3.59-3.34,7.39-7.2,11.23-11.61C330.34,225.94,333.24,222.22,335.78,218.7z"/>
	<path class="st12" d="M216.43,432.47c3.83-1.77,10,2.81,12.56,5.33c2.11,2.07,3.23,4.55,5.39,9.43c2.25,5.09,4.77,10.91,5.67,18.78
		c0.38,3.37-0.01,2.9,0.46,8.3c0.45,5.17,0.93,6.91,1.84,13.31c0.54,3.81,1.29,9.18,1.63,15.46c0.2,3.74,0.29,8.32,0.03,13.57
		c-0.98,0.63-2.15,1.52-3.32,2.74c-0.9,0.94-1.61,1.86-2.14,2.66c-4.44-4.03-8.29-6.95-11-8.88c-3.31-2.35-4.73-3.1-6.55-4.95
		c-3.81-3.87-5.37-8.5-6.09-11.8c-0.05-3.51-0.16-9.18-0.38-16.18C213.46,446.66,211.39,434.79,216.43,432.47z"/>
	<path class="st11" d="M429.62,622.25c9.54,0.7,17.36,0.81,22.84,0.76c10.01-0.08,16.66-0.69,30.46-0.57
		c4.09,0.03,7.46,0.12,9.71,0.19c2.75-2.3,5.5-4.64,8.27-7.01c6.38-5.48,12.57-10.95,18.57-16.4c-1.12-1.96-2.2-4.11-3.19-6.46
		c-0.22-0.51-0.42-1.03-0.62-1.53c-7.87,0.86-14.27,1.67-18.65,2.26c-5.47,0.73-17.47,2.39-25.42,2.93
		c-3.24,0.22-6.29,0.36-6.29,0.36c-4.1,0.18-5.55,0.15-7.01,0.23c-5.57,0.31-9.97,2.17-12.28,3.17c-5.7,2.47-9.78,5.81-12.38,8.37
		c-1.04,1.42-2.53,3.81-3.38,7.09C429.54,618.32,429.52,620.65,429.62,622.25z"/>
	<path class="st12" d="M619.62,341.82c0.62,10.46,1.05,21.37,1.21,32.69c0.17,11.67,0.06,22.92-0.29,33.69
		c-2.87,0.08-8.8-0.17-14.47-3.9c-5.41-3.57-7.73-8.44-9.71-12.76c-1.87-4.08-2.48-6.97-5.21-27.28
		c-1.16-8.64-1.75-13.02-2.08-16.23c-0.94-8.91-1.42-16.72-1.68-23.05c1.25-0.38,2.71-0.93,4.26-1.73c2.16-1.11,3.84-2.38,5.08-3.46
		c0.91,1.61,2.41,3.74,4.81,5.54c2.68,2.01,4.01,1.76,7.35,4.07c2.62,1.81,4.27,3.67,5.64,5.21
		C616.02,336.26,617.88,338.66,619.62,341.82z"/>
	<path class="st13" d="M315.79,241.35c0.52,0.32,1.09,0.72,1.67,1.19c0.51,0.42,0.96,0.83,1.35,1.22c3.97-4.4,9.59-9.57,17.16-14.01
		c7.28-4.27,13.48-6.18,14.89-6.6c5.09-1.52,7.74-1.61,21.34-3.53c5.59-0.79,10.1-1.47,12.84-1.9c-2.99,0.08-7.47,0.21-12.92,0.44
		c-6.35,0.27-9.94,0.49-12.66,0.62c-5.5,0.26-13.46,0.43-23.68-0.07c-0.95,1.4-2.28,3.31-3.97,5.52c-3.73,4.89-7.13,8.56-9.34,10.82
		C320.76,236.79,318.53,238.96,315.79,241.35z"/>
	<path class="st13" d="M519.4,599.1c-1.21,0.73-2.96,1.8-5.1,3.07c-4.15,2.47-6.22,3.7-8.08,4.71c-3.41,1.83-5.95,2.8-10.75,4.61
		c-4.7,1.77-10.76,4.05-18.93,6.04c-3.33,0.81-3.4,0.69-14.94,2.97c-5.39,1.06-9.77,1.96-12.59,2.53c2.6-0.01,6.49-0.05,11.26-0.17
		c4.53-0.12,4.54-0.18,8.93-0.28c0.63-0.01,8.62-0.2,14.04-0.12c2.34,0.03,3.92,0.12,5.6,0.09c0.35,0,0.88,0,1.95,0.03
		c0.62,0.01,1.15,0.03,1.83,0.15c0.35,0.07,0.64,0.14,0.83,0.19c4.68-4.71,9.7-9.52,15.07-14.37
		C512.19,605.23,515.83,602.08,519.4,599.1z"/>
	<path class="st5" d="M231.55,441.25c-2.47,4.15-2.89,7.72-2.95,9.63c-0.23,6.6,3.14,12.01,4.27,13.84c1.69,2.73,2.46,2.91,3.4,5.27
		c1.05,2.62,1.1,4.85,0.89,9.67c-0.31,7.44-0.66,8.28-0.82,13.1c-0.09,2.76-0.19,6.54,0.41,11.26c0.61,4.75,2.22,6.37,2.46,10.85
		c0.16,3.07-0.28,5.59-0.66,7.19c0.57-0.86,1.33-1.86,2.36-2.89c1.1-1.11,2.2-1.92,3.11-2.51c0.21-3.81,0.19-6.89,0.14-8.9
		c-0.21-9.16-1.48-17.77-2.86-27.06c-0.2-1.36-0.65-4.3-0.93-8.3c-0.22-3.09-0.15-4.12-0.26-5.87c-0.3-4.77-1.51-8.22-3.3-13.31
		C235.69,450.04,234.03,445.91,231.55,441.25z"/>
	<path class="st14" d="M213.38,452.35c2.72,12.58,4.66,22.64,5.93,29.47c1.53,8.24,2.34,13.26,5.22,19.8
		c3.12,7.09,7.06,12.31,9.98,15.66c-1.7-1.31-4.31-3.25-7.62-5.47c-3.54-2.38-4.62-2.89-6.05-4.18c-1.99-1.8-4.4-4.87-5.78-10.38
		C214.5,482.28,213.94,467.31,213.38,452.35z"/>
	
		<linearGradient id="SVGID_1_" gradientUnits="userSpaceOnUse" x1="-37.5521" y1="-21.1204" x2="-121.6922" y2="-22.5231" gradientTransform="matrix(0.9215 0.3884 0.3884 -0.9215 186.4387 181.4797)">
		<stop  offset="0" style="stop-color:#EFCCAF"/>
		<stop  offset="0.4274" style="stop-color:#F7E6D8"/>
		<stop  offset="0.7906" style="stop-color:#FDF8F4"/>
		<stop  offset="1" style="stop-color:#FFFFFF"/>
	</linearGradient>
	<path class="st15" d="M165.25,155.31c-12.72-10.92-25.44-21.84-38.16-32.76c-10.41,10.28-21.42,22.21-32.47,35.94
		c-13.67,16.97-24.74,33.37-33.67,48.26c25.62,11.47,51.24,22.94,76.87,34.41C146.96,212.55,156.1,183.93,165.25,155.31z"/>
	<path class="st5" d="M593.14,322.41c-0.65,2.94-1.25,7.26-0.55,12.33c0.74,5.42,2.18,5.97,3.28,11.15
		c1.91,9.02-1.52,11.65,0.1,20.26c1,5.33,2.66,6.15,4.91,11.97c2.08,5.36,4.05,13.39,3.08,24.56c-0.84-0.78-2.01-1.94-3.23-3.48
		c-3.08-3.89-4.51-7.7-5.4-10.44c-2.14-6.63-2.57-11.71-3.74-21.41c-1.3-10.67-1.25-8.29-2.08-15.7c-0.8-7.09-1.62-16.12-2.1-26.7
		C589.32,324.12,591.23,323.27,593.14,322.41z"/>
	<path class="st14" d="M595.64,320.63c-0.83,0.59-1.66,1.19-2.49,1.79c1.89,2.04,4.29,4.78,6.87,8.19
		c5.21,6.88,8.52,12.95,10.28,16.43c3.27,6.46,5.84,11.54,7.37,18.83c1.13,5.36,0.66,6.98,2.35,23.74c0.32,3.17,0.61,5.76,0.8,7.42
		c0.14-8.34,0.13-16.94-0.04-25.79c-0.19-10.14-0.59-19.95-1.16-29.42c-0.64-0.98-1.7-2.49-3.29-4.07c-2.04-2.03-3.53-2.8-7.16-5.25
		c-2.28-1.54-4.54-3.07-6.63-4.79C600.75,326.23,598.26,323.95,595.64,320.63z"/>
	
		<linearGradient id="SVGID_2_" gradientUnits="userSpaceOnUse" x1="4594.27" y1="-712.1218" x2="4492.585" y2="-713.817" gradientTransform="matrix(-0.9931 -0.117 -0.117 0.9931 5247.6729 1683.4451)">
		<stop  offset="0" style="stop-color:#E0BEA2"/>
		<stop  offset="0.0711" style="stop-color:#E3C4AA"/>
		<stop  offset="0.4902" style="stop-color:#F2E4D8"/>
		<stop  offset="0.8136" style="stop-color:#FBF8F4"/>
		<stop  offset="1" style="stop-color:#FFFFFF"/>
	</linearGradient>
	<path class="st16" d="M754.3,494.52c29.3,6.5,58.6,12.99,87.9,19.49c3.45-16.31,6.37-34.78,7.97-55.13
		c2.39-30.3,1.27-57.31-1.17-79.9c-31.57,6.03-63.14,12.05-94.7,18.08C754.3,429.55,754.3,462.04,754.3,494.52z"/>
	<path class="st17" d="M79.82,442.17c6.28-0.31,14.86-0.66,25.06-0.86c6.43-0.12,17.02-0.32,28.27,0
		c25.63,0.72,24.43,3.26,35.12,2.57c29.85-1.94,50.84-22.5,54.82-26.55c4.12-4.2,8.17-10.22,16.28-22.27
		c10.35-15.39,16.66-24.94,20.56-38.55c2.92-10.21,3.49-19.22,3.43-25.7c5.72-13.64,13.01-21.67,18.85-26.55
		c6.53-5.46,10.43-6.33,18.94-14.56c4.99-4.83,7.86-8.65,13.61-16.28c4.87-6.47,6.56-9.49,7.52-13.42c0.69-2.81,1.69-7.16-0.38-11.8
		c-1.69-3.8-4.6-5.92-6.09-6.85c-3.84,3.37-7.34,6.07-10.23,8.14c-5.3,3.82-9.28,6.09-10.86,6.97c-2.64,1.47-4.24,2.18-4.64,2.36
		c-1.55,0.68-3.96,1.65-6.01,2.36c-0.35,0.12-1.22,0.42-2.38,0.88c0,0-0.97,0.39-1.92,0.82c-6.01,2.74-11.55,7.39-11.55,7.39
		c-3.23,2.72-2.86,3.12-7.62,7.62c-5.8,5.5-10.95,9.7-14.47,12.56c-3.61,2.94-6.37,5.05-7.23,5.71c-2.56,1.95-7.27,5.55-11.04,7.99
		c-4.03,2.61-10.24,6.03-19.04,8.76c2.69-0.81,6.03-1.98,9.76-3.7c0.93-0.43,4.62-2.14,9.28-5.06c3.43-2.15,5.97-4.1,11.04-7.99
		c3.78-2.9,6.57-5.17,7.23-5.71c3.95-3.22,8.73-7.12,14.47-12.56c1.91-1.81,4.55-4.38,7.62-7.62c-1.87,1.71-4.67,3.96-8.42,6
		c-1.25,0.68-5.59,2.96-12.28,4.42c-13.21,2.9-24.6,0.24-31.41-1.43c-3.91-0.95-7.03-2-8.99-2.71c-5.43,8.44-10.85,17.01-16.28,25.7
		c-8.63,13.84-16.97,27.55-25.03,41.12c-2.34,0.93-5.88,2.49-9.9,4.95c-4.41,2.7-6,4.39-8.76,6.09c-6.02,3.73-12.11,4.1-16.56,4.38
		c-9.65,0.6-14.21-2.23-31.98-7.42c-4.64-1.36-11.36-3.22-19.63-5.14C79.25,378.22,79.53,410.2,79.82,442.17z"/>
	<path class="st18" d="M438.95,756.6c-0.41-4.04-0.93-10.1-1.14-17.47c-0.51-17.63,1.26-24.39,1.71-37.12
		c0.34-9.57,0.18-29.06-6.28-50.83c-4.26-14.36-6.41-21.58-13.13-29.12c-6.49-7.28-9.71-6.4-32.55-21.7
		c-10.91-7.31-12.34-8.96-20.56-13.71c-13.58-7.85-21.09-9.92-26.84-10.85c-5.94-0.95-10.95-0.83-14.28-0.57
		c-6.59-3.3-15.49-8.9-23.41-18.27c-2.65-3.13-4.81-6.23-6.57-9.14c-3.65-4.81-8.34-10.15-14.28-15.42
		c-2.93-2.6-5.81-4.87-8.57-6.85c-1.14-1.9-5.2-8.14-13.13-10.56c-2.19-0.67-7.02-2.06-12.56,0c-5.09,1.9-7.84,5.62-8.81,7.08
		c4.15,7.54,8.12,13.02,11.1,16.75l0,0c0,0,5.77,6.6,9.57,16.16c0.99,2.5,1.28,3.39,1.28,3.39c0.41,1.25,0.51,1.81,0.95,2.71
		c0.64,1.32,1.38,2.16,1.62,2.45c2.07,2.49,1.33,5.55,3.81,10.55c0,0,2.42,4.88,6.33,7.49l0,0c3.47,4.05,3.82,2.72,10.66,8.93
		c0.24,0.22,6.12,5.6,11.18,11.86c9.94,12.3,13.71,24.27,13.71,24.27s-3.76-11.97-13.71-24.27c-5.06-6.26-10.94-11.64-11.18-11.86
		c-5.71-5.19-7.32-5.5-10.66-8.93c-1.19-1.23-2.37-2.54-3.52-4.11c-4.25-5.8-5.83-11.37-6.61-13.93
		c-1.65-5.36-5.57-11.81-13.41-24.71c-5.94-9.76-11.08-16.76-11.1-16.75c-0.01,0,7.14,6.23,11.1,16.75c0,0,4.81,12.78,9.32,15.92
		c0.08,0.06,0.29,0.2,0.54,0.44c1.45,1.4,1.13,3.27,1.73,5.44c0.14,0.51,0.29,0.9,1.64,3.34c2.7,4.87,5.25,9.06,5.33,9.18
		c1.2,1.97,2.93,4.84,4.99,8.44c1.24,3.13,2.68,7.42,3.71,12.66c0.3,1.53,0.85,5.87,1.28,10.42c0.49,5.19-0.03,12.78-4.85,22.84
		c7.84,6.08,14.57,11.09,19.7,14.85c13.19,9.65,19.94,14.55,27.41,18.56c9.26,4.96,9.99,4.03,14.85,7.71
		c1.86,1.41,10.57,8.22,15.99,20.84c1.6,3.72,4.92,11.7,4.28,21.99c-0.39,6.29-2.02,9.44-4.57,17.42
		c-2.04,6.38-4.65,15.75-6.57,27.75C375.94,756.6,407.44,756.6,438.95,756.6z"/>
	<path class="st17" d="M754.3,397.06c-2.65,0.67-6.42,1.53-10.97,2.28c-11.94,1.98-21.46,1.9-27.98,1.71
		c-21.15-0.6-24.36-2.73-35.98-2.86c-7.72-0.08-38.46-0.41-59.39,18.85c-6.56,6.03-12.36,14.18-20.56,25.7
		c-4.11,5.78-7.62,11.16-10.85,16.56c-3.15,5.27-6.65,11.16-10.28,19.42c-5.63,12.81-6.16,18.96-6.28,21.13
		c-0.25,4.28,0.15,7.84,0.57,10.28c-2.15,4.66-5.4,10.51-10.28,16.56c-5.8,7.2-11.88,12.17-16.56,15.42
		c-4.03,1.98-7.92,4.58-11.42,7.99c-3.94,3.84-4.56,5.96-10.28,13.13c-6.62,8.31-7.71,7.88-9.14,10.85
		c-2.14,4.46-2.83,11.96,4.57,25.13c5.95-5.19,12.79-10.62,20.56-15.99c10.74-7.43,21.04-13.2,30.27-17.7
		c5.67-5.18,12.03-10.53,19.13-15.84c12.57-9.42,24.74-16.73,35.69-22.41c-10.95,5.68-23.12,12.99-35.69,22.41
		c-7.1,5.32-13.46,10.66-19.13,15.84c2.41-1.08,5.59-2.34,9.42-3.43c0,0,6.3-1.79,13.13-2.42c14.59-1.35,30.5,3.43,33.26,4.28
		c7.88-11.64,15.73-23.3,23.55-34.98c7.26-10.83,14.49-21.68,21.7-32.55c3.1-3.05,8.63-7.7,16.75-10.85
		c1.51-0.59,7.11-2.67,14.85-3.23c9.55-0.7,16.97,1.32,22.46,2.86c7.53,2.11,9.78,3.9,21.89,7.42c2.92,0.85,5.35,1.49,6.97,1.91
		C754.3,462.04,754.3,429.55,754.3,397.06z"/>
	<path class="st18" d="M393.55,83.53c0.19,5.79,0.47,14.3,0.86,24.58c0.88,23.39,1.32,35.08,1.71,40.26
		c2.28,29.87,3.5,45.73,13.71,62.53c9.76,16.07,23.31,25.67,28.27,29.12c8.98,6.24,7.46,3.02,30.84,16.28
		c10.2,5.78,14.6,8.73,22.27,9.42c6.28,0.57,9.02-0.89,15.42,0.86c5.96,1.63,9.78,4.6,14.75,8.47c2.36,1.84,9.68,7.76,16.75,17.7
		c4.76,6.68,4.23,7.92,7.99,11.42c4.85,4.52,7.35,3.99,12.94,9.14c5.23,4.81,4.27,6.4,8.37,9.14c5.95,3.97,12.64,3.76,15.61,3.43
		c7.22-0.81,11.98-4.58,13.71-6.09c-3.73-5.29-7.46-10.85-11.18-16.65c-6.81-10.64-12.82-20.99-18.13-30.93
		c-2.94-3.22-7.03-7.77-11.8-13.33c-4.89-5.69-9.02-10.5-14.08-17.13c-4.11-5.37-7.3-9.54-11.04-15.61c-3.65-5.92-6.25-11.1-8-14.85
		c1.74,3.74,4.35,8.93,8,14.85c3.74,6.07,6.93,10.24,11.04,15.61c5.07,6.62,9.2,11.44,14.08,17.13c4.77,5.56,8.86,10.1,11.8,13.33
		c-3.31-3.81-8.31-10.7-10.56-20.46c-1.5-6.53-1.19-11.8-0.86-16.85c0.38-5.74,1.56-13.94,5.14-23.41
		c-3.44-2.33-9.59-6.45-17.42-11.42c-23.14-14.68-33.45-19.33-46.83-31.98c-6.76-6.39-10.74-11.47-13.71-17.7
		c-0.96-2.03-4.46-10.06-4.57-21.13c-0.06-5.55,0.78-8.88,7.09-32c0.88-3.22,2.17-7.94,3.76-13.71
		C457.51,83.53,425.53,83.53,393.55,83.53z"/>
	<path class="st3" d="M513.48,581.49c-0.83,0.68-2.11,1.64-3.79,2.56c-6.44,3.51-12.57,3-17.7,2.96
		c-5.01-0.03-12.01,0.36-20.72,2.28c5.26,0.14,9.63,0.19,12.79,0.22c5.94,0.05,8.99,0.07,12.49-0.07c2.05-0.09,6.24-0.3,11.55-0.89
		c2.53-0.28,4.7-0.57,6.39-0.82C514.16,585.65,513.82,583.57,513.48,581.49z"/>
	<path class="st19" d="M273.06,525.55c0.99,1.87,2.4,4.41,4.23,7.33c1.43,2.28,6.33,9.94,16.02,20.24
		c8.11,8.63,12.17,12.94,18.96,16.73c5.37,3,10.27,4.55,13.62,5.38c-7.56-3.77-13.01-8.03-16.54-11.2c-4.62-4.15-7.67-7.99-8.8-9.44
		c-2.34-3.03-2.35-3.56-4.65-6.77c-4.39-6.12-8.68-10.21-11.83-13.18C281.23,531.97,277.57,528.8,273.06,525.55z"/>
	<path class="st20" d="M577.19,311.06c1.47,3.47,2.67,4.84,6.58,11.72c0.7,1.24,1.26,2.25,1.61,2.88c1.32-0.36,2.81-0.85,4.39-1.54
		c2.55-1.11,4.6-2.41,6.18-3.58c-1.29-2.29-2.63-4.59-3.99-6.91c-3.66-6.2-7.36-12.12-11.08-17.78c-1.44,0.94-5.07,3.58-5.63,7.78
		C574.96,305.8,575.7,307.55,577.19,311.06z"/>
	<path class="st20" d="M620.28,391.43c-1.09,2.92-0.95,4.95-1.23,8.87c-0.4,5.79-1.05,6.53-1.61,6.87
		c-0.76,0.46-1.67,0.34-3.45,0.07c-2.4-0.36-4.26-1.04-5.46-1.55c0.51,1.12,1.69,3.23,4.08,4.59c1.01,0.58,2.39,1.37,4.14,1.08
		c2.51-0.42,3.79-2.71,3.99-3.07c0.05-6.1,0.1-12.2,0.16-18.31C620.74,390.3,620.51,390.8,620.28,391.43z"/>
	<path class="st20" d="M604.72,413.93c-1.62,5.86-2.45,8.8-3.68,9.34c-1.06,0.47-2.2,0.15-4.01-0.35c-1.67-0.46-2.91-1.19-3.67-1.72
		c0.29,0.49,0.73,1.12,1.36,1.77c0.68,0.7,1.28,1.11,1.82,1.48c1.46,0.99,2.18,1.49,3.07,1.48c0.36,0,1.3-0.08,2.35-1.08
		c0.37-1.22,1.29-4.29,2.14-7.49c0.34-1.27,0.69-2.64,1.03-4.41c0.11-0.58,0.19-1.07,0.25-1.41
		C605.25,412.03,604.84,413.48,604.72,413.93z"/>
	<path class="st20" d="M257.96,545.61c0.67-0.66,2.51-2.48,3.13-5.47c0.04-0.2,0.07-0.36,0.08-0.46c0.45-2.7-0.46-4.76-1.83-7.76
		c-0.05-0.1-0.09-0.19-0.13-0.28c-0.77-1.63-2.72-5.48-6.82-10.77c-1.23-1.58-2.9-3.62-5.03-5.89c-1.54,0.45-2.75,1.05-3.62,1.56
		c-0.44,0.26-1.81,1.08-3.31,2.52c-0.62,0.59-1.38,1.4-2.13,2.45c2.97,4.94,5.06,9.07,6.42,11.96c1.85,3.92,2.91,6.67,5.76,9.52
		c2.08,2.08,4.23,3.32,5.72,4.05C256.98,546.52,257.56,546,257.96,545.61z"/>
	<path class="st20" d="M213.21,446.66c0.67-2.81,0.76-5.07,0.73-6.6c-0.08-3.09-0.73-5.21,0.21-8.19c0.37-1.17,0.88-2.13,1.84-2.76
		c0.08-0.06,1.22-0.78,2.56-0.61c1.88,0.22,3.55,2.12,3.99,4.71c-0.67-0.34-2.65-1.25-4.81-0.92c-1.19,0.18-2.24,0.72-2.62,1.21
		c-0.16,0.21-0.33,0.46-0.33,0.46c-0.03,0.04-0.29,0.45-0.51,0.97c-0.59,1.39-0.81,3.07-0.81,3.07c-0.02,0.17-0.02,0.23-0.12,1.87
		c-0.09,1.58-0.13,2.38-0.14,2.49C213.16,443.34,213.14,444.78,213.21,446.66z"/>
	<path class="st20" d="M230.29,425.16c1.66-3.12,2.09-5.32,2.16-6.78c0.02-0.46,0.06-1.78,0.93-2.79c0.18-0.21,0.87-1.01,1.89-1.03
		c0.04,0,0.42,0,0.82,0.15c1.47,0.58,1.8,2.85,1.83,3.05c-0.42-0.22-1.05-0.51-1.85-0.75c-0.7-0.21-1.06-0.31-1.54-0.27
		c-0.15,0.01-1.39,0.15-1.91,1.08c-0.09,0.16-0.14,0.3-0.16,0.41c0-0.09,0.01-0.19,0.02-0.29c-0.13,0.25-0.32,0.65-0.52,1.17
		c-0.3,0.81-0.33,1.14-0.7,2.44c-0.25,0.87-0.28,0.85-0.49,1.59C230.53,424.01,230.38,424.71,230.29,425.16z"/>
	<path class="st21" d="M540.09,579.75c-0.31-0.09-1.6-0.43-4.1,0c-1.27,0.22-3.8,0.8-7.16,2.86c-2.92,1.8-4.75,3.66-7.16,6.14
		c-2.11,2.17-3.7,4.11-4.75,5.46c0.38,0.88,0.83,1.82,1.36,2.79c0.9,1.65,1.87,3.05,2.78,4.23c1.17,0.03,14.42,0.17,20.67-9.62
		c1.91-3,2.62-6.06,2.86-8.39C544.05,582.41,542.62,580.46,540.09,579.75z"/>
	<path class="st21" d="M448.46,623.01c-4.1-0.31-8.3-0.56-12.61-0.72c-1.59-0.06-3.16-0.11-4.73-0.15c0.09,0.06,0.18,0.11,0.27,0.17
		c0.04,0.02,0.07,0.04,0.12,0.07c0.12-0.02,0.18-0.03,0.18-0.03s-0.06,0.01-0.18,0.03c-0.35,0.07-1.27,0.23-2.11-0.27
		c-1.46-0.88-1.31-2.98-1.28-3.33c0.16-2.18,1.97-3.45,2.26-3.64c-0.21,0.86-0.36,1.6-0.47,2.19c-0.29,1.53-0.32,2.1-0.2,2.73
		c0.14,0.71,0.39,1.09,0.46,1.19c0.32,0.46,0.75,0.75,0.96,0.89c0.16,0.11,0.29,0.18,0.4,0.24c1.71,0.12,3.44,0.22,5.19,0.3
		C440.74,622.88,444.65,622.99,448.46,623.01z"/>
	<path class="st21" d="M425.6,608.21c-1.43-0.42-2.95-0.94-4.55-1.56c-2.24-0.88-4.25-1.83-6.01-2.77c-0.08,0-0.16,0-0.24,0
		c0.08,0,0.16,0,0.24,0c0.09,0.1,0.19,0.21,0.29,0.31c-0.35-0.13-2.75-1.06-3.25-3.22c-0.1-0.45-0.34-1.47,0.29-2.28
		c0.54-0.7,1.4-0.82,1.64-0.84c-0.45,0.81-0.56,1.52-0.59,1.94c-0.14,1.98,1.13,3.51,1.52,3.98c0.15,0.19,0.29,0.33,0.38,0.43
		c1.61,1.02,3.7,2.13,6.27,2.99C423.04,607.66,424.39,607.99,425.6,608.21z"/>
	<path class="st21" d="M297.5,254.85c3.57,1.52,6.36,1.43,7.87,1.25c3.04-0.37,5.26-1.76,9.57-4.5c2.87-1.83,5.12-3.52,6.6-4.71
		c-0.62-1.01-1.52-2.27-2.81-3.53c-1.03-1.01-2.05-1.76-2.92-2.3c-2.27,2.15-4.86,4.4-7.78,6.65
		C304.35,250.56,300.78,252.92,297.5,254.85z"/>
	<path class="st21" d="M385.94,217.72c1.38,0.43,2.54,0.7,3.34,0.87c0,0,4.55,0.96,14.85,0.12c0.31-0.03,1-0.09,1.8-0.42
		c0.33-0.14,0.59-0.28,0.76-0.38c2.42,0.07,3.08,0.96,3.25,1.25c1,1.67-0.79,5.17-4.95,8.44c0.43-1.15,0.87-2.6,1.14-4.33
		c0.25-1.6,0.29-3.01,0.25-4.17c-0.15-0.28-0.3-0.55-0.45-0.82c0.25-0.13,0.51-0.25,0.76-0.38
		C399.77,217.84,392.86,217.78,385.94,217.72z"/>
	<path class="st21" d="M413.64,234.01c0.56,0.5,1.04,0.86,1.36,1.08c1.84,1.3,3.68,1.99,5.37,2.61c0.18,0.07,0.32,0.12,0.41,0.15
		c2.21,2.09,2.99,4.82,2.05,6.61c-0.86,1.64-2.49,1.96-2.49,1.96c-1.25,0.24-2.24-0.32-2.53-0.5c0.81-0.93,1.78-2.26,2.47-3.94
		c0.67-1.65,0.67-2.65,0.65-3.16c-0.02-0.4-0.09-0.74-0.14-0.96c-1.13-0.85-2.52-1.76-4.19-2.59
		C415.54,234.74,414.55,234.33,413.64,234.01z"/>
	<path class="st11" d="M267.18,271.33c-2.42,2.19-6.57,5.4-12.48,7.68c-5.87,2.26-11.04,2.68-14.3,2.7c0,1.36-0.15,3.4-0.98,5.67
		c-1.1,3.03-2.79,4.74-10.23,11.05c-8.78,7.44-11.1,9.01-12.18,9.72c-3.19,2.11-6.03,3.68-8.19,4.78c2.87-0.88,6.93-2.31,11.56-4.55
		c6.11-2.97,10.11-5.92,17.85-11.69c9.13-6.8,15.6-12.56,18.56-15.26C261.07,277.5,264.58,274.01,267.18,271.33z"/>
	<path class="st22" d="M569.71,565.81c3.65-1.41,7.8-2.79,12.42-3.97c3.82-0.97,7.41-1.67,10.72-2.17c1.18-2.7,3.12-6.54,6.24-10.62
		c3.85-5.04,7.62-7.98,13.46-12.48c3.89-3.01,9.24-6.84,15.97-10.85c-5.51,2.68-12.23,6.21-19.65,10.74
		c-1.66,1.01-8.92,5.47-18.14,12.25C584.84,553.04,577.62,558.71,569.71,565.81z"/>
	<path class="st23" d="M273.2,581.57c0.56,14.31,1.12,28.62,1.68,42.93c0.76-2.22,1.93-5.41,3.56-9.16
		c3.25-7.48,4.88-11.22,6.73-11.65c2.88-0.66,5.74,3.13,19.34,20.57c2.5,3.21,4.66,5.97,6.19,7.93c-0.76-2.51-1.65-5.06-2.7-7.65
		C299.67,603.97,285.1,590.19,273.2,581.57z"/>
	<path class="st23" d="M566.91,271.56c-1.68-2.34-3.35-4.68-5.03-7.01c-2.47-4.56-6.38-13.24-6.83-24.78
		c-0.34-8.84,1.48-15.98,3.02-20.47c-1.64,2.67-6.57,9.92-13.28,10.04c-6.71,0.12-12.19-6.92-18.52-15.04
		c-2.45-3.15-4.21-5.92-5.32-7.78c1.28,3.25,3.23,7.88,5.88,13.3c3.87,7.88,10.61,21.39,23.08,35.52
		C553.79,259.72,559.39,265.5,566.91,271.56z"/>
	<path class="st24" d="M638.18,413.87c1.61,6.93,0.79,11.88-0.31,15.17c-0.93,2.79-1.53,2.79-3.62,7.99
		c-2.13,5.29-3.39,8.53-3.43,12.76c-0.01,1.98,0.23,5.05,1.71,8.76c2.41-4.1,4.83-8.22,7.23-12.37c4.12-7.11,8.18-14.18,12.16-21.21
		c-1.62-0.3-3.96-0.96-6.4-2.47C640.99,419.67,638.94,415.63,638.18,413.87z"/>
	<path class="st25" d="M397.96,200.47c2.36,0.3,5.98,0.51,10.25-0.32c3.03-0.59,4.04-1.25,6.47-1.52c1.72-0.19,3.88-0.15,11.14,2.28
		c8.74,2.93,10.82,4.63,16.28,5.14c2.41,0.22,4.41,0.12,5.71,0c-4.39-1.82-8.87-3.63-13.42-5.43c-6.72-2.64-13.34-5.14-19.84-7.49
		c-1.67,1.12-3.58,2.27-5.74,3.36C404.81,198.48,401.08,199.7,397.96,200.47z"/>
	<path class="st26" d="M200.1,400.06c0.42,5.13-0.06,9.14-0.57,11.85c-0.84,4.49-1.68,4.86-1.85,8.42
		c-0.2,4.04,0.77,5.59,0.86,10.85c0.05,2.72-0.17,4.95-0.36,6.37c-1.62-3.58-3.25-7.17-4.88-10.75c-1.02-4.73-0.63-8.46-0.19-10.76
		c0.65-3.36,1.87-5.95,3.57-9.56C197.95,403.78,199.18,401.6,200.1,400.06z"/>
	<path class="st25" d="M402.8,642.13c-6.51-2.6-13.02-5.2-19.52-7.79c3.32-0.22,7.86-0.26,13.15,0.49
		c12.62,1.8,16.32,6.26,26.83,6.08c7-0.12,12.52-2.22,12.66-1.71c0.07,0.25-1.26,1.01-8.04,3.37c-1.7,0.91-3.4,1.82-5.1,2.72
		c-1.23,1.1-2.45,2.2-3.68,3.3c-2.36-0.76-4.83-1.63-7.38-2.62C408.52,644.72,405.55,643.43,402.8,642.13z"/>
	<path class="st27" d="M199.14,403.83c-0.35,1.34-0.73,2.83-1.33,4.76c-0.95,3.04-1.2,3.15-1.59,4.81
		c-0.39,1.68-0.18,1.71-0.56,5.22c-0.55,4.98-1.02,5.25-0.66,7.06c0.17,0.88,0.47,1.76,0.72,3.58c0.15,1.13,0.11,1.3,0.26,2.41
		c0.38,2.85,0.94,3.7,0.66,3.89c-0.61,0.42-5.17-2.82-6.5-7.83c-0.76-2.86-0.16-5.27,1.03-10.08c0.71-2.88,1.59-5.12,2.56-7.57
		c0.89-2.27,1.51-3.81,2.61-5.73c1.39-2.42,2.86-4.25,3.97-5.47C199.93,400.64,199.54,402.29,199.14,403.83z"/>
	<path class="st28" d="M634.17,454.14c0.6-1.63,0.77-2.11,1.11-2.95c0.75-1.84,1.44-3.21,1.92-4.15c3.7-7.2,4.48-7.62,5.4-10.63
		c0.56-1.83,0.1-1.13,1.14-5.79c1.1-4.93,1.51-5.27,1.84-7.99c0.37-3.07,0-3.96,0.71-4.5c0.88-0.67,2.99-0.49,8.54,3.63
		c-6.39,12.39-10.99,21.43-13.1,26.41c-0.6,1.42-2.01,4.88-5.4,7.83c-1.5,1.31-2.93,2.12-3.81,2.56
		C633.2,456.76,633.76,455.26,634.17,454.14z"/>
	<path class="st29" d="M407.05,197.32c2.61-0.33,4.47-0.62,5.72-0.84c0.46-0.08,1.32-0.24,2.49-0.35c0,0,1.5-0.14,2.84-0.12
		c2.79,0.05,5.64,1.51,6.22,1.8c7.44,3.78,8.24,2.2,15.85,6.22c1.61,0.85,4.25,2.34,7.63,2.01c1.05-0.1,1.91-0.35,2.46-0.55
		c-5.6-2.71-10.3-4.39-13.55-5.41c-4.99-1.58-9.2-2.46-14.28-5.72c-2.12-1.36-3.71-2.7-4.7-3.6c-1.43,1.12-3.07,2.29-4.93,3.45
		C410.77,195.47,408.83,196.49,407.05,197.32z"/>
	<path class="st29" d="M378.19,633.56c6.95,0.75,12.71,1.96,17.04,3.07c5.28,1.35,7.87,2.13,11.05,3.37
		c5.97,2.35,6.14,3.28,9.29,3.61c3.91,0.41,7.66-0.61,8.22-0.77c2.2-0.62,3.19-1.26,6.01-1.93c2.11-0.5,3.89-0.68,5.05-0.76
		c-2.41,1.93-5.96,4.68-10.44,7.83c-1.88,1.32-3.43,2.37-3.68,2.53C413.61,655.13,389.23,640.55,378.19,633.56z"/>
	<path class="st30" d="M632.54,458.55c-4.18,6.15-6.47,11.42-7.8,15.23c-1.13,3.23-1.7,5.79-4,9.14c-2.09,3.05-3.41,3.56-5.9,7.04
		c-1.51,2.1-3.32,4.63-4.38,8.19c-0.37,1.22-2.89,9.69,1.91,15.8c1.17,1.49,2.47,2.45,3.43,3.05c5.18-5.1,10.36-10.19,15.55-15.29
		c-0.55-1.36-1.24-3.45-1.51-6.08c-0.16-1.56-0.26-4.16,1.48-11.08c0.84-3.35,1.83-7.22,3.9-12.22c1.27-3.07,3.07-6.87,5.62-11.02
		c1.85-5.93,4.49-12.84,8.3-20.23c3.17-6.13,6.53-11.37,9.68-15.75c-2.29-0.12-4.58-0.25-6.88-0.37
		C645.46,436.16,639,447.35,632.54,458.55z"/>
	<path class="st30" d="M688.64,439.32c0.56-2.88,1.26-6.73,2-11.28c0,0,1.34-8.32,2.14-15.27c1.78-15.48,1.25-35.24,1.12-39.42
		c-2.94,19.9-5.88,39.79-8.83,59.69c-3.71,4.97-7.61,10.74-11.39,17.35c-4.35,7.61-7.69,14.82-10.27,21.27
		c2.47-3.3,4.97-6.6,7.52-9.92C676.85,454.04,682.75,446.57,688.64,439.32z"/>
	<path class="st31" d="M423.24,182.92c2.16,1.76,5.62,4.43,10.19,7.23c5.61,3.44,8.72,4.54,15.61,8.37
		c2.68,1.49,6.6,3.77,11.23,6.85c-2.16,0.42-5.34,0.84-9.14,0.57c-6.78-0.48-11.19-2.84-17.34-5.56
		c-4.55-2.01-11.03-4.65-19.25-7.26c0.74-0.42,1.64-0.99,2.6-1.76c0.7-0.56,1.8-1.52,2.92-2.89
		C421.67,186.5,422.64,184.51,423.24,182.92z"/>
	<path class="st24" d="M200.25,381.36c0.81,2.41,1.76,6.22,1.43,10.85c-0.24,3.38-1.08,5.85-2.04,8.65
		c-2.63,7.62-4.87,8.84-6.23,13.88c-0.72,2.67-1.27,6.67-0.1,12.07c-0.82-1.36-1.93-2.92-3.43-4.48c-3.15-3.3-6.56-5.07-8.86-6.02
		c1.19-2.33,3.24-6.33,5.82-11.39c3.62-7.1,4.46-8.76,5.85-11.28c2.03-3.66,4.03-6.91,6.07-10.03
		C199.36,382.68,199.87,381.9,200.25,381.36z"/>
	<path class="st31" d="M368.57,632.34c8.04,0.71,14.24,2.35,18.41,3.71c6.31,2.06,9.5,3.99,19.7,7.99c5.25,2.06,9.59,3.58,12.4,4.54
		c-1.42,2.77-2.85,5.54-4.27,8.31c-8.07-4.06-16.26-8.29-24.56-12.7C382.87,640.25,375.63,636.29,368.57,632.34z"/>
	<path class="st28" d="M198.97,385.48c-0.54,1.65-0.69,2.14-1,3c-0.68,1.87-1.32,3.26-1.76,4.22c-3.42,7.33-4.19,7.78-4.99,10.82
		c-0.49,1.85-0.06,1.14-0.92,5.83c-0.91,4.97-1.32,5.32-1.54,8.06c-0.25,3.08,0.15,3.96-0.54,4.53c-0.85,0.71-2.97,0.6-8.67-3.3
		c5.92-12.62,10.17-21.84,12.09-26.89c0.55-1.45,1.83-4.96,5.1-8.03c1.46-1.37,2.85-2.22,3.71-2.7
		C199.84,382.83,199.34,384.36,198.97,385.48z"/>
	<path class="st32" d="M417.73,190.76c2.01,0.43,3.64,0.51,4.77,0.51c1.24,0,1.8-0.12,3.17-0.05c0.32,0.01,1.87,0.1,3.63,0.51
		c1.94,0.45,3.3,1.1,5.95,2.44c3.09,1.57,5.4,2.81,5.6,2.92c1.68,0.89,6.27,3.31,11.63,5.49c1.84,0.75,4.49,1.76,7.78,2.8
		c-0.82-1.27-1.72-2.53-2.71-3.77c-10.05-12.54-24.72-17.04-34.29-18.81c-0.56,1.75-1.3,3.06-1.87,3.93
		c-0.66,1.01-1.31,1.73-1.65,2.1C419.01,189.64,418.31,190.28,417.73,190.76z"/>
	<path class="st32" d="M370.92,634.81c1.84-0.43,4.57-0.77,7.47,0.21c1.73,0.58,2.86,1.4,3.48,1.84c4.25,3.01,5.09,2.33,13.41,6.96
		c8.58,4.78,8.62,6.03,11.87,6.35c1.24,0.12,3.7,0.18,7.06,1.13c1.72,0.49,3.09,1.04,3.99,1.43c-0.58,1.98-1.16,3.96-1.74,5.94
		C401.28,650.71,386.1,642.76,370.92,634.81z"/>
	<path class="st33" d="M499.3,205.88c4.47,5.55,7.16,8.53,8.77,10c0.11,0.1,1.37,1.25,2.41,3.07c0.59,1.04,0.89,1.92,0.97,2.88
		c0.05,0.62,0,1.15-0.07,1.51c-0.91,0.86-1.82,1.71-2.72,2.57c-3.02,0.56-9.41,1.32-16.8-1.21c-8.93-3.06-13.98-9.09-15.8-11.52
		c-6.83-2.88-12.16-5.72-15.8-7.8c-5.29-3.04-5.79-3.78-11.79-7.16c-7.06-3.98-8.87-4.35-14.17-7.53
		c-4.64-2.79-8.35-5.55-11.07-7.77c8.15,4.94,17.9,9.51,29.26,12.55c1.6,0.43,3.17,0.81,4.72,1.15c4.62,3.05,8.87,5.07,12.19,6.42
		c4.39,1.78,7.84,2.65,10.23,3.24c5.41,1.34,8.29,2.03,12.12,1.65C495.03,207.61,497.62,206.65,499.3,205.88z"/>
	<path class="st30" d="M202.16,335.68c2.12-2.93,5.7-6.96,11.22-10c1.81-0.99,3.54-1.73,5.14-2.28c1.51,0.78,3.28,2.02,4.57,4
		c4.9,7.5-1.66,18.62-2.86,20.56c-2.09,3.37-4.51,5.69-6.28,7.14c-3.84,5.29-6.23,9.9-7.71,13.13c-2.69,5.89-2.96,8.54-6.29,13.57
		c-0.98,1.47-2.32,3.3-4.31,6.59c-1.6,2.64-2.69,4.69-3.4,6.04c-4.26,8.07-10.56,20.54-11.23,21.87c-0.38,0.04-0.77,0.07-1.16,0.11
		c4.19-12.16,8.39-24.32,12.59-36.49c3.34-3.79,8.84-11.08,11.21-21.42c0.91-3.95,2.35-10.59,0.13-18.41
		C203.25,338.24,202.64,336.73,202.16,335.68z"/>
	<path class="st33" d="M317.51,619.2c0.79-1.48,2.57-4.26,5.9-5.9c3.23-1.59,6.15-1.23,9.9-0.76c2.57,0.32,8.81,1.17,15.23,5.71
		c2,1.42,4.92,3.83,7.62,7.62c2.88,1.46,7.2,3.67,12.42,6.47c5.87,3.15,6.52,3.62,13.17,7.26c9.24,5.06,16.77,8.95,21.97,11.63
		c4.22,2.18,7.82,4.01,10.54,5.37c-0.08,0.2-0.15,0.4-0.23,0.59c-4.04-0.63-7.05-1.76-9.05-2.68c-4.17-1.91-5.34-3.52-11.23-6.48
		c-2.24-1.12-3.96-1.99-6.38-2.76c-4.33-1.38-8.13-1.58-10.66-1.52c-4.18-3.14-8.03-5.14-10.89-6.41
		c-4.24-1.88-7.51-2.64-14.05-4.16c-7.13-1.66-9.24-1.54-10.93-1.26c-3.54,0.61-6.22,2.21-7.9,3.44
		C327.8,629.98,322.65,624.59,317.51,619.2z"/>
	<path class="st34" d="M205.18,332.04c0.32,1.67,0.73,4.04,1.08,6.9c0.48,3.91,0.79,7.49,0.72,11.77c-0.07,4.4-0.95,7.59-1.94,11.15
		c-1.48,5.35-2.68,6.59-7.47,16.68c-4.36,9.18-4.17,9.78-7.98,17.5c-1.46,2.95-2.78,5.98-4.3,8.9c-1.78,3.42-2.44,4.37-2.97,6.55
		c-0.67,2.77-0.3,4.07-1.3,4.8c-1.64,1.2-5.82,0-6.99-2.34c-2.02-4.03,6.13-9.02,12.59-20.26c6.23-10.85,7.64-21.91,8.5-28.55
		c1.33-10.41,0.34-17.41,5.43-26.51C202.18,335.68,203.93,333.47,205.18,332.04z"/>
	<path class="st34" d="M621.93,510.94c1.14-2.1,2.65-5.41,3.41-9.68c0.7-3.91-0.04-4.11,0.68-11.47c0.47-4.79,1.13-8.02,2.01-11.14
		c1.52-5.34,2.72-6.57,7.57-16.64c4.41-9.15,4.23-9.76,8.09-17.45c1.48-2.94,2.81-5.96,4.35-8.87c0.98-1.86,2.03-3.74,3.01-6.53
		c0.7-1.98,1.1-3.67,1.33-4.79c2.77,0.01,5.97,0.43,6.97,2.39c1.93,3.77-6.35,9.23-12.71,20.18c-1.97,3.39-2.79,5.66-8.67,28.5
		c-2.01,7.81-4.25,16.61-6.65,26.26C628.2,504.78,625.06,507.86,621.93,510.94z"/>
	<path class="st35" d="M423.24,182.92c15.23,10.15,22.27,12.96,25.87,13.52c0.84,0.13,3.87,0.51,7.45,2.23
		c2.51,1.2,3.43,2.17,5.46,3.51c2.86,1.88,6.02,2.87,12.34,4.85c4.8,1.51,7.51,2.36,11.52,2.92c2.1,0.29,2.05,0.15,8.29,0.84
		c4.55,0.51,6.13,0.45,8.29,1.31c2.58,1.02,4.4,2.56,5.49,3.65c-2.88-3.29-5.76-6.58-8.64-9.87c-0.79,0.34-1.94,0.78-3.37,1.15
		c-1.92,0.51-5.76,1.26-12.98,0.06c-1.79-0.3-8.01-1.43-15.99-5.09c-4.18-1.91-7.48-3.89-9.74-5.37
		C445.9,192.06,434.57,187.49,423.24,182.92z"/>
	<path class="st35" d="M325.43,627.5c3.52-0.72,9.06-1.37,15.63-0.19c4.46,0.81,8.08,2.22,10.72,3.51
		c11.31,2.11,19.71,5.4,25.38,8.08c4.53,2.14,10.49,5.4,22.92,11.77c1.3,0.66,4.43,2.27,8.65,4.19c2.18,1,4.01,1.79,5.28,2.33
		c-1.38,0.48-3.44,1.04-5.94,1.1c-7.75,0.16-13.6-4.66-14.94-5.68c-5.58-4.26-20.55-9.68-58.74-15.76
		C331.4,633.74,328.42,630.62,325.43,627.5z"/>
	<path class="st36" d="M688.22,164.07c-16.5,16.45-25.89,31.5-31.12,41.4c-4.12,7.78-6.76,14.44-6.57,22.56
		c0.22,9.29,4.06,15.72,7.71,22.27c9.39,16.85,16.21,35,24.84,52.25c3.76,7.52,9.45,19.02,16.28,33.41c0.08,1.6,0.12,4.11-0.29,7.14
		c-0.86,6.45-2.93,9.55-4.28,14.56c-1.42,5.27-0.93,8.6-0.86,14.28c0.07,5.7-2.33,20.72-7.14,50.54c-0.73,4.52-1.33,8.21-1.71,10.56
		c-12.33,16.86-18.71,30.58-22.27,40.26c-1.44,3.91-3.83,11.01-8.85,19.99c-4.71,8.43-9.64,14.75-13.13,18.85
		c-2.6-1.59-7.7-5.26-9.99-11.71c-2-5.62-0.86-10.5,0.86-17.42c1.32-5.31,3.86-13.06,9.14-21.7c1.17-4.6,3.02-10.11,6-15.99
		c1.76-3.48,3.62-6.52,5.43-9.14c2.19-3.62,4.38-7.23,6.57-10.85c2.35,0.08,5.4-0.24,7.42-2.28c4.05-4.09,1.43-12.54,0.29-16.85
		c-2.33-8.76-4.2-21.53-2.28-39.4c-1.17-5.83-3.05-14.86-5.71-25.98c-2.16-9.06-3.02-11.91-3.71-16.56c-1-6.78-1.55-16.8,1.14-29.7
		c-2.7,12.89-2.14,22.92-1.14,29.7c0.69,4.65,1.55,7.5,3.71,16.56c2.66,11.12,4.55,20.16,5.71,25.98
		c-1.91,17.87-0.05,30.65,2.28,39.4c1.07,4.02,3.78,12.49-0.29,16.85c-1.99,2.13-4.88,2.5-7.11,2.79c-5.5,0.7-11.94-1.09-16.58-5.64
		c-7.49-7.36-5.87-17.61-5.71-18.56c-1.17-2.96-2.93-7.71-4.57-13.71c-2.98-10.86-2.53-14.63-5.14-25.13
		c-2.59-10.42-3.88-15.62-7.49-20.98c-5.99-8.88-10.71-7.59-19.96-16.79c-5.5-5.46-6.14-8.21-16.55-25.81
		c-3.56-6.02-8.93-14.91-15.89-25.67c-3.18-4.22-6.81-10.15-9.21-17.82c-6.39-20.39,0.54-38.3,3.16-44.26
		c2.11-7.37,5.86-18.69,12.5-31.66c5.14-10.05,7.32-11.89,14.91-25.16c1.98-3.47,3.35-5.94,5.99-10.93
		c3.43-6.47,7.8-15.11,12.57-25.61C634.16,133.43,661.18,148.75,688.22,164.07z"/>
	<path class="st37" d="M165.25,155.31c4.84,3.89,12.04,9.56,21,16.18c14.16,10.46,17.32,11.94,19.7,12.85
		c3.36,1.28,16.86,6.21,31.69,1.71c7.97-2.42,9.49-5.49,19.7-11.99c12.74-8.12,18.93-8.79,36.83-16.28
		c9.71-4.06,23.36-10.34,39.4-19.7c3,0,7.58,0.15,13.13,0.86c5.38,0.69,8.04,1.45,14.56,2.57c0,0,6.63,1.14,14.56,2
		c16.52,1.8,20.82-0.34,35.69,1.14c3.83,0.38,9.8,1.15,17.13,2.86c4.62,2.51,10.45,5.96,16.85,10.56
		c9.66,6.95,11.77,10.15,20.27,15.42c7.25,4.49,9.17,4.32,17.99,8.85c6.07,3.12,14.6,8.06,24.27,15.7
		c-1.68,2.44-4.76,6.12-9.71,8.28c-7.14,3.11-13.98,1.25-21.7-0.86c-4.77-1.3-11.76-3.79-19.42-8.85
		c-6.05-1.36-13.18-3.47-20.84-6.85c-4.97-2.19-9.35-4.55-13.13-6.85c0.51-1.82,1.06-4.6,0.86-7.99c-0.22-3.64-1.22-6.5-2-8.28
		c-9.1,0.48-16.26,1.76-21.13,2.86c-0.13,0.03-1.25,0.3-2.8,0.67c-3.78,0.89-6.65,1.56-6.9,1.61c-5.35,1.23-13.71,0.48-19.99,0.86
		c-4.8,0.29-9.1,1.24-17.7,3.14c-12.98,2.87-14.6,4.35-23.41,5.71c-5.37,0.82-9.29,0.93-17.13,1.14c-7.22,0.19-17.05,0.2-28.84-0.57
		c11.79,0.77,21.62,0.76,28.84,0.57c7.84-0.21,11.87-0.33,17.13-1.14c8.82-1.36,10.43-2.84,23.41-5.71c8.6-1.9,12.9-2.85,17.7-3.14
		c7.95-0.48,11.47,0.57,19.99-0.86c4.07-0.68,4.67-1.16,9.71-2.28c4.87-1.09,12.03-2.37,21.13-2.86c0.79,1.8,1.78,4.66,2,8.28
		c0.08,1.31,0.25,4.62-0.86,7.99c-2.18,6.64-8.18,10.04-13.13,12.85c-2.76,1.56-7.07,3.62-12.85,4.85
		c-3.44,2.07-8.66,4.77-15.42,6.57c-5.94,1.59-6,0.59-16.28,2.28c-13.82,2.27-21.41,5.34-24.84,6.85c-2.12,0.93-3.82,1.79-4.95,2.38
		c-7,10.36-14.35,17.74-19.99,22.65c-2.46,2.14-17.07,14.89-30.86,19.54c-1.21,0.41-4.2,1.36-7.93,3.37
		c-6.08,3.28-9.6,6.94-11.28,8.48c-10.15,9.3-27.28,9.2-33.49,9.17c-10.8-0.06-18.99-2.97-25.13-5.34
		c-27.49-10.63-54.08-26.06-69.29-35.41C146.96,212.55,156.1,183.93,165.25,155.31z"/>
	<path class="st36" d="M233.94,706.58c10.59-16.43,16.6-28.99,20.18-37.69c0,0,9.1-21.92,15.61-33.88c0.6-1.1,2.05-3.75,3.62-7.52
		c1.91-4.6,4.55-11,4.99-18.84c0.46-8.38-0.76-15.19-1.85-19.01c-2.68-9.39-5.97-10.92-12.76-25.08c-4.55-9.49-2.83-7.82-6.46-15.41
		c-2.93-6.12-8.2-13.11-18.72-27.08c-1.54-2.05-3.18-4.19-5.92-6.49c-4.21-3.54-6.77-3.87-9.91-6.27
		c-2.56-1.96-5.68-5.44-7.67-12.06c-2.04-2.51-4.82-6.46-6.81-11.81c-2.43-6.52-1.44-9.03-3.23-21.37
		c-0.82-5.66-1.78-12.03-4.38-19.99c-1.32-4.05-2.47-6.64-4.76-11.8c-4.27-9.63-6.16-11.69-8.19-13.13c-3.15-2.25-6.31-2.8-7.8-3.05
		c-7.05-1.16-12.61,1.76-14.47,2.86c0.77,3.76,1.77,9.48,2.28,16.56c0.45,6.19,0.09,7.4,0.57,15.04c0.51,8.21,1.41,14.49,1.91,17.9
		c0.68,4.67,1.29,7.87,2.48,14.08c5.36,27.99,5.4,28.18,5.52,29.5c0.62,6.84-0.02,6.59,0.76,24.94c0.21,4.82,0.42,8.78,0.57,11.42
		c-0.15-2.64-0.37-6.6-0.57-11.42c-0.79-18.34-0.15-18.09-0.76-24.94c-0.12-1.33-0.16-1.51-5.52-29.5
		c-1.19-6.21-1.8-9.41-2.48-14.08c-0.49-3.41-1.39-9.68-1.91-17.9c-0.48-7.64-0.12-8.84-0.57-15.04c-0.51-7.08-1.51-12.8-2.28-16.56
		c1.29-0.76,2.98-1.59,5.04-2.19c3.91-1.15,7.33-0.96,9.43-0.66c1.81-4.53,3.28-8.42,4.38-11.42c3.59-9.76,5.85-17.02,6.47-19.04
		c0.73-2.38,1.32-4.35,1.71-5.71c2.15-2.7,4.96-6.71,7.42-11.99c2.57-5.52,5.71-12.25,5.14-20.94c-0.61-9.29-5.14-16.07-7.8-19.42
		c-2.35,0.7-4.69,1.39-7.04,2.09c-1.92,3.34-6.76,11.76-7.99,13.9c-4.69,8.16-7.04,12.21-9.9,18.37c-1.55,3.33-1.26,3-2.28,5.14
		c-5.55,11.61-11.18,15.47-18.42,26.58c-1.65,2.54-4,6.38-6.42,11.39c-1.31,10.49-2.28,19.27-2.95,25.7
		c-1.62,15.48-2.42,23.22-2.48,27.98c-0.14,13.47,1.49,15.65-0.57,23.41c-1.83,6.9-4.05,8.72-4.28,15.42
		c-0.04,1.25-0.19,7.62,2.86,15.13c1.76,4.36,3.86,7.28,4.57,8.28c1.47,2.09,1.71,2.65,19.99,37.41
		c5.08,9.67,13.63,25.9,19.99,37.98c1.09,4.94,2.19,12.8,0.86,22.27c-0.48,3.39-1.64,9.66-4.85,16.85
		c-5.27,11.8-13.09,19.46-18.27,23.7C184.64,674.98,209.29,690.78,233.94,706.58z"/>
	<path class="st38" d="M728.09,616.35c-19.23-9.2-33.69-17.02-40.73-21.32c-6.39-3.89-9.75-6.23-9.75-6.23
		c-6.59-4.54-8.46-6.65-18.04-11.66c-14.8-7.75-27.05-11.46-33.45-13.18c-10.27-2.75-17.09-4.58-26.5-4.51
		c-14.86,0.12-25.89,4.91-35.24,9.07c-4.17,1.86-15.05,6.97-35.32,22.79c-10.22,7.97-23.56,19.24-38.14,34.18
		c-2.46,0.99-6.48,2.47-11.61,3.62c-5.97,1.34-7.84,0.99-16.56,2.48c-4.04,0.69-8.1,1.39-13.33,2.86
		c-5.85,1.64-10.16,3.39-13.51,4.76c-7.02,2.87-10.53,4.31-13.13,6.09c-2.58,1.76-10.25,7.92-11.8,25.89
		c7.51-0.54,13.67-0.9,17.9-1.14c12.83-0.72,17.71-0.77,27.03-1.71c6.68-0.67,10.02-1.01,14.47-1.91c9.59-1.92,12.4-3.87,20.18-5.71
		c6.17-1.46,11.09-1.67,20.94-2.09c8.22-0.35,19.43-0.45,32.93,0.57c-13.5-1.03-24.72-0.92-32.93-0.57
		c-9.84,0.42-14.77,0.63-20.94,2.09c-7.78,1.84-10.59,3.79-20.18,5.71c-4.45,0.89-7.79,1.23-14.47,1.91
		c-9.32,0.94-14.2,1-27.03,1.71c-4.23,0.24-10.38,0.6-17.9,1.14c1.02-4.66,2.03-9.32,3.05-13.97c-2.22-0.4-5.55-1.17-9.33-2.78
		c-4.99-2.13-7.4-4.29-10.47-6.09c-3.54-2.08-9.08-4.34-17.51-4.57c-5.08-3.93-9.72-6.04-12.94-7.23c-3.2-1.18-5.96-1.79-9.9-2.66
		c-5.75-1.27-8.62-1.91-11.04-1.91c-2.29,0.01-9.53,0.59-17.9,11.04c3.47,2.96,9.01,7.36,16.37,11.8
		c10.71,6.46,17.13,8.1,25.13,12.18c7.13,3.64,17.05,9.99,27.41,21.7c10.57,3.61,19.32,5.26,25.13,6.09
		c16.51,2.37,20.49-0.19,43.78,2.28c13.52,1.43,21.32,2.66,21.32,2.66c10.09,1.59,11.72,2.33,15.61,2.28
		c10.72-0.13,18.49-5.96,24.36-10.09c20.97-14.73,38.34-22.06,63.2-32.55c8.94-3.77,15.82-6.18,24.75-5.71
		c11.15,0.59,19.76,5.35,24.75,8.76C667.18,647.06,697.64,631.7,728.09,616.35z"/>
	<path class="st39" d="M424.17,166.12c3.91,1.44,6.68,3.67,12.05,8.06c5.68,4.64,13.44,11.86,21.34,22.41
		c-5.07-1.08-11.01-2.71-17.45-5.26c-6.68-2.64-12.32-5.63-16.86-8.42c0.5-1.74,0.93-4.01,0.91-6.67c0-0.96-0.07-2.95-0.66-5.4
		c-0.4-1.7-0.93-3.12-1.4-4.21c-3.09,0.13-7.85,0.46-13.62,1.42c-6.67,1.11-9.5,2.2-14.52,3.19c-8.73,1.72-9.25,0.22-20.78,1.29
		c-9.46,0.88-16.87,2.63-26.97,5c-7.19,1.69-12.16,3.12-13.76,3.56c-9.67,2.64-26.09,4.51-55.37,0.22c15.74-0.7,27.97-3.28,36.2-5.5
		c13.36-3.6,18.95-6.97,32.24-8.7c2.54-0.33,4.84-0.53,7.03-0.64c8.59-0.43,14.54,0.18,19.27,0.54c9.39,0.7,16.66,0.32,22.23,0.02
		C411.79,166.09,415.75,163.03,424.17,166.12z"/>
	<path class="st39" d="M416.04,674.63c-5.35-2.11-9.24-5.07-16.82-10.91c-5.78-4.45-13.71-11.02-22.52-19.96
		c8.29,0.24,13.86,2.46,17.51,4.57c3.73,2.16,7.55,5.41,14.62,7.62c2.13,0.66,3.94,1.04,5.18,1.26c-0.84,1.76-1.75,4.11-2.36,6.98
		c-0.58,2.71-0.71,5.11-0.69,6.99c4.09-0.29,10.78-0.73,19.07-1.21c20.09-1.15,25.26-1.05,34.33-2.57
		c11.04-1.85,9.1-2.96,21.89-5.54c3.99-0.81,18.95-3.69,38.84-3.48c6.48,0.07,14.91,0.48,24.72,1.82
		c-4.4,0.45-11.61,1.32-20.46,3.09c-6.08,1.22-8.26,1.92-25.8,6.32c-16.24,4.07-18.95,4.61-21.9,5.12
		c-7.11,1.22-12.78,1.76-19.04,2.35c-9.42,0.89-14.13,1.34-19.89,1.3C433.13,678.3,425.08,678.2,416.04,674.63z"/>
	<path class="st40" d="M165.41,418.95c1.37-0.81,3.25-1.73,5.61-2.35c3.69-0.98,6.88-0.79,8.86-0.51
		c2.67-6.63,5.28-13.64,7.78-21.04c1.75-5.16,3.33-10.21,4.78-15.12c-4.69,5.32-11.54,13.38-19.34,23.75
		c-7.33,9.73-8.38,12.04-9.06,13.82c-3.75,9.84-0.12,14.29,0.87,34.75c0.51,10.61,0.07,20.72-0.21,27.43
		c-0.59,14.73-1.53,17.93,0.41,24.77c1.25,4.42,2.55,6.26,5.73,16.37c0.8,2.54,1.4,4.58,3.28,11.26c1.45,5.16,3.41,12.19,5.73,20.67
		c-0.35-5.72-0.83-14.32-1.25-24.84c-0.46-11.53-0.34-12.85-0.59-17.09c-1.03-17.06-4.31-18.74-7.07-37.49
		c-2.07-14.06-0.56-15.36-3.24-37.8C166.86,428.47,166,422.72,165.41,418.95z"/>
	<path class="st40" d="M667.85,420.39c-1.18,2.44-3.46,3.87-3.67,4.01c-2.29,1.47-4.53,1.67-5.52,1.69
		c-4.11,5.24-8.76,12.21-12.69,20.98c-2.29,5.11-3.94,9.93-5.14,14.24c5.94-4.69,14.08-11.85,22.3-21.96
		c4.97-6.1,7.48-9.25,9.24-13.7c3.89-9.79,0.31-14.29-0.41-34.75c-0.14-3.96,0.09-11.78,0.57-27.42c0.25-8.27,0.53-15.28,0.77-20.55
		c-3.91-9.96-7.7-20.88-11.1-32.73c-2.02-7.04-3.74-13.86-5.22-20.42c-1.41,5.18-2.96,12.75-2.97,21.93c0,6.15,0.68,11.2,2.92,22.48
		c1.68,8.5,4.05,19.58,7.32,32.62c-0.29,2.62-0.59,6.05-0.72,10.07c-0.11,3.55-0.27,8.73,0.44,14.98
		c0.82,7.22,2.67,14.68,3.03,16.08C668.34,413.34,669.57,416.82,667.85,420.39z"/>
	<path class="st41" d="M397.53,174.64c0.08,0.5,0.54,3.24,2.3,4.91c1.49,1.42,3.74,1.91,8.44,1.38c3.67-0.42,9.26-1.5,15.88-4.68
		c-0.01-0.84-0.06-1.74-0.17-2.69c-0.33-2.79-1.1-5.12-1.88-6.92c-3.45,0.15-6.37,0.44-8.64,0.71c-2.23,0.27-3.95,0.55-4.68,0.66
		c-3.69,0.61-6.46,1.27-7.53,1.53c-1.46,0.36-2.68,0.69-3.58,0.95C397.47,171.39,397.24,172.87,397.53,174.64z"/>
	<path class="st41" d="M485.22,184.58c0.41,2.12,2.18,3.4,3.08,4.03c5.95,4.18,8.19,5.32,8.19,5.32c2.47,1.25,5.99,3.17,10.22,5.9
		c0.44-0.59,0.89-1.19,1.33-1.78c-2.74-2.17-5.2-3.96-7.22-5.38c-4.57-3.2-8.29-5.43-10.02-6.45c-2.24-1.32-4.18-2.37-5.64-3.15
		C485.13,183.43,485.11,183.97,485.22,184.58z"/>
	<path class="st41" d="M508.56,216.66c0.52,0.87,1.21,2.01,1.34,3.49c0.23,2.51-1.26,4.41-1.61,4.84c-0.37,0.44-0.73,0.76-1,0.97
		c-0.53,0.12-1.06,0.24-1.59,0.37c0.51,0.13,1.98,0.42,3.59-0.26c0.76-0.32,1.59-0.88,1.99-1.46c1.23-1.73,0.07-5.52-3.34-8.86
		C508.1,215.97,508.32,216.27,508.56,216.66z"/>
	<path class="st41" d="M438.86,664.87c-0.28-0.81-1.1-3.17-3.1-5.14c-1.52-1.5-3.4-2.46-6.83-3.3c-3.06-0.75-8.15-1.6-14.89-0.92
		c-0.95,1.61-2.18,4.14-2.84,7.45c-0.69,3.43-0.5,6.33-0.23,8.22c4.68-0.21,8.51-0.38,11.35-0.51c1.54-0.07,2.9-0.14,4.71-0.23
		c2.35-0.13,4.82-0.26,7.95-0.49c1.82-0.14,3.38-0.27,4.61-0.38C439.61,668.45,439.5,666.78,438.86,664.87z"/>
	<path class="st41" d="M328.49,639.04c1.71,0.82,14.25,7.04,13.63,14.47c-0.04,0.51-0.15,1.03-0.33,1.58
		c-2.65-1.54-5.49-3.33-8.42-5.42c-3.17-2.26-5.98-4.52-8.43-6.68C326.11,641.68,327.3,640.36,328.49,639.04z"/>
	<path class="st41" d="M318.7,617.31c1.46,1.35,2.61,2.54,3.43,3.43c3.08,3.32,3.77,4.81,4.07,5.5c0.51,1.19,0.73,2.25,0.84,2.94
		c-3.18-3.33-6.36-6.66-9.54-9.98C317.9,618.57,318.3,617.94,318.7,617.31z"/>
	<path class="st41" d="M179.85,416.42c1.23,4.7,1.66,8.72,1.8,11.65c0.25,5.23-0.36,8-0.73,9.39c-0.51,1.91-0.91,3.42-1.99,4.91
		c-2.92,4.03-8.31,4.54-10.05,4.64c-0.46-6.14-1.13-12.55-2.08-19.22c-0.43-3.01-0.89-5.95-1.39-8.82c1.32-0.8,3.2-1.75,5.61-2.35
		C174.79,415.67,178.01,416.05,179.85,416.42z"/>
	<path class="st41" d="M195.21,331.07c-2.4,4.2-2.48,4.38-2.92,5.06c-0.75,1.17-2.31,3.55-4.91,5.83c-1.36,1.19-3.54,2.83-6.67,4.13
		c3.35-6.29,6.69-12.58,10.04-18.87c2.15,0.12,4.3,0.24,6.45,0.36C196.74,328.39,196.05,329.59,195.21,331.07z"/>
	<path class="st41" d="M217.04,323.55c-1.16,0.27-1.96,0.68-2.72,1.08c-1.15,0.6-2.82,1.63-4.56,3.38c-0.65,0.51-1.3,1.03-1.95,1.54
		c1.49-1.24,5-3.94,9.01-4.77c2.81-0.59,3.98,0.13,4.3,0.35c0.6,0.41,1.06,1.02,1.47,1.57c0.73,0.96,1.17,1.85,1.43,2.48
		c0.09-2.42-0.82-4.62-2.52-5.51C219.98,322.87,218.17,323.29,217.04,323.55z"/>
	<path class="st41" d="M654.89,403.91c-1.44,3.41-1.37,6.42-1.31,9.13c0.07,3.12,0.62,5.72,1.25,8.7c0.37,1.78,0.75,3.25,1.03,4.3
		c0.85,0.15,4.61,0.73,8.31-1.65c3.46-2.22,4.57-5.56,4.84-6.44c-1.36-6.35-2.71-12.69-4.07-19.04c-0.79-0.43-2.93-1.46-5.22-0.77
		C656.97,398.98,655.8,401.77,654.89,403.91z"/>
	<path class="st41" d="M651.5,497.46c-1.43,2.05-2.71,3.81-3.75,5.19c-0.09,0.12-2.06,2.72-5.01,5.57c-0.88,0.84-1.73,1.6-2.97,1.74
		c-0.16,0.02-1.75,0.18-2.86-0.72c-0.15-0.12-0.32-0.28-0.66-0.61c0,0-0.66-0.64-1.23-1.26c-1.07-1.19-1.99-2.57-2.24-2.94
		c0.73,3.32,1.97,5.64,2.9,7.07c0.9,1.39,1.53,1.97,2.35,2.15c1.84,0.4,3.54-1.47,3.79-1.74c2.24-2.99,4.5-6.21,6.73-9.67
		C649.58,500.62,650.57,499.03,651.5,497.46z"/>
	<path class="st41" d="M626.92,506.04c-1.86,1.76-3.32,3.19-4.26,4.14c0,0-1.76,1.76-5.03,4.41c-1.07,0.87-1.47,1.15-2.07,1.19
		c-2.13,0.14-3.93-2.9-4.42-3.73c-0.82-1.39-1.17-2.67-1.33-3.46c-0.08,0.91-0.09,2.3,0.34,3.89c0.44,1.61,1.17,4.28,3.26,4.89
		c2.32,0.67,4.61-1.7,4.74-1.84C621.07,512.36,623.99,509.2,626.92,506.04z"/>
	
		<linearGradient id="SVGID_3_" gradientUnits="userSpaceOnUse" x1="3320.7317" y1="-2607.6116" x2="3230.8904" y2="-2609.1094" gradientTransform="matrix(-0.1326 0.9912 0.9912 0.1326 3466.0674 -2872.7971)">
		<stop  offset="0" style="stop-color:#4D2F22"/>
		<stop  offset="0.0984" style="stop-color:#523529"/>
		<stop  offset="0.238" style="stop-color:#61473B"/>
		<stop  offset="0.4021" style="stop-color:#7A635A"/>
		<stop  offset="0.5848" style="stop-color:#9C8B84"/>
		<stop  offset="0.783" style="stop-color:#C8BFBB"/>
		<stop  offset="0.9913" style="stop-color:#FDFCFC"/>
		<stop  offset="1" style="stop-color:#FFFFFF"/>
	</linearGradient>
	<path class="st42" d="M489.49,83.53c7.1-25.1,14.19-50.21,21.28-75.31c-19.51-3.92-42.5-7.14-68.34-8.13
		c-20.26-0.77-38.77-0.05-55.15,1.44c2.09,27.33,4.18,54.67,6.26,82C425.53,83.53,457.51,83.53,489.49,83.53z"/>
	
		<linearGradient id="SVGID_4_" gradientUnits="userSpaceOnUse" x1="5140.1377" y1="-1266.6882" x2="5041.7822" y2="-1268.3279" gradientTransform="matrix(0.1435 -0.9897 -0.9897 -0.1435 -1599.9095 5673.6382)">
		<stop  offset="0" style="stop-color:#4D2F22"/>
		<stop  offset="0.0984" style="stop-color:#523529"/>
		<stop  offset="0.238" style="stop-color:#61473B"/>
		<stop  offset="0.4021" style="stop-color:#7A635A"/>
		<stop  offset="0.5848" style="stop-color:#9C8B84"/>
		<stop  offset="0.783" style="stop-color:#C8BFBB"/>
		<stop  offset="0.9913" style="stop-color:#FDFCFC"/>
		<stop  offset="1" style="stop-color:#FFFFFF"/>
	</linearGradient>
	<path class="st43" d="M344.54,755.95c-8.7,26.98-17.4,53.95-26.11,80.93c17.69,4.6,38.5,8.8,61.97,11.31
		c24.13,2.58,45.9,2.84,64.55,2.01c-2-31.2-4.01-62.4-6.02-93.6C407.48,756.38,376.01,756.16,344.54,755.95z"/>
	
		<linearGradient id="SVGID_5_" gradientUnits="userSpaceOnUse" x1="68.0088" y1="152.2059" x2="-12.9009" y2="150.8571" gradientTransform="matrix(0.9969 0.0791 0.0791 -0.9969 -11.1954 536.1959)">
		<stop  offset="0" style="stop-color:#E0BEA2"/>
		<stop  offset="1" style="stop-color:#FFFFFF"/>
	</linearGradient>
	<path class="st44" d="M78.97,346.24c-22.18-6.96-44.36-13.92-66.53-20.88c-3.41,14.21-6.43,30-8.56,47.2
		c-3.42,27.65-3.77,52.64-2.7,74.02c26.21-1.47,52.42-2.93,78.63-4.4C79.53,410.2,79.25,378.22,78.97,346.24z"/>
	
		<linearGradient id="SVGID_6_" gradientUnits="userSpaceOnUse" x1="3813.3489" y1="-2338.7881" x2="3738.564" y2="-2362.9312" gradientTransform="matrix(-0.7053 0.709 0.709 0.7053 5007.5044 -911.618)">
		<stop  offset="0" style="stop-color:#A37252"/>
		<stop  offset="0.1274" style="stop-color:#A67657"/>
		<stop  offset="0.2826" style="stop-color:#AE8266"/>
		<stop  offset="0.4523" style="stop-color:#BB967F"/>
		<stop  offset="0.6323" style="stop-color:#CDB3A1"/>
		<stop  offset="0.8184" style="stop-color:#E4D6CD"/>
		<stop  offset="1" style="stop-color:#FFFFFF"/>
	</linearGradient>
	<path class="st45" d="M688.22,164.07c14.99-11.08,29.98-22.16,44.97-33.25c-11.31-11.81-24.73-24.44-40.44-37.1
		c-19.9-16.02-39.11-28.55-56.2-38.31c-9.81,20.9-19.61,41.79-29.42,62.69C634.16,133.43,661.18,148.75,688.22,164.07z"/>
	
		<linearGradient id="SVGID_7_" gradientUnits="userSpaceOnUse" x1="4293.0986" y1="1667.7228" x2="4181.3184" y2="1665.8594" gradientTransform="matrix(-0.3905 -0.9206 -0.9206 0.3905 3920.5356 3947.7795)">
		<stop  offset="0" style="stop-color:#C1976F"/>
		<stop  offset="0.1294" style="stop-color:#C59E78"/>
		<stop  offset="0.3416" style="stop-color:#D0AF91"/>
		<stop  offset="0.6102" style="stop-color:#E1CCB9"/>
		<stop  offset="0.9218" style="stop-color:#F9F4F0"/>
		<stop  offset="1" style="stop-color:#FFFFFF"/>
	</linearGradient>
	<path class="st46" d="M636.73,662.42c20.71,29.75,41.42,59.49,62.13,89.24c18.01-15.08,38.25-34.52,58.12-59.08
		c12.48-15.43,22.84-30.44,31.43-44.34c-20.1-10.63-40.2-21.25-60.3-31.88C697.64,631.7,667.18,647.06,636.73,662.42z"/>
	
		<linearGradient id="SVGID_8_" gradientUnits="userSpaceOnUse" x1="1420.5642" y1="512.9523" x2="1332.5387" y2="511.485" gradientTransform="matrix(0.6752 -0.7377 -0.7377 -0.6752 -392.762 2081.1748)">
		<stop  offset="0" style="stop-color:#A37252"/>
		<stop  offset="0.1274" style="stop-color:#A67657"/>
		<stop  offset="0.2826" style="stop-color:#AE8266"/>
		<stop  offset="0.4523" style="stop-color:#BB967F"/>
		<stop  offset="0.6323" style="stop-color:#CDB3A1"/>
		<stop  offset="0.8184" style="stop-color:#E4D6CD"/>
		<stop  offset="1" style="stop-color:#FFFFFF"/>
	</linearGradient>
	<path class="st47" d="M159.99,659.18c-20.45,12.39-40.9,24.78-61.35,37.17c8.82,11.31,19.39,23.46,31.97,35.76
		c20.26,19.8,40.35,34.72,57.79,45.83c15.18-23.78,30.37-47.57,45.55-71.36C209.29,690.78,184.64,674.98,159.99,659.18z"/>
</g>
<g id="Слой_2_1_">
	<path class="st48" d="M328.48,427.25c15.77,2.78,31.53,5.56,47.29,8.34c7.61,10.39,15.22,20.78,22.83,31.17
		c51.82-97.85,103.64-195.69,155.47-293.54c31.38-4.78,62.76-9.56,94.13-14.34c-82.69,116.35-165.38,232.71-248.07,349.06
		C376.24,481.04,352.36,454.14,328.48,427.25z"/>
</g>
</svg>
