<?xml version="1.0" encoding="utf-8"?>
<!-- Generator: Adobe Illustrator 24.1.2, SVG Export Plug-In . SVG Version: 6.00 Build 0)  -->
<svg version="1.1" xmlns="http://www.w3.org/2000/svg" xmlns:xlink="http://www.w3.org/1999/xlink" x="0px" y="0px"
	 viewBox="0 0 566.93 425.2" style="enable-background:new 0 0 566.93 425.2;" xml:space="preserve">
<style type="text/css">
	.st0{display:none;}
	.st1{display:inline;}
	.st2{fill:#3D4F32;}
	.st3{fill:#718760;}
	.st4{fill:#637C53;}
	.st5{fill:#9CAF90;}
	.st6{display:inline;fill:#D10505;}
	.st7{display:inline;opacity:0.76;fill:#EA4444;enable-background:new    ;}
	.st8{fill:none;stroke:#000000;stroke-miterlimit:10;}
	.st9{fill:#485B36;}
	.st10{fill:#49876F;}
	.st11{fill:#65AAAA;}
	.st12{fill:#5F8AA0;}
	.st13{fill:#646D91;}
	.st14{fill:#826782;}
	.st15{opacity:0.5;fill:#202121;enable-background:new    ;}
	.st16{fill:#A02C15;}
	.st17{opacity:0.76;fill:#C65242;enable-background:new    ;}
	.st18{fill:#128920;}
	.st19{fill:#1D6D26;}
	.st20{fill:none;stroke:#182D1B;stroke-width:6;stroke-miterlimit:10;}
	.st21{fill:#6F991D;}
	.st22{opacity:0.72;fill:#6F991D;}
	.st23{fill:#C6B809;}
	.st24{fill:#C68D00;}
	.st25{fill:#B5601A;}
	.st26{opacity:0.76;fill:#CCBD50;enable-background:new    ;}
	.st27{opacity:0.76;fill:#D8AA4E;enable-background:new    ;}
	.st28{opacity:0.76;fill:#C17540;enable-background:new    ;}
	.st29{fill:#727271;}
	.st30{fill:#606060;}
	.st31{fill:#4F4F4F;}
	.st32{fill:#2D2D2D;}
	.st33{fill:#A3856A;}
	.st34{fill:#826B54;}
</style>
<g id="Слой_2" class="st0">
	<g id="Слой_8" class="st1">
		<g id="Слой_5_1_">
			<path class="st2" d="M324.36,400.59c-8.46-4.83-19.99-13.37-23.07-25.86c-4.49-18.19,13.33-28.95,42.94-70.9
				c21.66-30.57,33.58-50.73,37.43-72.02c2.82-15.71,1.67-28.21,9.36-52.96c6.41-20.42,12.82-29.57,16.15-34.03
				c6.28-8.29,15.89-21.4,34.35-28.58c16.15-6.31,38.07-7.68,42.04-1.24c2.95,4.83-7.05,9.89-12.43,24.01
				c-5.64,14.85,1.41,20.05,0.77,39.22c-0.9,23.88-12.18,26.24-14.48,50.86c-1.92,20.66,5.77,22.65,5,38.73
				c-1.15,26.11-22.17,44.79-60.88,77.58C383.19,360.74,357.68,380.41,324.36,400.59z"/>
			<path class="st2" d="M267.33,414.69c8.33-5.93,19.74-15.84,22.3-29.32c3.85-19.55-14.48-29.32-45.88-71.03
				c-22.94-30.44-35.63-50.61-40.24-72.76c-3.46-16.33-2.69-29.7-11.41-55.06c-7.18-21.03-13.97-30.2-17.56-34.53
				c-6.66-8.16-16.79-21.29-35.63-27.22c-16.53-5.19-38.58-4.7-42.3,2.35c-2.82,5.45,7.43,9.89,13.46,24.25
				c6.28,15.21-0.64,21.29,0.77,41.45c1.79,25.12,13.2,26.72,16.41,52.46c2.69,21.66-4.87,24.38-3.59,41.33
				c2.18,27.47,23.97,45.28,64.21,76.46C206.57,377.94,232.98,396.37,267.33,414.69z"/>
			<path class="st3" d="M123.65,151.25c5.13,3.59,12.05,9.15,18.58,16.83c13.33,15.84,17.43,31.06,19.35,48.01
				c1.92,17.33,4.36,41.08,9.48,61.75c5.51,22.15,13.2,37.37,17.94,46.52c6.15,11.88,12.69,20.29,20.64,30.44
				c9.48,12.12,22.69,28.45,39.6,47.51c-1.03-1.61-2.18-3.09-3.2-4.7c-8.2-10.64-20.89-26.98-37.04-47.64
				c-6.79-8.66-7.56-9.52-9.23-12c-17.43-27.09-24.22-53.83-26.02-61.75c-2.18-9.04-4.49-21.4-5.51-36.37
				c-1.41-13.61-0.9-17.2-2.95-27.35c-3.72-18.56-9.48-29.32-10.77-31.8c-7.56-13.74-15.25-19.92-17.43-21.53
				C131.98,155.45,127.11,152.87,123.65,151.25z"/>
		</g>
		<g id="Слой_6_1_">
			<path class="st3" d="M454.3,128.74c-4.87,4.1-11.41,10.25-17.3,18.58c-12.18,16.92-15.38,32.3-16.28,49.09
				c-0.9,17.17-1.92,40.63-5.77,61.26c-4.1,22.3-10.77,37.94-14.87,47.29c-5.25,12.3-11.28,21.15-18.58,32.04
				c-8.72,12.94-20.76,30.25-36.27,50.75c1.03-1.67,1.92-3.33,2.95-5c7.56-11.28,19.1-28.71,33.84-50.63
				c6.15-9.1,6.92-10.13,8.33-12.69c15.64-28.45,20.76-55.24,22.17-63.06c1.54-9.1,3.08-21.4,3.2-36.14
				c0.51-13.46-0.13-16.92,1.28-27.04c2.56-18.46,7.56-29.61,8.72-32.17c6.66-14.23,13.84-21.02,16.02-22.94
				C446.48,133.74,450.96,130.67,454.3,128.74z"/>
		</g>
		<g id="Слой_3_1_">
			<path class="st4" d="M312.8,416.61c12.82,2.95,22.94,1.54,28.58,0.26c9.74-2.18,16.79-6.28,24.99-11.02
				c8.46-4.87,11.41-7.82,18.97-13.07c14.87-10.25,23.33-12.82,31.4-17.56c29.61-17.3,20.25-44.09,53.45-71.52
				c10.89-9.1,21.53-14.1,32.68-19.48c33.96-16.15,52.29-13.59,52.93-19.48c1.41-12.56-78.31-42.42-101.38-17.56
				c-6.92,7.43-6.41,17.3-18.97,26.79c-11.02,8.33-16.41,4.61-26.27,12.94c-8.72,7.31-6.15,11.54-18.46,30.12
				c-8.33,12.56-10,11.41-18.71,24.74c-7.82,11.92-6.66,13.2-14.48,25.38c-2.69,4.23-9.36,14.23-19.61,25.63
				C331.64,399.82,323.44,408.15,312.8,416.61z"/>
			<path class="st4" d="M268.07,410.97c-10.25,4.74-18.97,5-24.1,4.61c-8.72-0.64-15.64-3.59-23.58-6.92
				c-8.2-3.46-11.41-5.9-18.97-9.87c-14.87-7.82-22.56-8.97-30.38-12.3c-28.84-12.3-26.92-39.73-60.88-61.52
				c-11.28-7.18-21.28-10.51-31.91-13.97c-32.17-10.64-47.17-5.38-49.09-11.02c-3.97-11.92,56.91-53.06,81.77-32.43
				c7.56,6.15,9.23,15.89,21.92,23.2c11.15,6.41,14.87,2.05,25.12,8.59c8.97,5.77,7.82,10.25,22.3,26.53
				c9.87,11.02,10.89,9.61,21.28,21.28c9.23,10.38,8.59,11.79,17.82,22.56c3.2,3.72,11.02,12.43,22.3,22.04
				C248.46,397.51,257.3,404.43,268.07,410.97z"/>
		</g>
		<g id="Слой_4_1_">
			<path class="st5" d="M77.61,290.11c3.97,0.13,9.61,0.51,16.02,2.44c13.2,3.97,22.17,11.02,30.89,19.99
				c3.97,4.1,19.87,20.25,32.81,31.53c13.33,11.54,24.74,18.84,42.42,30.25c13.33,8.59,24.86,15.12,33.71,19.99
				c-2.95-2.44-6.02-4.74-8.97-7.18c-11.28-6.28-20.51-12.05-27.17-16.41c-16.53-10.64-27.17-17.43-39.6-28.58
				c-10.13-9.1-19.35-18.58-19.35-18.58c-6.92-7.18-8.46-9.48-13.97-14.48c-10.25-9.23-17.82-13.07-19.48-13.97
				c-9.74-4.87-15.89-5.51-17.69-5.64C83.25,289.34,79.92,289.72,77.61,290.11z"/>
			<path class="st5" d="M479.42,267.04c-3.85,0.9-9.36,2.44-15.38,5.64c-12.43,6.54-19.74,15.25-26.66,25.63
				c-3.08,4.74-15.64,23.84-26.27,37.42c-10.89,13.97-20.76,23.33-36.02,38.07c-11.54,11.02-21.66,19.87-29.35,26.27
				c2.44-2.95,5-5.9,7.43-8.72c9.87-8.46,17.94-15.89,23.71-21.4c14.35-13.71,23.45-22.43,33.58-35.89
				c8.2-10.89,15.38-22.04,15.38-22.04c5.38-8.46,6.41-10.89,11.02-16.92c8.33-11.02,15-16.41,16.53-17.56
				c8.59-6.66,14.74-8.46,16.53-8.97C473.65,267.42,476.98,267.17,479.42,267.04z"/>
		</g>
	</g>
</g>
<g id="Слой_3_2_" class="st0">
	<path class="st6" d="M445.66,417.8H372.6V121.23c0-5.23,4.24-9.47,9.47-9.47h55.38c4.54,0,8.2,3.68,8.2,8.2L445.66,417.8
		L445.66,417.8z"/>
	<path class="st7" d="M436.25,276.18c0.15,39.04-0.97,78.09-1.31,117.13"/>
	<path class="st7" d="M434.43,393.33c-0.01,1.51-0.05,5.93-2.23,10.92c-3.05,6.96-8.6,11.19-12.5,13.56c8.47,0,16.96,0,25.43,0
		c0.03-90.14,0.09-296.82,0-298.27c-0.05-0.82-0.24-1.59-0.24-1.59c-0.06-0.24-0.19-0.7-0.44-1.26c-0.24-0.55-0.49-0.97-0.63-1.19
		c-0.64-1.01-1.37-1.64-1.65-1.87c-0.33-0.27-1.28-1.01-2.7-1.46c-0.13-0.04-1.08-0.33-2.2-0.38c-2-0.09-18.3-0.02-40.63,0.17
		c5.67,1.09,13.11,2.79,21.67,5.52c8.43,2.69,10.47,4,11.91,5.2c7.78,6.55,7.77,18.62,7.69,23.57
		c-0.76,52.14-2.26,109.11-2.17,129.95"/>
</g>
<g id="Слой_1">
	<g id="Слой_7">
		<circle class="st8" cx="237.29" cy="163.32" r="13.96"/>
	</g>
	<g id="Слой_2_1_">
		<circle class="st9" cx="237.29" cy="163.32" r="71.84"/>
	</g>
	<g id="Слой_3">
		<circle class="st10" cx="237.29" cy="163.32" r="60.58"/>
	</g>
	<g id="Слой_4">
		<circle class="st11" cx="237.29" cy="163.32" r="48.08"/>
	</g>
	<g id="Слой_5">
		<circle class="st12" cx="237.29" cy="163.32" r="35.32"/>
	</g>
	<g id="Слой_6">
		<circle class="st13" cx="237.29" cy="163.32" r="24.71"/>
	</g>
	<g id="Слой_14">
		<circle class="st14" cx="237.29" cy="163.32" r="12.97"/>
	</g>
	<g id="Слой_17">
		<path class="st15" d="M237.29,163.32c21.03-11.46,42.06-22.93,63.09-34.38c-0.44-0.8-0.91-1.63-1.4-2.47
			c-0.49-0.82-0.98-1.59-1.47-2.34C277.43,137.2,257.36,150.25,237.29,163.32z"/>
	</g>
	<g id="Слой_1_1_">
		<path class="st16" d="M348.29,369.53h-63.73V155.77c0-2.36,1.91-4.27,4.27-4.27h55.73c2.05,0,3.72,1.67,3.72,3.72L348.29,369.53
			L348.29,369.53z"/>
	</g>
	<g id="Слой_16">
		<path class="st17" d="M305.97,151.63c8.19,0.86,14.97,2.14,20.02,3.26c6.68,1.48,9.93,2.63,12.26,5.48
			c2.85,3.5,2.9,7.86,2.89,9.73c-0.09,21.79-1.03,86.88-1.06,98.54c-0.1,36.78-0.75,51.49-2.05,80.91
			c-0.09,1.98-0.37,6.99-3.46,11.98c-2.53,4.07-5.95,6.55-8.49,8.02c7.39,0,14.79,0,22.18,0c0-122.95,0.01-212.74,0.01-214.24
			c0-0.18,0.01-0.87-0.33-1.62c-0.43-0.94-1.15-1.44-1.33-1.55c-0.13-0.09-0.57-0.36-1.19-0.51c-0.4-0.1-0.74-0.1-0.88-0.1
			C343.71,151.49,327.78,151.55,305.97,151.63z"/>
	</g>
	<g id="Слой_15">
		<path class="st18" d="M365.23,634.62c44.56-10.55,80.28-24.82,105.83-36.76c52.08-24.31,88.42-51.29,114.69-71.02
			c28.18-21.16,50.47-40.84,66.41-55.82c-3.57-4.82-7.14-9.64-10.72-14.45c15.14-3.27,30.29-6.51,45.44-9.78
			c-6.42,14.34-12.85,28.69-19.26,43.03c-2.77-3.71-5.57-7.41-8.34-11.12c-25.61,24.46-49.04,43.3-67.55,57.06
			c-5.25,3.91-22.22,16.4-45.72,31.3c-20.19,12.81-44.84,28.42-71.88,40.47C451.24,617.73,414.69,630.68,365.23,634.62z"/>
	</g>
	<g id="Слой_18">
		<path class="st19" d="M365.23,634.62c2.2-0.33,5.65-0.87,9.85-1.62l0,0c21.12,0.04,41.66-10.03,41.68-10.04
			c64.02-25.28,98.82-45.34,98.82-45.34c8.44-4.86,23.6-13.83,42.57-26.65c25.96-17.53,60.15-42.96,97.59-78.16
			c0.11-0.09,0.92-0.8,0.87-2c-0.05-1.14-0.84-1.84-0.95-1.96c-4.74-4.09-9.49-8.17-14.23-12.27c3.57,4.82,7.14,9.64,10.72,14.45
			c-2.27,2.13-5.56,5.21-9.57,8.85c-42.51,38.66-78.74,63.38-86.75,68.8c-20.02,13.53-51.34,34.49-94.31,53.53
			c-24.4,10.82-45.24,17.76-52.84,20.24C392.3,627.76,377.56,631.69,365.23,634.62z"/>
	</g>
	<path class="st20" d="M237.64,19.98c-63.7,93.64-127.4,187.28-191.11,280.92c124.25,37.14,248.51,74.28,372.76,111.42
		C358.75,281.54,298.19,150.76,237.64,19.98z"/>
	<path class="st21" d="M238.07,14.66c-0.09,1.17-0.18,2.34-0.27,3.5c60.81,131.5,121.62,263,182.43,394.5
		c1.32,1.3,2.64,2.61,3.95,3.91C362.14,282.6,300.1,148.63,238.07,14.66z"/>
	<path class="st21" d="M237.64,19.98c-0.1,1.19-0.2,2.37-0.3,3.56c-62.67,92.13-125.33,184.25-188,276.38
		c-0.94,0.33-1.88,0.66-2.81,0.98C110.24,207.26,173.94,113.62,237.64,19.98z"/>
	<path class="st22" d="M42.37,302.37c1.53-0.42,3.07-0.84,4.6-1.27c78.51,21.97,156.87,44.46,235.07,67.49
		c44.22,13.02,88.38,26.21,132.5,39.56c2.02,1.71,4.03,3.41,6.05,5.12c-50.27-15.13-100.54-30.26-150.81-45.39
		c-58.83-16.15-117.48-32.87-175.97-50.15C76.65,312.67,59.5,307.54,42.37,302.37z"/>
</g>
<g id="Слой_4_2_">
	<path class="st23" d="M157.36,368.84H93.63v-90.29c0-2.62,2.13-4.74,4.74-4.74h53.61c2.97,0,5.37,2.41,5.37,5.37L157.36,368.84
		L157.36,368.84z"/>
	<path class="st24" d="M221.07,368.84h-63.73V240.25c0-2.79,2.27-5.07,5.07-5.07h53.39c2.9,0,5.27,2.36,5.27,5.27L221.07,368.84
		L221.07,368.84z"/>
	<path class="st25" d="M284.8,368.84h-63.73v-167.8c0-2.17,1.75-3.93,3.93-3.93h55.93c2.14,0,3.86,1.74,3.86,3.86L284.8,368.84
		L284.8,368.84z"/>
	<path class="st26" d="M149.97,286.4c1.05,14.25,2.1,28.49,3.15,42.74c0.1,5.8-0.54,15.4-5.29,25.89
		c-2.53,5.58-5.56,9.94-8.22,13.17c5.74,0.04,11.48,0.08,17.22,0.11c0.17-29.71,0.34-59.42,0.51-89.12"/>
	<path class="st27" d="M211.41,251.74c1.3,18.5,1.43,50.29,1.47,55.22"/>
	<path class="st28" d="M272.35,204.47c3.25,3.31,3.52,7.96,3.61,10.03c0.85,19.65-0.03,58.11,0.65,74.86"/>
	<path class="st26" d="M157.35,368.86c0-29.88,0-59.77,0-89.65"/>
	<path class="st27" d="M212.86,306.98c0.05,6.38,0.51,29.28-2.13,42.14c-0.41,2.02-1.26,5.49-3.36,9.41
		c-2.69,5.01-6.12,8.35-8.5,10.32c7.39,0,14.79,0,22.18,0c0-42.03,0-84.05,0-126.08c0-0.67-0.04-1.86-0.47-3.18
		c-0.11-0.33-0.74-2.25-2.2-3.42c-1.43-1.15-2.92-0.99-3.36-0.96c-2.81,0.28-16.83,0.18-36.27,0.02c3.49,0.63,9.12,1.66,16.19,3.01
		c7.69,1.47,10.86,2.13,13.3,4.87c2.7,3.01,3.01,6.79,3.14,8.65"/>
	<path class="st28" d="M276.59,289.38c0.23,5.74,2.31,51.04-1.3,63.26c-0.79,2.7-2.09,5.12-2.09,5.12
		c-2.97,5.55-7.3,9.04-10.6,11.11c7.39,0,14.79,0,22.18,0c0.03-95.76,0.01-165.75,0-167.62c0-0.46-0.04-1.54-0.72-2.49
		c-0.1-0.15-0.51-0.72-1.27-1.14c-1.18-0.66-2.38-0.56-2.7-0.54c-1.91,0.12-16.83,0.11-37.62,0.08c7.34,1.27,15.56,2.71,18.47,3.22
		c5.74,0.99,8.86,1.54,11.39,4.12"/>
	<path class="st26" d="M157.36,279.2c0-0.48-0.04-1.32-0.47-2.26c-0.11-0.24-0.74-1.6-2.2-2.43c-1.43-0.82-2.92-0.71-3.36-0.68
		c-2.83,0.17-16.85,0.11-36.29,0c6.55,0.94,11.79,1.52,15.19,1.88c9.39,0.98,13.57,1.06,16.7,4.36c2.05,2.15,2.66,4.66,3.03,6.35"/>
	<path class="st26" d="M135.18,368.85c7.39,0,14.79,0,22.18,0"/>
	<path class="st26" d="M157.36,334.52c0,7.91,0,19.69,0,27.61c0,0.61,0,6.11,0,6.72c-5.76,0-11.53,0.01-17.29,0.01
		c3.71-7.91,7.43-15.81,11.14-23.72"/>
	<g id="Слой_13_1_">
		<path class="st29" d="M317.16,99.23c5.43,2.06,10.86,4.12,16.28,6.17c-1.54,0.54-3.1,1.08-4.64,1.62
			c-0.68-0.52-1.36-1.06-2.06-1.59c0.11-0.2,0.24-0.39,0.35-0.59c-0.24,0.1-0.49,0.2-0.75,0.31c-0.05-0.03-0.1-0.08-0.16-0.11
			c0.1-0.24,0.19-0.47,0.29-0.69c-0.13,0.2-0.28,0.4-0.41,0.6c-3.22-1.7-6.43-3.41-9.65-5.11
			C316.67,99.62,316.91,99.42,317.16,99.23z"/>
		<path class="st30" d="M318.41,98.28c5.6,1.24,11.2,2.49,16.82,3.72c-1.47,0.77-2.94,1.54-4.4,2.3c-0.74-0.43-1.47-0.85-2.22-1.28
			c0.09-0.21,0.19-0.43,0.28-0.64c-0.24,0.13-0.47,0.27-0.71,0.41c-0.05-0.03-0.11-0.05-0.17-0.09c0.07-0.24,0.13-0.49,0.2-0.74
			c-0.11,0.23-0.23,0.44-0.35,0.66c-3.38-1.22-6.75-2.43-10.12-3.65C317.96,98.74,318.19,98.51,318.41,98.28z"/>
		<path class="st31" d="M319.39,97.12c5.68,0.33,11.37,0.68,17.05,1.02c-1.35,0.99-2.71,1.99-4.07,2.98
			c-0.79-0.31-1.56-0.61-2.34-0.92c0.07-0.23,0.13-0.44,0.2-0.68c-0.21,0.17-0.43,0.35-0.65,0.51c-0.05-0.03-0.12-0.04-0.18-0.07
			c0.03-0.25,0.08-0.51,0.11-0.76c-0.09,0.24-0.17,0.47-0.25,0.72c-3.48-0.67-6.96-1.34-10.44-2.01
			C319.02,97.66,319.22,97.39,319.39,97.12z"/>
		<path class="st32" d="M320.37,95.83c5.66-0.51,11.32-1,16.98-1.51c-1.23,1.19-2.46,2.38-3.68,3.57c-0.8-0.19-1.61-0.38-2.42-0.57
			c0.04-0.24,0.08-0.47,0.12-0.71c-0.19,0.2-0.38,0.4-0.58,0.61c-0.05-0.01-0.12-0.03-0.18-0.03c0.01-0.25,0.01-0.51,0.03-0.77
			c-0.05,0.24-0.11,0.49-0.17,0.75c-3.52-0.16-7.03-0.31-10.55-0.46C320.06,96.41,320.22,96.12,320.37,95.83z"/>
		<path class="st29" d="M321.48,98.06c4.07,3.32,8.15,6.63,12.22,9.95c-1.46,0.11-2.92,0.23-4.37,0.35
			c-0.44-0.67-0.88-1.34-1.32-2.02c0.16-0.16,0.31-0.31,0.46-0.47c-0.24,0.03-0.48,0.07-0.72,0.09c-0.03-0.04-0.07-0.1-0.1-0.15
			c0.15-0.19,0.29-0.39,0.43-0.58c-0.17,0.16-0.35,0.31-0.51,0.46c-2.28-2.42-4.57-4.84-6.86-7.26
			C320.96,98.3,321.21,98.18,321.48,98.06z"/>
		<path class="st30" d="M322.79,97.47c4.44,2.59,8.88,5.19,13.3,7.78c-1.46,0.35-2.9,0.69-4.35,1.04c-0.51-0.59-1.03-1.18-1.54-1.77
			c0.13-0.18,0.27-0.36,0.4-0.52c-0.24,0.07-0.47,0.13-0.71,0.2c-0.04-0.04-0.08-0.09-0.12-0.12c0.12-0.21,0.24-0.43,0.37-0.64
			c-0.16,0.18-0.31,0.36-0.47,0.54c-2.55-2-5.09-4.01-7.63-6.02C322.29,97.8,322.55,97.64,322.79,97.47z"/>
		<path class="st31" d="M323.93,96.66c4.74,1.77,9.49,3.53,14.24,5.3c-1.42,0.59-2.83,1.19-4.25,1.77
			c-0.58-0.49-1.16-0.98-1.74-1.47c0.11-0.2,0.24-0.39,0.35-0.59c-0.23,0.11-0.46,0.21-0.68,0.32c-0.04-0.03-0.09-0.07-0.13-0.1
			c0.1-0.24,0.2-0.46,0.31-0.69c-0.13,0.2-0.27,0.4-0.4,0.6c-2.78-1.52-5.56-3.04-8.35-4.55C323.47,97.06,323.71,96.86,323.93,96.66
			z"/>
		<path class="st32" d="M325.1,95.68c4.95,0.98,9.89,1.95,14.84,2.9c-1.35,0.8-2.71,1.61-4.07,2.42c-0.64-0.38-1.27-0.77-1.91-1.15
			c0.1-0.21,0.19-0.43,0.29-0.63c-0.21,0.15-0.44,0.28-0.65,0.43c-0.04-0.03-0.1-0.05-0.15-0.08c0.08-0.24,0.15-0.48,0.23-0.72
			c-0.11,0.23-0.23,0.44-0.35,0.66c-2.95-1.04-5.91-2.08-8.85-3.12C324.69,96.16,324.89,95.92,325.1,95.68z"/>
		<path class="st29" d="M320.79,98.51c3.18,4.13,6.35,8.25,9.52,12.38c-1.47-0.24-2.95-0.49-4.43-0.74
			c-0.27-0.75-0.52-1.48-0.79-2.23c0.19-0.11,0.38-0.23,0.57-0.32c-0.24-0.03-0.49-0.05-0.72-0.09c-0.03-0.05-0.04-0.11-0.07-0.17
			c0.19-0.15,0.38-0.31,0.58-0.44c-0.21,0.1-0.41,0.21-0.63,0.31c-1.63-2.84-3.28-5.69-4.91-8.53
			C320.21,98.62,320.5,98.55,320.79,98.51z"/>
		<path class="st30" d="M324.78,95.97c4.88,1.46,9.75,2.92,14.62,4.37c-1.27,0.71-2.55,1.4-3.82,2.13
			c-0.64-0.46-1.28-0.91-1.92-1.36c0.08-0.21,0.16-0.41,0.24-0.63c-0.2,0.12-0.4,0.25-0.61,0.38c-0.04-0.03-0.1-0.07-0.15-0.1
			c0.05-0.24,0.12-0.48,0.18-0.72c-0.1,0.21-0.2,0.44-0.29,0.65c-2.94-1.35-5.87-2.7-8.81-4.05
			C324.41,96.41,324.59,96.2,324.78,95.97z"/>
		<path class="st31" d="M322,97.66c4.25,2.83,8.49,5.66,12.73,8.49c-1.55,0.21-3.11,0.43-4.68,0.64c-0.44-0.6-0.91-1.2-1.35-1.8
			c0.17-0.16,0.33-0.31,0.49-0.47c-0.25,0.04-0.51,0.09-0.76,0.13c-0.03-0.04-0.07-0.09-0.11-0.13c0.16-0.19,0.31-0.38,0.47-0.58
			c-0.19,0.16-0.37,0.31-0.56,0.47c-2.36-2.11-4.73-4.22-7.09-6.34C321.44,97.94,321.72,97.8,322,97.66z"/>
		<path class="st32" d="M323.39,97.12c4.65,2.13,9.3,4.25,13.96,6.38c-1.55,0.43-3.11,0.86-4.66,1.28
			c-0.52-0.51-1.06-1.03-1.59-1.55c0.15-0.18,0.31-0.35,0.44-0.52c-0.25,0.08-0.51,0.17-0.76,0.24c-0.04-0.03-0.08-0.08-0.12-0.11
			c0.13-0.21,0.27-0.41,0.41-0.63c-0.17,0.18-0.33,0.36-0.51,0.54c-2.65-1.7-5.31-3.41-7.96-5.11
			C322.84,97.46,323.11,97.28,323.39,97.12z"/>
		<path class="st29" d="M316.9,100.85c4.07,3.32,8.15,6.63,12.22,9.95c-1.46,0.11-2.92,0.23-4.37,0.35
			c-0.44-0.67-0.88-1.34-1.32-2.02c0.16-0.16,0.31-0.31,0.46-0.47c-0.24,0.03-0.48,0.07-0.72,0.09c-0.03-0.04-0.07-0.1-0.1-0.15
			c0.15-0.19,0.29-0.39,0.43-0.58c-0.17,0.16-0.35,0.31-0.51,0.46c-2.28-2.42-4.57-4.84-6.86-7.26
			C316.39,101.11,316.64,100.99,316.9,100.85z"/>
		<path class="st30" d="M318.21,100.28c4.44,2.59,8.88,5.19,13.3,7.78c-1.46,0.35-2.9,0.69-4.35,1.04
			c-0.51-0.59-1.03-1.18-1.54-1.77c0.13-0.18,0.27-0.36,0.4-0.52c-0.24,0.07-0.47,0.13-0.71,0.2c-0.04-0.04-0.08-0.09-0.12-0.12
			c0.12-0.21,0.24-0.43,0.37-0.64c-0.16,0.18-0.31,0.36-0.47,0.54c-2.55-2-5.09-4.01-7.63-6.02
			C317.72,100.6,317.96,100.45,318.21,100.28z"/>
		<path class="st31" d="M319.36,99.45c4.74,1.77,9.49,3.53,14.24,5.3c-1.42,0.59-2.83,1.19-4.25,1.77
			c-0.58-0.49-1.16-0.98-1.74-1.47c0.11-0.2,0.24-0.39,0.35-0.59c-0.23,0.11-0.46,0.21-0.68,0.32c-0.04-0.03-0.09-0.07-0.13-0.1
			c0.1-0.24,0.2-0.46,0.31-0.69c-0.13,0.2-0.27,0.4-0.4,0.6c-2.78-1.52-5.56-3.04-8.35-4.55C318.9,99.86,319.13,99.65,319.36,99.45z
			"/>
		<path class="st32" d="M320.53,98.49c4.95,0.98,9.89,1.95,14.84,2.9c-1.35,0.8-2.71,1.61-4.07,2.42c-0.64-0.38-1.27-0.77-1.91-1.15
			c0.1-0.21,0.19-0.43,0.29-0.63c-0.21,0.15-0.44,0.28-0.65,0.43c-0.04-0.03-0.1-0.05-0.15-0.08c0.08-0.24,0.15-0.48,0.23-0.72
			c-0.11,0.23-0.23,0.44-0.35,0.66c-2.95-1.04-5.91-2.08-8.85-3.12C320.11,98.96,320.32,98.73,320.53,98.49z"/>
		<path class="st29" d="M318.87,98.04c3.18,4.13,6.35,8.25,9.52,12.38c-1.47-0.24-2.95-0.49-4.43-0.74
			c-0.27-0.75-0.52-1.48-0.79-2.23c0.19-0.11,0.38-0.23,0.57-0.32c-0.24-0.03-0.49-0.05-0.72-0.09c-0.03-0.05-0.04-0.11-0.07-0.17
			c0.19-0.15,0.38-0.31,0.58-0.44c-0.21,0.1-0.41,0.21-0.63,0.31c-1.63-2.84-3.28-5.69-4.91-8.53
			C318.3,98.15,318.58,98.1,318.87,98.04z"/>
		<path class="st30" d="M320.2,98.77c4.88,1.46,9.75,2.92,14.62,4.37c-1.27,0.71-2.55,1.4-3.82,2.13c-0.64-0.46-1.28-0.91-1.92-1.36
			c0.08-0.21,0.16-0.41,0.24-0.63c-0.2,0.12-0.4,0.25-0.61,0.38c-0.04-0.03-0.1-0.07-0.15-0.1c0.05-0.24,0.12-0.48,0.18-0.72
			c-0.1,0.21-0.2,0.44-0.29,0.65c-2.94-1.35-5.87-2.7-8.81-4.05C319.82,99.22,320.01,98.99,320.2,98.77z"/>
		<path class="st31" d="M317.43,100.46c4.25,2.83,8.49,5.66,12.73,8.49c-1.55,0.21-3.11,0.43-4.68,0.64c-0.44-0.6-0.91-1.2-1.35-1.8
			c0.17-0.16,0.33-0.31,0.49-0.47c-0.25,0.04-0.51,0.09-0.76,0.13c-0.03-0.04-0.07-0.09-0.11-0.13c0.16-0.19,0.31-0.38,0.47-0.58
			c-0.19,0.16-0.37,0.31-0.56,0.47c-2.36-2.11-4.73-4.22-7.09-6.34C316.85,100.73,317.13,100.6,317.43,100.46z"/>
		<path class="st32" d="M318.8,99.92c4.65,2.13,9.3,4.25,13.96,6.38c-1.55,0.43-3.11,0.86-4.66,1.28c-0.52-0.51-1.06-1.03-1.59-1.55
			c0.15-0.18,0.31-0.35,0.44-0.52c-0.25,0.08-0.51,0.17-0.76,0.24c-0.04-0.03-0.08-0.08-0.12-0.11c0.13-0.21,0.27-0.41,0.41-0.63
			c-0.17,0.18-0.33,0.36-0.51,0.54c-2.65-1.7-5.31-3.41-7.96-5.11C318.27,100.26,318.54,100.09,318.8,99.92z"/>
		<path class="st29" d="M310.76,102.72c4.73,1.81,9.46,3.64,14.18,5.44c-1.35,0.48-2.7,0.95-4.05,1.43
			c-0.59-0.47-1.19-0.94-1.79-1.4c0.1-0.18,0.2-0.35,0.31-0.52c-0.21,0.09-0.44,0.18-0.65,0.27c-0.04-0.03-0.09-0.07-0.13-0.1
			c0.08-0.2,0.17-0.41,0.24-0.61c-0.12,0.18-0.24,0.36-0.36,0.54c-2.81-1.5-5.6-3.01-8.41-4.51
			C310.34,103.06,310.55,102.9,310.76,102.72z"/>
		<path class="st29" d="M314.53,101.69c3.54,2.93,7.1,5.84,10.64,8.77c-1.27,0.1-2.54,0.2-3.81,0.31c-0.38-0.59-0.77-1.19-1.15-1.78
			c0.13-0.13,0.27-0.27,0.39-0.41c-0.21,0.03-0.41,0.05-0.63,0.08c-0.03-0.04-0.05-0.09-0.09-0.13c0.12-0.17,0.24-0.35,0.37-0.51
			c-0.15,0.13-0.31,0.27-0.44,0.4c-1.99-2.14-3.98-4.27-5.97-6.4C314.09,101.9,314.31,101.79,314.53,101.69z"/>
		<path class="st30" d="M317.21,101.11c4.44,2.59,8.88,5.19,13.3,7.78c-1.46,0.35-2.9,0.69-4.35,1.04
			c-0.51-0.59-1.03-1.18-1.54-1.77c0.13-0.18,0.27-0.36,0.4-0.52c-0.24,0.07-0.47,0.13-0.71,0.2c-0.04-0.04-0.08-0.09-0.12-0.12
			c0.12-0.21,0.24-0.43,0.37-0.64c-0.16,0.18-0.31,0.36-0.47,0.54c-2.55-2-5.09-4.01-7.63-6.02
			C316.72,101.43,316.97,101.28,317.21,101.11z"/>
		<path class="st29" d="M313.93,102.09c2.77,3.65,5.53,7.27,8.3,10.92c-1.28-0.23-2.57-0.44-3.86-0.66
			c-0.23-0.66-0.46-1.31-0.68-1.97c0.17-0.1,0.33-0.19,0.51-0.29c-0.21-0.03-0.43-0.05-0.64-0.08c-0.03-0.04-0.03-0.1-0.05-0.15
			c0.17-0.13,0.33-0.25,0.51-0.39c-0.18,0.09-0.37,0.18-0.55,0.28c-1.42-2.5-2.85-5.02-4.27-7.53
			C313.42,102.18,313.68,102.14,313.93,102.09z"/>
		<path class="st31" d="M316.43,101.29c4.25,2.83,8.49,5.66,12.73,8.49c-1.55,0.21-3.11,0.43-4.68,0.64c-0.44-0.6-0.91-1.2-1.35-1.8
			c0.17-0.16,0.33-0.31,0.49-0.47c-0.25,0.04-0.51,0.09-0.76,0.13c-0.03-0.04-0.07-0.09-0.11-0.13c0.16-0.19,0.31-0.38,0.47-0.58
			c-0.19,0.16-0.37,0.31-0.56,0.47c-2.36-2.11-4.73-4.22-7.09-6.34C315.86,101.56,316.15,101.43,316.43,101.29z"/>
		<path class="st32" d="M317.8,100.75c4.65,2.13,9.3,4.25,13.96,6.38c-1.55,0.43-3.11,0.86-4.66,1.28
			c-0.52-0.51-1.06-1.03-1.59-1.55c0.15-0.18,0.31-0.35,0.44-0.52c-0.25,0.08-0.51,0.17-0.76,0.24c-0.04-0.03-0.08-0.08-0.12-0.11
			c0.13-0.21,0.27-0.41,0.41-0.63c-0.17,0.18-0.33,0.36-0.51,0.54c-2.65-1.7-5.31-3.41-7.96-5.11
			C317.27,101.08,317.54,100.92,317.8,100.75z"/>
		<path class="st29" d="M309.14,103.65c2.62,2.33,5.23,4.64,7.85,6.96c-0.94,0.08-1.88,0.16-2.81,0.24
			c-0.28-0.47-0.57-0.94-0.85-1.42c0.1-0.11,0.19-0.21,0.29-0.32c-0.16,0.03-0.31,0.04-0.46,0.07c-0.03-0.03-0.04-0.07-0.07-0.1
			c0.09-0.13,0.18-0.27,0.28-0.4c-0.11,0.11-0.23,0.21-0.32,0.32c-1.47-1.7-2.94-3.38-4.4-5.09
			C308.81,103.82,308.98,103.74,309.14,103.65z"/>
		<path class="st30" d="M311.69,103.66c3.86,2.29,7.73,4.58,11.59,6.86c-1.26,0.31-2.53,0.61-3.79,0.92
			c-0.44-0.51-0.9-1.04-1.34-1.55c0.12-0.16,0.24-0.31,0.36-0.47c-0.2,0.05-0.41,0.12-0.61,0.18c-0.03-0.03-0.07-0.08-0.1-0.11
			c0.11-0.19,0.21-0.38,0.32-0.56c-0.13,0.16-0.27,0.31-0.4,0.47c-2.22-1.77-4.44-3.53-6.66-5.31
			C311.25,103.94,311.47,103.81,311.69,103.66z"/>
		<path class="st31" d="M313.79,103.08c4.74,1.77,9.49,3.53,14.24,5.3c-1.42,0.59-2.83,1.19-4.25,1.77
			c-0.58-0.49-1.16-0.98-1.74-1.47c0.11-0.2,0.24-0.39,0.35-0.59c-0.23,0.11-0.46,0.21-0.68,0.32c-0.04-0.03-0.09-0.07-0.13-0.1
			c0.1-0.24,0.2-0.46,0.31-0.69c-0.13,0.2-0.27,0.4-0.4,0.6c-2.78-1.52-5.56-3.04-8.35-4.55
			C313.34,103.5,313.56,103.29,313.79,103.08z"/>
		<path class="st29" d="M310.41,101.68c2.05,2.89,4.08,5.78,6.12,8.66c-0.95-0.18-1.9-0.35-2.84-0.52
			c-0.17-0.52-0.33-1.04-0.51-1.56c0.12-0.08,0.24-0.16,0.37-0.24c-0.16-0.03-0.31-0.04-0.47-0.05c-0.01-0.03-0.03-0.08-0.04-0.11
			c0.12-0.1,0.24-0.21,0.37-0.31c-0.13,0.07-0.27,0.15-0.4,0.21c-1.05-1.99-2.1-3.98-3.15-5.97
			C310.04,101.76,310.22,101.72,310.41,101.68z"/>
		<path class="st30" d="M314.63,102.4c4.88,1.46,9.75,2.92,14.62,4.37c-1.27,0.71-2.55,1.4-3.82,2.13
			c-0.64-0.46-1.28-0.91-1.92-1.36c0.08-0.21,0.16-0.41,0.24-0.63c-0.2,0.12-0.4,0.25-0.61,0.38c-0.04-0.03-0.1-0.07-0.15-0.1
			c0.05-0.24,0.12-0.48,0.18-0.72c-0.1,0.21-0.2,0.44-0.29,0.65c-2.94-1.35-5.87-2.7-8.81-4.05
			C314.25,102.85,314.44,102.63,314.63,102.4z"/>
		<path class="st31" d="M311,103.81c3.7,2.49,7.39,4.99,11.09,7.48c-1.35,0.19-2.71,0.38-4.07,0.56c-0.39-0.52-0.79-1.06-1.18-1.59
			c0.15-0.13,0.29-0.28,0.44-0.41c-0.23,0.04-0.44,0.08-0.66,0.12c-0.03-0.03-0.07-0.08-0.09-0.11c0.13-0.17,0.28-0.33,0.41-0.51
			c-0.17,0.13-0.32,0.28-0.49,0.41c-2.06-1.87-4.12-3.72-6.18-5.59C310.5,104.05,310.76,103.94,311,103.81z"/>
		<path class="st32" d="M312.2,103.33c4.05,1.88,8.1,3.74,12.15,5.63c-1.35,0.38-2.7,0.76-4.07,1.14c-0.46-0.46-0.92-0.92-1.39-1.36
			c0.13-0.16,0.25-0.31,0.39-0.47c-0.23,0.07-0.44,0.15-0.66,0.21c-0.03-0.03-0.07-0.07-0.11-0.1c0.12-0.19,0.24-0.37,0.36-0.56
			c-0.15,0.16-0.31,0.31-0.44,0.47c-2.31-1.5-4.63-3.01-6.94-4.51C311.73,103.63,311.97,103.49,312.2,103.33z"/>
		<path class="st29" d="M305.87,105.45c3.49,1.44,6.98,2.89,10.47,4.33c-0.99,0.38-1.99,0.76-2.98,1.14
			c-0.44-0.37-0.88-0.75-1.32-1.12c0.08-0.13,0.15-0.28,0.23-0.41c-0.16,0.07-0.32,0.15-0.48,0.21c-0.03-0.03-0.07-0.05-0.1-0.08
			c0.07-0.17,0.12-0.32,0.19-0.49c-0.09,0.15-0.18,0.28-0.27,0.43c-2.07-1.19-4.13-2.38-6.19-3.58
			C305.56,105.73,305.71,105.59,305.87,105.45z"/>
		<path class="st29" d="M308.65,104.63c2.62,2.33,5.23,4.64,7.85,6.96c-0.94,0.08-1.88,0.16-2.81,0.24
			c-0.28-0.47-0.57-0.94-0.85-1.42c0.1-0.11,0.19-0.21,0.29-0.32c-0.16,0.03-0.31,0.04-0.46,0.07c-0.03-0.03-0.04-0.07-0.07-0.1
			c0.09-0.13,0.18-0.27,0.28-0.4c-0.11,0.11-0.23,0.21-0.32,0.32c-1.47-1.7-2.94-3.38-4.4-5.09
			C308.31,104.81,308.48,104.72,308.65,104.63z"/>
		<path class="st30" d="M311.01,104.9c3.86,2.29,7.73,4.58,11.59,6.86c-1.26,0.31-2.53,0.61-3.79,0.92
			c-0.44-0.51-0.9-1.04-1.34-1.55c0.12-0.16,0.24-0.31,0.36-0.47c-0.2,0.05-0.41,0.12-0.61,0.18c-0.03-0.03-0.07-0.08-0.1-0.11
			c0.11-0.19,0.21-0.38,0.32-0.56c-0.13,0.16-0.27,0.31-0.4,0.47c-2.22-1.77-4.44-3.53-6.66-5.31
			C310.58,105.17,310.8,105.04,311.01,104.9z"/>
		<path class="st29" d="M308.2,104.96c2.05,2.89,4.08,5.78,6.12,8.66c-0.95-0.18-1.9-0.35-2.84-0.52c-0.17-0.52-0.33-1.04-0.51-1.56
			c0.12-0.08,0.24-0.16,0.37-0.24c-0.16-0.03-0.31-0.04-0.47-0.05c-0.01-0.03-0.03-0.08-0.04-0.11c0.12-0.1,0.24-0.21,0.37-0.31
			c-0.13,0.07-0.27,0.15-0.4,0.21c-1.05-1.99-2.1-3.98-3.15-5.97C307.83,105.04,308.03,104.98,308.2,104.96z"/>
		<path class="st31" d="M308.98,104.36c2.73,1.98,5.45,3.96,8.18,5.94c-0.99,0.15-2,0.31-2.99,0.44c-0.29-0.43-0.58-0.84-0.87-1.26
			c0.11-0.11,0.21-0.23,0.32-0.32c-0.17,0.03-0.32,0.07-0.49,0.1c-0.03-0.03-0.04-0.07-0.07-0.09c0.1-0.13,0.2-0.27,0.31-0.4
			c-0.12,0.11-0.24,0.23-0.36,0.33c-1.52-1.47-3.04-2.97-4.56-4.44C308.62,104.55,308.79,104.45,308.98,104.36z"/>
		<path class="st32" d="M311.52,104.57c4.05,1.88,8.1,3.74,12.15,5.63c-1.35,0.38-2.7,0.76-4.07,1.14
			c-0.46-0.46-0.92-0.92-1.39-1.36c0.13-0.16,0.25-0.31,0.39-0.47c-0.23,0.07-0.44,0.15-0.66,0.21c-0.03-0.03-0.07-0.07-0.11-0.1
			c0.12-0.19,0.24-0.37,0.36-0.56c-0.15,0.16-0.31,0.31-0.44,0.47c-2.31-1.5-4.63-3.01-6.94-4.51
			C311.07,104.88,311.29,104.73,311.52,104.57z"/>
		<path class="st29" d="M305.71,106.6c2.62,2.33,5.23,4.64,7.85,6.96c-0.94,0.08-1.88,0.16-2.81,0.24
			c-0.28-0.47-0.57-0.94-0.85-1.42c0.1-0.11,0.19-0.21,0.29-0.32c-0.16,0.03-0.31,0.04-0.46,0.07c-0.03-0.03-0.04-0.07-0.07-0.1
			c0.09-0.13,0.18-0.27,0.28-0.4c-0.11,0.11-0.23,0.21-0.32,0.32c-1.47-1.7-2.94-3.38-4.4-5.09
			C305.37,106.76,305.54,106.68,305.71,106.6z"/>
		<path class="st30" d="M306.55,106.2c2.85,1.82,5.7,3.64,8.55,5.45c-0.92,0.24-1.87,0.48-2.79,0.72c-0.33-0.41-0.66-0.83-0.99-1.24
			c0.09-0.12,0.18-0.24,0.25-0.37c-0.16,0.04-0.31,0.1-0.46,0.15c-0.03-0.03-0.05-0.05-0.08-0.09c0.08-0.15,0.16-0.31,0.24-0.44
			c-0.1,0.12-0.2,0.24-0.31,0.37c-1.63-1.4-3.28-2.81-4.91-4.21C306.24,106.43,306.39,106.31,306.55,106.2z"/>
		<path class="st31" d="M307.28,105.61c3.05,1.24,6.1,2.49,9.14,3.72c-0.91,0.41-1.82,0.83-2.73,1.24
			c-0.37-0.33-0.75-0.68-1.12-1.02c0.08-0.13,0.15-0.28,0.23-0.41c-0.15,0.08-0.29,0.15-0.44,0.23c-0.03-0.03-0.05-0.04-0.09-0.08
			c0.07-0.16,0.12-0.32,0.19-0.48c-0.09,0.15-0.18,0.28-0.25,0.43c-1.79-1.06-3.58-2.13-5.36-3.18
			C307,105.9,307.14,105.76,307.28,105.61z"/>
		<path class="st29" d="M306.97,104.63c2.05,2.89,4.08,5.78,6.12,8.66c-0.95-0.18-1.9-0.35-2.84-0.52
			c-0.17-0.52-0.33-1.04-0.51-1.56c0.12-0.08,0.24-0.16,0.37-0.24c-0.16-0.03-0.31-0.04-0.47-0.05c-0.01-0.03-0.03-0.08-0.04-0.11
			c0.12-0.1,0.24-0.21,0.37-0.31c-0.13,0.07-0.27,0.15-0.4,0.21c-1.05-1.99-2.1-3.98-3.15-5.97
			C306.6,104.7,306.79,104.66,306.97,104.63z"/>
		<path class="st30" d="M308.77,106.04c4.25,1.28,8.5,2.57,12.73,3.86c-1.11,0.63-2.22,1.26-3.33,1.87c-0.56-0.4-1.12-0.8-1.67-1.2
			c0.07-0.18,0.15-0.37,0.21-0.55c-0.18,0.11-0.36,0.23-0.54,0.33c-0.04-0.03-0.09-0.05-0.12-0.09c0.05-0.21,0.1-0.43,0.16-0.64
			c-0.09,0.19-0.17,0.38-0.25,0.57c-2.56-1.19-5.12-2.38-7.67-3.57C308.43,106.43,308.59,106.24,308.77,106.04z"/>
		<path class="st31" d="M306.04,106.32c2.73,1.98,5.45,3.96,8.18,5.94c-0.99,0.15-2,0.31-2.99,0.44c-0.29-0.43-0.58-0.84-0.87-1.26
			c0.11-0.11,0.21-0.23,0.32-0.32c-0.17,0.03-0.32,0.07-0.49,0.1c-0.03-0.03-0.04-0.07-0.07-0.09c0.1-0.13,0.2-0.27,0.31-0.4
			c-0.12,0.11-0.24,0.23-0.36,0.33c-1.52-1.47-3.04-2.97-4.56-4.44C305.68,106.51,305.85,106.41,306.04,106.32z"/>
		<path class="st32" d="M306.93,105.93c2.98,1.48,5.98,2.97,8.97,4.46c-0.99,0.31-2,0.6-2.99,0.91c-0.33-0.36-0.68-0.72-1.02-1.08
			c0.1-0.12,0.19-0.24,0.29-0.37c-0.17,0.05-0.32,0.11-0.49,0.17c-0.03-0.03-0.05-0.05-0.08-0.08c0.09-0.15,0.18-0.29,0.27-0.44
			c-0.11,0.12-0.23,0.24-0.32,0.38c-1.71-1.19-3.41-2.38-5.12-3.58C306.59,106.19,306.75,106.06,306.93,105.93z"/>
	</g>
	<g id="Слой_9_1_">
		<path class="st33" d="M237.29,163.32c29.42-25.2,58.86-50.4,88.28-75.58c1.15,1.63,2.3,3.26,3.46,4.91
			C298.46,116.2,267.87,139.77,237.29,163.32z"/>
	</g>
	<g id="Слой_12_1_">
		<path class="st29" d="M315.81,98.32c-1.84-4.81-3.69-9.64-5.53-14.45c-0.65,1.35-1.31,2.7-1.95,4.05
			c0.51,0.61,1.03,1.23,1.55,1.83c0.21-0.1,0.43-0.2,0.64-0.29c-0.12,0.21-0.24,0.44-0.36,0.65c0.03,0.04,0.08,0.09,0.11,0.15
			c0.24-0.08,0.49-0.16,0.75-0.24c-0.23,0.12-0.44,0.24-0.66,0.36c1.6,2.86,3.21,5.72,4.81,8.58
			C315.37,98.75,315.6,98.54,315.81,98.32z"/>
		<path class="st30" d="M316.87,97.24c-0.99-4.95-1.97-9.91-2.95-14.85c-0.88,1.27-1.77,2.55-2.65,3.82c0.4,0.66,0.8,1.32,1.22,1.97
			c0.23-0.08,0.46-0.16,0.68-0.24c-0.16,0.2-0.31,0.4-0.47,0.61c0.03,0.04,0.05,0.1,0.09,0.15c0.25-0.05,0.52-0.11,0.79-0.17
			c-0.24,0.1-0.47,0.19-0.72,0.29c1.08,2.99,2.17,5.98,3.25,8.98C316.36,97.62,316.61,97.43,316.87,97.24z"/>
	</g>
	<g id="Слой_10_1_">
		
			<ellipse transform="matrix(0.8421 -0.5393 0.5393 0.8421 2.8986 190.6977)" class="st34" cx="327.13" cy="90.4" rx="1.54" ry="3.1"/>
		<path class="st31" d="M318.13,96.39c-0.03-5.01-0.07-10.01-0.11-15.01c-1.12,1.18-2.23,2.35-3.36,3.51
			c0.28,0.69,0.55,1.39,0.83,2.08c0.24-0.05,0.48-0.11,0.72-0.16c-0.19,0.19-0.38,0.37-0.58,0.56c0.03,0.05,0.03,0.1,0.05,0.16
			c0.27-0.03,0.54-0.05,0.8-0.08c-0.25,0.07-0.51,0.15-0.76,0.21c0.51,3.07,1.02,6.15,1.52,9.22
			C317.55,96.71,317.84,96.56,318.13,96.39z"/>
	</g>
	<g id="Слой_11_1_">
		<path class="st32" d="M319.54,95.56c0.84-4.96,1.69-9.93,2.53-14.9c-1.32,1.05-2.63,2.11-3.94,3.17c0.16,0.72,0.31,1.43,0.46,2.14
			c0.24-0.03,0.49-0.05,0.74-0.09c-0.23,0.17-0.44,0.33-0.67,0.49c0.01,0.05,0.03,0.11,0.03,0.16c0.27,0,0.54,0,0.82,0
			c-0.27,0.04-0.52,0.09-0.79,0.13c-0.03,3.1-0.08,6.19-0.11,9.29C318.91,95.83,319.22,95.69,319.54,95.56z"/>
		<path class="st29" d="M315.09,100.66c-2.99-3.26-5.99-6.54-8.98-9.8c-0.29,1.14-0.59,2.29-0.88,3.43
			c0.66,0.36,1.31,0.72,1.97,1.08c0.18-0.11,0.36-0.24,0.55-0.35c-0.05,0.19-0.12,0.37-0.18,0.56c0.04,0.03,0.1,0.05,0.15,0.09
			c0.23-0.11,0.44-0.21,0.66-0.32c-0.18,0.13-0.37,0.25-0.55,0.39c2.27,1.84,4.54,3.69,6.81,5.53
			C314.78,101.07,314.93,100.86,315.09,100.66z"/>
		<path class="st30" d="M319.13,95.8c0.32-5.04,0.65-10.08,0.98-15.12c-1.19,1-2.37,2.01-3.56,3.02c0.23,0.74,0.44,1.47,0.67,2.22
			c0.24-0.01,0.48-0.03,0.72-0.04c-0.2,0.16-0.4,0.31-0.6,0.47c0.01,0.05,0.03,0.11,0.04,0.17c0.27,0.01,0.54,0.03,0.79,0.04
			c-0.25,0.03-0.51,0.07-0.76,0.09c0.28,3.17,0.56,6.34,0.84,9.52C318.54,96.02,318.83,95.91,319.13,95.8z"/>
		<path class="st31" d="M316.4,97.94c-1.28-4.84-2.58-9.67-3.86-14.51c-0.79,1.42-1.58,2.83-2.37,4.25c0.44,0.6,0.88,1.19,1.32,1.8
			c0.23-0.11,0.44-0.23,0.66-0.33c-0.15,0.23-0.28,0.46-0.43,0.68c0.03,0.04,0.07,0.09,0.09,0.13c0.25-0.09,0.51-0.19,0.76-0.28
			c-0.23,0.13-0.46,0.25-0.68,0.39c1.26,2.85,2.53,5.7,3.79,8.55C315.92,98.4,316.15,98.17,316.4,97.94z"/>
		<path class="st32" d="M317.46,96.79c-0.43-5.02-0.86-10.04-1.28-15.06c-1,1.35-2.01,2.7-3.02,4.05c0.32,0.65,0.65,1.31,0.99,1.95
			c0.24-0.09,0.47-0.18,0.69-0.27c-0.18,0.21-0.35,0.44-0.52,0.65c0.03,0.04,0.04,0.1,0.07,0.15c0.25-0.07,0.52-0.13,0.79-0.21
			c-0.24,0.11-0.49,0.23-0.72,0.32c0.74,3.01,1.48,6.02,2.22,9.02C316.91,97.2,317.18,96.99,317.46,96.79z"/>
		<path class="st29" d="M311.29,102.99c-1.84-3.74-3.69-7.5-5.53-11.24c-0.65,1.05-1.31,2.1-1.95,3.15
			c0.51,0.48,1.03,0.95,1.55,1.43c0.21-0.08,0.43-0.16,0.64-0.24c-0.12,0.17-0.24,0.33-0.36,0.51c0.03,0.03,0.08,0.08,0.11,0.11
			c0.24-0.07,0.49-0.12,0.75-0.19c-0.23,0.09-0.44,0.18-0.66,0.28c1.6,2.22,3.21,4.46,4.81,6.68
			C310.85,103.33,311.07,103.16,311.29,102.99z"/>
		<path class="st30" d="M312.35,100.77c-0.99-4.95-1.97-9.91-2.95-14.85c-0.88,1.27-1.77,2.55-2.65,3.82
			c0.4,0.66,0.8,1.32,1.22,1.97c0.23-0.08,0.46-0.16,0.68-0.24c-0.16,0.2-0.31,0.4-0.47,0.61c0.03,0.04,0.05,0.1,0.09,0.15
			c0.25-0.05,0.52-0.11,0.79-0.17c-0.24,0.1-0.47,0.19-0.72,0.29c1.08,2.99,2.17,5.98,3.25,8.98
			C311.84,101.15,312.09,100.96,312.35,100.77z"/>
		<path class="st31" d="M313.6,99.92c-0.03-5.01-0.07-10.01-0.11-15.01c-1.12,1.18-2.23,2.35-3.36,3.51
			c0.28,0.69,0.55,1.39,0.83,2.08c0.24-0.05,0.48-0.11,0.72-0.16c-0.19,0.19-0.38,0.37-0.58,0.56c0.03,0.05,0.03,0.1,0.05,0.16
			c0.27-0.03,0.54-0.05,0.8-0.08c-0.25,0.07-0.51,0.15-0.76,0.21c0.51,3.07,1.02,6.15,1.52,9.22
			C313.03,100.25,313.32,100.09,313.6,99.92z"/>
		<path class="st32" d="M315.02,99.1c0.84-4.96,1.69-9.93,2.53-14.9c-1.32,1.05-2.63,2.11-3.94,3.17c0.16,0.72,0.31,1.43,0.46,2.14
			c0.24-0.03,0.49-0.05,0.74-0.09c-0.23,0.17-0.44,0.33-0.67,0.49c0.01,0.05,0.03,0.11,0.03,0.16c0.27,0,0.54,0,0.82,0
			c-0.27,0.04-0.52,0.09-0.79,0.13c-0.03,3.1-0.08,6.19-0.11,9.29C314.39,99.37,314.71,99.23,315.02,99.1z"/>
		<path class="st29" d="M310.57,104.22c-2.99-2.54-5.99-5.07-8.98-7.61c-0.29,0.88-0.59,1.78-0.88,2.66
			c0.66,0.28,1.31,0.56,1.97,0.84c0.18-0.09,0.36-0.18,0.55-0.27c-0.05,0.15-0.12,0.29-0.18,0.44c0.04,0.03,0.1,0.04,0.15,0.07
			c0.23-0.09,0.44-0.17,0.66-0.25c-0.18,0.1-0.37,0.2-0.55,0.31c2.27,1.43,4.54,2.86,6.81,4.29
			C310.25,104.54,310.42,104.38,310.57,104.22z"/>
		<path class="st30" d="M314.61,99.32c0.32-5.04,0.65-10.08,0.98-15.12c-1.19,1-2.37,2.01-3.56,3.02c0.23,0.74,0.44,1.47,0.67,2.22
			c0.24-0.01,0.48-0.03,0.72-0.04c-0.2,0.16-0.4,0.31-0.6,0.47c0.01,0.05,0.03,0.11,0.04,0.17c0.27,0.01,0.54,0.03,0.79,0.04
			c-0.25,0.03-0.51,0.07-0.76,0.09c0.28,3.17,0.56,6.34,0.84,9.52C314.02,99.55,314.31,99.44,314.61,99.32z"/>
		<path class="st31" d="M311.88,102.71c-1.28-3.77-2.58-7.54-3.86-11.29c-0.79,1.1-1.58,2.2-2.37,3.3c0.44,0.47,0.88,0.94,1.32,1.4
			c0.23-0.09,0.44-0.18,0.66-0.25c-0.15,0.18-0.28,0.36-0.43,0.54c0.03,0.03,0.07,0.07,0.09,0.11c0.25-0.08,0.51-0.15,0.76-0.23
			c-0.23,0.1-0.46,0.2-0.68,0.31c1.26,2.22,2.53,4.44,3.79,6.66C311.4,103.06,311.64,102.88,311.88,102.71z"/>
		<path class="st32" d="M312.94,100.33c-0.43-5.02-0.86-10.04-1.28-15.06c-1,1.35-2.01,2.7-3.02,4.05c0.32,0.65,0.65,1.31,0.99,1.95
			c0.24-0.09,0.47-0.18,0.69-0.27c-0.18,0.21-0.35,0.44-0.52,0.65c0.03,0.04,0.04,0.1,0.07,0.15c0.25-0.07,0.52-0.13,0.79-0.21
			c-0.24,0.11-0.49,0.23-0.72,0.32c0.74,3.01,1.48,6.02,2.22,9.02C312.4,100.73,312.67,100.53,312.94,100.33z"/>
		<path class="st29" d="M310.88,103.29c-1.84-3.74-3.69-7.5-5.53-11.24c-0.65,1.05-1.31,2.1-1.95,3.15
			c0.51,0.48,1.03,0.95,1.55,1.43c0.21-0.08,0.43-0.16,0.64-0.24c-0.12,0.17-0.24,0.33-0.36,0.51c0.03,0.03,0.08,0.08,0.11,0.11
			c0.24-0.07,0.49-0.12,0.75-0.19c-0.23,0.09-0.44,0.18-0.66,0.28c1.6,2.22,3.21,4.46,4.81,6.68
			C310.44,103.61,310.66,103.46,310.88,103.29z"/>
		<path class="st29" d="M310.16,104.45c-2.99-2.54-5.99-5.07-8.98-7.61c-0.29,0.88-0.59,1.78-0.88,2.66
			c0.66,0.28,1.31,0.56,1.97,0.84c0.18-0.09,0.36-0.18,0.55-0.27c-0.05,0.15-0.12,0.29-0.18,0.44c0.04,0.03,0.1,0.04,0.15,0.07
			c0.23-0.09,0.44-0.17,0.66-0.25c-0.18,0.1-0.37,0.2-0.55,0.31c2.27,1.43,4.54,2.86,6.81,4.29
			C309.85,104.76,310.01,104.61,310.16,104.45z"/>
		<path class="st29" d="M306.36,106.26c-1.84-2.9-3.69-5.81-5.53-8.72c-0.65,0.82-1.31,1.63-1.95,2.45
			c0.51,0.37,1.03,0.74,1.55,1.11c0.21-0.05,0.43-0.12,0.64-0.18c-0.12,0.13-0.24,0.25-0.36,0.39c0.03,0.03,0.08,0.05,0.11,0.09
			c0.24-0.04,0.49-0.1,0.75-0.15c-0.23,0.07-0.44,0.15-0.66,0.21c1.6,1.74,3.21,3.45,4.81,5.19
			C305.92,106.52,306.13,106.39,306.36,106.26z"/>
		<path class="st30" d="M307.42,105.61c-0.99-2.98-1.97-5.98-2.95-8.97c-0.88,0.77-1.77,1.54-2.65,2.31c0.4,0.39,0.8,0.79,1.22,1.19
			c0.23-0.04,0.46-0.09,0.68-0.15c-0.16,0.12-0.31,0.24-0.47,0.37c0.03,0.03,0.05,0.05,0.09,0.09c0.25-0.03,0.52-0.07,0.79-0.1
			c-0.24,0.05-0.47,0.11-0.72,0.17c1.08,1.81,2.17,3.61,3.25,5.43C306.91,105.84,307.16,105.72,307.42,105.61z"/>
		<path class="st29" d="M305.64,106.57c-2.99-2.54-5.99-5.07-8.98-7.61c-0.29,0.88-0.59,1.78-0.88,2.66
			c0.66,0.28,1.31,0.56,1.97,0.84c0.18-0.09,0.36-0.18,0.55-0.27c-0.05,0.15-0.12,0.29-0.18,0.44c0.04,0.03,0.1,0.04,0.15,0.07
			c0.23-0.09,0.44-0.17,0.66-0.25c-0.18,0.1-0.37,0.2-0.55,0.31c2.27,1.43,4.54,2.86,6.81,4.29
			C305.33,106.88,305.49,106.73,305.64,106.57z"/>
		<path class="st31" d="M306.95,106.04c-1.28-2.92-2.58-5.84-3.86-8.76c-0.79,0.85-1.58,1.71-2.37,2.56
			c0.44,0.36,0.88,0.72,1.32,1.08c0.23-0.07,0.44-0.13,0.66-0.2c-0.15,0.13-0.28,0.28-0.43,0.41c0.03,0.03,0.07,0.05,0.09,0.08
			c0.25-0.05,0.51-0.11,0.76-0.17c-0.23,0.08-0.46,0.16-0.68,0.24c1.26,1.72,2.53,3.45,3.79,5.16
			C306.47,106.31,306.71,106.17,306.95,106.04z"/>
		<path class="st32" d="M308,104.84c-0.43-3.92-0.86-7.82-1.28-11.72c-1,1.05-2.01,2.1-3.02,3.15c0.32,0.51,0.65,1.02,0.99,1.52
			c0.24-0.07,0.47-0.15,0.69-0.21c-0.18,0.17-0.35,0.33-0.52,0.51c0.03,0.03,0.04,0.08,0.07,0.11c0.25-0.05,0.52-0.11,0.79-0.17
			c-0.24,0.09-0.49,0.17-0.72,0.25c0.74,2.34,1.48,4.68,2.22,7.02C307.47,105.17,307.74,105,308,104.84z"/>
	</g>
</g>
</svg>
