<?xml version="1.0" encoding="utf-8"?>
<!-- Generator: Adobe Illustrator 24.1.2, SVG Export Plug-In . SVG Version: 6.00 Build 0)  -->
<svg version="1.1" id="Слой_1" xmlns="http://www.w3.org/2000/svg" xmlns:xlink="http://www.w3.org/1999/xlink" x="0px" y="0px"
	 viewBox="0 0 793.7 425.2" style="enable-background:new 0 0 793.7 425.2;" xml:space="preserve">
<style type="text/css">
	.st0{fill:#778E5B;}
	.st1{fill:#F8AF9E;}
	.st2{fill:#BB7269;}
	.st3{fill:#F4C6BD;}
	.st4{fill:#F7D6D2;}
	.st5{fill:#F9E6E5;}
	.st6{fill:#9D5E5A;}
	.st7{fill:#9D5E5B;}
	.st8{opacity:0.28;fill:#FFFFFF;}
</style>
<path class="st0" d="M407.26,360.26c12.65-8.43,33.28-20.53,60.77-29.09c40.34-12.57,56.05-5.25,88.57-19.4
	c8.82-3.84,39.11-17.43,61.42-47.84c24.93-33.99,14.1-53.81,43.32-87.93c14.81-17.29,21.92-17.26,32.97-34.27
	c15.07-23.19,17.97-48.07,18.1-65.3c-1.69,12.49-4.23,22.77-6.47,30.39c-2.69,9.15-4.7,15.82-9.27,24.14
	c-4.94,8.99-10.33,15.28-13.15,18.53c-1.97,2.28-3.05,3.35-13.15,13.15c-16.8,16.31-17.69,17.09-19.61,19.83
	c-3.34,4.75-5.68,10.35-10.34,21.55c-2.78,6.66-3,7.87-8.62,22.84c-4.96,13.22-7.49,19.9-9.48,23.71
	c-5.22,9.95-10.96,16.46-15.52,21.55c-3.19,3.57-14.81,16.17-34.05,27.37c-15.55,9.05-29.11,13.13-34.7,14.65
	c-16.76,4.58-21.74,2.59-42.02,6.25c-18.54,3.35-32.19,8.23-39.22,10.78c-14.49,5.25-35.37,14.51-58.4,31.25
	C401.37,361.69,404.32,360.98,407.26,360.26z"/>
<path class="st0" d="M372.16,360.26c-11.44-8.43-30.09-20.53-54.95-29.09c-36.48-12.57-50.69-5.25-80.09-19.4
	c-7.98-3.84-35.37-17.43-55.54-47.84c-22.54-33.99-12.75-53.81-39.17-87.93c-13.39-17.29-19.82-17.26-29.82-34.27
	c-13.62-23.19-16.25-48.07-16.37-65.3c1.53,12.49,3.82,22.77,5.85,30.39c2.43,9.15,4.25,15.82,8.38,24.14
	c4.46,8.99,9.34,15.28,11.89,18.53c1.78,2.28,2.76,3.35,11.89,13.15c15.19,16.31,15.99,17.09,17.73,19.83
	c3.02,4.75,5.13,10.35,9.35,21.55c2.51,6.66,2.71,7.87,7.79,22.84c4.49,13.22,6.77,19.9,8.57,23.71
	c4.72,9.95,9.91,16.46,14.03,21.55c2.89,3.57,13.39,16.17,30.79,27.37c14.07,9.05,26.32,13.13,31.37,14.65
	c15.15,4.58,19.66,2.59,38,6.25c16.76,3.35,29.11,8.23,35.47,10.78c13.1,5.25,31.98,14.51,52.81,31.25
	C377.49,361.69,374.82,360.98,372.16,360.26z"/>
<path class="st0" d="M95.88,70.13c1.51-1.27,18.99-16.4,15.58-35.52c-0.85-4.75-2.8-8.71-4.96-11.87c-3.47,1.78-7.49,4.6-10.64,9.06
	C84.62,47.73,95.4,69.2,95.88,70.13z"/>
<path class="st0" d="M114.15,98.11c2.03-1.19,25.54-15.48,25.34-38.59c-0.05-5.74-1.55-10.78-3.47-14.91
	c-4.42,1.4-9.7,3.91-14.28,8.52C105.38,69.59,113.77,96.92,114.15,98.11z"/>
<path class="st0" d="M129.13,137.03c2.28-1.26,28.76-16.36,29.24-41.95c0.12-6.36-1.39-11.99-3.38-16.62
	c-4.94,1.42-10.86,4.04-16.07,8.99C120.29,105.18,128.74,135.7,129.13,137.03z"/>
<path class="st0" d="M153.16,172.73c2.36-1.47,29.75-19.13,28.8-46.47c-0.24-6.79-2.17-12.71-4.57-17.54
	c-5.19,1.8-11.36,4.94-16.64,10.53C141.88,139.24,152.67,171.34,153.16,172.73z"/>
<path class="st0" d="M172.17,209.5c2.72-1.25,34.34-16.38,37.02-45.7c0.67-7.28-0.6-13.86-2.5-19.34
	c-5.78,1.22-12.79,3.73-19.18,8.99C164.67,172.23,171.83,207.94,172.17,209.5z"/>
<path class="st0" d="M192.48,256.63c3.03-1.55,38.24-20.22,39.92-53.64c0.42-8.3-1.33-15.72-3.74-21.85
	c-6.51,1.65-14.36,4.83-21.37,11.1C182.22,214.65,192.02,254.88,192.48,256.63z"/>
<path class="st0" d="M229.6,293.25c3.19-1.89,40.26-24.54,39.85-61.01c-0.1-9.06-2.49-17.01-5.53-23.53
	c-6.97,2.23-15.3,6.22-22.51,13.5C215.64,248.26,228.99,291.37,229.6,293.25z"/>
<path class="st0" d="M92.61,102.58c-2.59,0.47-32.93,5.59-46.73-12.94c-3.43-4.6-5.09-9.67-5.83-14.3
	c4.93-1.98,11.32-3.69,18.33-3.24C83.45,73.72,92.25,101.36,92.61,102.58z"/>
<path class="st0" d="M102.36,144.06c-2.86,0.6-36.43,7.15-52.37-12.88c-3.96-4.97-5.97-10.51-6.94-15.6
	c5.41-2.34,12.46-4.41,20.27-4.12C91.23,112.51,101.91,142.73,102.36,144.06z"/>
<path class="st0" d="M124.13,180.34c-2.91,1.1-37.06,13.47-56.97-5.31c-4.94-4.66-7.94-10.24-9.77-15.51
	c5.3-3.36,12.37-6.7,20.6-7.64C107.43,148.5,123.45,178.99,124.13,180.34z"/>
<path class="st0" d="M150.19,218.07c-2.98,1.61-38.12,19.97-62.58,3.52c-6.07-4.09-10.18-9.44-12.96-14.65
	c5.24-4.35,12.38-8.97,21.17-11.26C127.22,187.47,149.25,216.77,150.19,218.07z"/>
<path class="st0" d="M172.77,261.68c-3.25,2.04-41.61,25.34-70.36,8.19c-7.14-4.26-12.15-10.09-15.66-15.86
	c5.6-5.32,13.34-11.06,23.09-14.27C144.69,228.28,171.61,260.26,172.77,261.68z"/>
<path class="st0" d="M202.09,308.07c-3.32,2.49-42.58,31.08-75.12,14.6c-8.08-4.09-14-10.08-18.3-16.11
	c5.56-6.27,13.39-13.18,23.61-17.48C168.82,273.74,200.72,306.61,202.09,308.07z"/>
<path class="st0" d="M246.02,329.02c-1.51,3.87-19.83,48.85-56.17,51.97c-9.03,0.78-17.21-1.2-24.04-4.06
	c1.42-8.26,4.44-18.26,10.87-27.29C199.66,317.35,244.09,328.5,246.02,329.02z"/>
<path class="st0" d="M442.37,213.67c-1.51,3.87-19.83,48.85-56.17,51.97c-9.03,0.78-17.21-1.2-24.04-4.06
	c1.42-8.26,4.44-18.26,10.87-27.29C396.01,202,440.44,213.15,442.37,213.67z"/>
<path class="st0" d="M304.52,343.38c-0.24,4.15-3.72,52.59-37.31,66.81c-8.34,3.53-16.74,4.19-24.12,3.59
	c-1.21-8.3-1.43-18.73,1.88-29.31C256.82,346.65,302.52,343.49,304.52,343.38z"/>
<path class="st0" d="M269.37,306.02c-0.07-4.15-0.18-52.72,32.26-69.39c8.06-4.14,16.38-5.42,23.79-5.36
	c1.82,8.19,2.82,18.58,0.29,29.37C316.69,299.23,271.35,305.77,269.37,306.02z"/>
<path class="st0" d="M329.8,309.19c0.5-4.12,7.06-52.24,41.48-64.3c8.55-3,16.97-3.12,24.3-2.04c0.67,8.36,0.24,18.79-3.74,29.13
	C377.61,308.96,331.81,309.21,329.8,309.19z"/>
<path class="st0" d="M713.37,70.61c-1.54-1.27-19.31-16.4-15.85-35.52c0.86-4.75,2.84-8.71,5.04-11.87
	c3.52,1.78,7.61,4.6,10.81,9.06C724.82,48.21,713.86,69.68,713.37,70.61z"/>
<path class="st0" d="M697.65,100.49c-2.06-1.19-25.97-15.48-25.76-38.59c0.05-5.74,1.58-10.78,3.52-14.91
	c4.5,1.4,9.86,3.91,14.52,8.52C706.57,71.98,698.04,99.31,697.65,100.49z"/>
<path class="st0" d="M680.52,135.6c-2.32-1.26-29.24-16.36-29.74-41.95c-0.12-6.36,1.41-11.99,3.44-16.62
	c5.02,1.42,11.05,4.04,16.34,8.99C689.5,103.75,680.91,134.27,680.52,135.6z"/>
<path class="st0" d="M654.17,162.71c-2.4-1.47-30.25-19.13-29.28-46.47c0.24-6.79,2.21-12.71,4.65-17.54
	c5.28,1.8,11.55,4.94,16.92,10.53C665.64,129.22,654.67,161.32,654.17,162.71z"/>
<path class="st0" d="M633.89,197.57c-2.76-1.25-34.92-16.38-37.64-45.7c-0.68-7.28,0.61-13.86,2.54-19.34
	c5.88,1.22,13.01,3.73,19.5,8.99C641.51,160.31,634.23,196.02,633.89,197.57z"/>
<path class="st0" d="M614.19,243.75c-3.08-1.55-38.89-20.22-40.59-53.64c-0.42-8.3,1.35-15.72,3.81-21.85
	c6.62,1.65,14.6,4.83,21.73,11.1C624.63,201.77,614.66,242,614.19,243.75z"/>
<path class="st0" d="M576.45,284.18c-3.25-1.89-40.93-24.54-40.52-61.01c0.1-9.06,2.53-17.01,5.62-23.53
	c7.09,2.23,15.56,6.22,22.89,13.5C590.64,239.2,577.07,282.31,576.45,284.18z"/>
<path class="st0" d="M715.73,103.05c2.63,0.47,33.49,5.59,47.51-12.94c3.48-4.6,5.18-9.67,5.92-14.3
	c-5.01-1.98-11.51-3.69-18.64-3.24C725.06,74.2,716.11,101.84,715.73,103.05z"/>
<path class="st0" d="M705.83,144.54c2.91,0.6,37.05,7.15,53.25-12.88c4.02-4.97,6.08-10.51,7.06-15.6
	c-5.51-2.34-12.67-4.41-20.61-4.12C717.14,112.98,706.28,143.21,705.83,144.54z"/>
<path class="st0" d="M679.87,180.81c2.95,1.1,37.68,13.47,57.93-5.31c5.03-4.66,8.08-10.24,9.93-15.51
	c-5.39-3.36-12.57-6.7-20.95-7.64C696.86,148.98,680.56,179.47,679.87,180.81z"/>
<path class="st0" d="M649.55,214.73c3.03,1.61,38.76,19.97,63.63,3.52c6.18-4.09,10.35-9.44,13.18-14.65
	c-5.33-4.35-12.59-8.97-21.52-11.26C672.92,184.13,650.51,213.43,649.55,214.73z"/>
<path class="st0" d="M633.28,262.16c3.31,2.04,42.31,25.34,71.54,8.19c7.26-4.26,12.35-10.09,15.92-15.86
	c-5.7-5.32-13.56-11.06-23.48-14.27C661.83,228.76,634.45,260.74,633.28,262.16z"/>
<path class="st0" d="M598.69,301.87c3.38,2.49,43.29,31.08,76.38,14.6c8.22-4.09,14.24-10.08,18.61-16.11
	c-5.66-6.27-13.61-13.18-24.01-17.48C632.52,267.54,600.08,300.41,598.69,301.87z"/>
<path class="st0" d="M552.11,326.63c1.54,3.87,20.16,48.85,57.11,51.97c9.18,0.78,17.5-1.2,24.45-4.06
	c-1.45-8.26-4.52-18.26-11.05-27.29C599.26,314.97,554.08,326.11,552.11,326.63z"/>
<path class="st0" d="M496.45,335.27c0.24,4.15,3.78,52.59,37.93,66.81c8.48,3.53,17.02,4.19,24.52,3.59
	c1.23-8.3,1.46-18.73-1.91-29.31C544.95,338.54,498.48,335.38,496.45,335.27z"/>
<path class="st0" d="M534.1,301.72c0.07-4.15,0.18-52.72-32.8-69.39c-8.19-4.14-16.66-5.42-24.19-5.36
	c-1.85,8.19-2.86,18.58-0.3,29.37C485.98,294.93,532.08,301.47,534.1,301.72z"/>
<path class="st0" d="M479.32,312.53c-0.51-4.12-7.18-52.24-42.18-64.3c-8.69-3-17.26-3.12-24.71-2.04
	c-0.69,8.36-0.24,18.79,3.8,29.13C430.71,312.3,477.29,312.55,479.32,312.53z"/>
<path class="st1" d="M387.09,344.52c2.21-0.78,4.23-2.23,7.75-6.98c3.93-5.29,5.57-9.08,7.57-12.78c3.82-7.07,4.75-6.09,13.72-18.93
	c7.14-10.21,5.72-9.65,9.46-14.2c7-8.5,11.29-9.67,17.51-16.09c4.23-4.37,9.47-11.3,13.25-22.24c4.36,2.12,10.62,4.74,18.46,6.63
	c18.76,4.51,33.89,1.75,37.86,0.95c16.66-3.37,28.41-10.97,34.55-15.62c2.58-3.51,5.48-8.08,8.04-13.72
	c2.31-5.09,3.78-9.79,4.73-13.72c3.65,0.91,9.05,1.93,15.62,1.89c18.9-0.1,31.99-8.79,36.44-11.83c6.44-4.41,12.72-8.83,15.14-17.04
	c1.25-4.21,1.06-7.99,0.71-10.47c2.08-1.37,5.21-3.78,7.99-7.63c1.67-2.31,4.14-5.73,4.79-10.65c0.91-6.85-2.27-12.26-3.55-14.2
	c1.11-0.49,3.03-1.51,4.61-3.55c2.44-3.13,2.49-6.61,2.48-8.16c0-3.47-1.16-6.01-1.77-7.45c-3.9-9.08-2.11-10.62-5.68-19.52
	c-1.49-3.71-3.79-7.43-8.34-14.73c-5.75-9.22-10.18-16.33-17.33-25.02c-5.87-7.13-8.81-10.7-13.96-14.43
	c-7.36-5.33-14.66-7.78-19.64-8.99c-3.92-7.59-8.78-11.54-11.71-13.49c-5.3-3.53-11.2-5.13-17.75-6.92
	c-0.43-0.12-0.21-0.05-7.99-1.95c-12.15-2.97-11.93-2.94-13.13-3.19c-10.63-2.28-10.33-0.84-16.15-2.66
	c-8.31-2.6-7.46-5.08-13.75-6.21c-6.44-1.16-8.3,1.26-17.04,0.44c-3.58-0.34-4.14-0.83-10.38-2.22c-9.85-2.2-16.59-3.7-23.42-3.31
	c-4.34,0.25-11.1,1.39-19.17,6.15c-1.67-0.89-4.25-2.08-7.57-2.84c-6.44-1.46-11.75-0.39-14.67,0.24
	c-21.65,4.65-36.91,10.41-36.91,10.41c-10.81,4.08-19.3,7.82-27.62,12.07c-11.05,5.64-16.13,9.28-20.41,14.73
	c-3.67,4.68-5.65,9.28-6.74,12.42c-3.37,1.57-7.99,4.04-12.95,7.81c-3.65,2.77-8.02,6.08-11.71,11.36
	c-5.1,7.29-6.72,15.16-7.1,21.12c-4.76,2.07-9.62,5.29-12.78,10.47c-2.69,4.41-1.31,5.6-4.61,12.07c-3.62,7.08-6.33,7.72-8.7,14.37
	c-1.54,4.32-0.52,4.39-2.13,8.52c-2.69,6.88-5.58,6.85-7.45,12.24c-0.68,1.95-0.57,5.98-0.35,14.02c0.17,6.5,0.5,7.96,0.35,12.6
	c-0.14,4.56-0.53,5.91-0.89,10.12c-0.89,10.59-1.57,18.63,2.66,25.38c1.18,1.89,3.36,4.64,7.45,7.1c0.1,3.24,0.93,5.52,1.6,6.92
	c1.36,2.86,2.34,2.67,9.23,9.76c1.39,1.43,2.95,3.08,5.5,4.79c2.52,1.69,3.89,2.02,4.44,2.13c2.63,0.54,4.88-0.22,6.03-0.71
	c0.85,0.53,1.97,1.09,3.37,1.42c4.33,1.02,7.97-0.95,9.05-1.6c-0.99,2.9-2.3,8.08-1.42,14.37c0.89,6.32,3.54,10.57,6.21,14.73
	c2.84,4.43,7.89,12.31,17.92,17.21c2.39,1.17,8.62,4.13,16.68,4.08c4.31-0.03,6.74-0.9,14.2-1.24c4.22-0.19,7.68-0.1,9.94,0
	c0.54,1.38,1.57,3.32,3.55,4.61c2.22,1.46,4.44,1.32,10.65,1.06c1.92-0.08,5.31-0.21,9.76-0.35c-0.09,2-0.32,4.54-0.89,7.45
	c-0.64,3.3-1.56,7.99-4.44,12.95c-2.04,3.52-2.86,3.37-4.08,6.39c-0.9,2.24-2.43,6.01-0.71,9.23c1.29,2.41,3.77,3.32,5.86,4.08
	C378.46,344.58,382.63,346.11,387.09,344.52z"/>
<path class="st2" d="M597.38,103.18c-0.02-0.93,4.64-1.9,8.16-2.13c2.58-0.17,7.29-0.42,12.42,2.13c3.19,1.58,5.16,3.55,6.3,4.72
	c4.33,4.41,5.8,9.1,6.09,10.07c0.01,0.02,0.02,0.06,0.03,0.11c0.37,1.28,1.49,5.51,0.59,10.88c-0.48,2.9-1.42,5.33-2.37,7.22
	c2.13,3.08,4.26,6.15,6.39,9.23c-1.17-0.07-2.33-0.14-3.5-0.21c-1.01-1.98-2.55-4.19-4.67-4.41c-2.33-0.24-3.87,2.07-4.97,1.42
	c-1.56-0.93,0.15-6.43,0.35-7.1c1.25-4.04,2.57-4.85,3.55-7.45c1.62-4.3,0.93-9.76-1.42-13.49c-2.73-4.33-7.34-5.77-13.84-7.81
	C602.78,103.95,597.41,104.18,597.38,103.18z"/>
<path class="st2" d="M469.45,25.67c-2.8,4.19-4.01,8.01-4.58,10.43c-0.35,1.49-0.75,3.24-0.76,5.6c-0.02,3.66,0.91,4.35,1.27,8.9
	c0.32,3.99-0.35,4.16,0.25,6.61c0.49,2.01,1.04,2.31,3.31,6.61c1.4,2.65,2.6,4.92,3.56,7.63c1.02,2.85,0.9,3.74,1.78,7.63
	c1.53,6.76,2.43,6.47,3.56,11.96c1.76,8.51,0.05,11.37-0.51,12.21c-0.87,1.29-1.93,2.1-2.67,2.58c0.23-1.83,0.51-4.74,0.48-8.3
	c-0.03-2.56-0.31-14.12-6.11-27.57c-2.51-5.82-5.64-11.04-6.2-15.3c-0.19-1.47-0.21-3.83-1.53-6.49c-0.32-0.66-0.75-1.37-1.02-2.54
	c-0.13-0.54-0.33-1.64-0.03-4.1c0.15-1.23,0.35-2.87,1.05-4.96c0.46-1.37,1.51-4.43,4.2-7.47
	C466.38,28.12,467.66,26.86,469.45,25.67z"/>
<path class="st2" d="M415.89,29.61c1.59-0.07,3.98-0.44,5.92-2.1c2.65-2.27,2.13-4.95,4.58-6.3c2.21-1.21,3.59,0.45,7.06,0
	c3.97-0.51,4.23-2.95,8.59-4.96c5.61-2.6,6.67,0.75,14.12-1.72c2.96-0.98,5.32-2.35,9.73-2.67c1.51-0.11,2.77-0.06,3.63,0
	c-5.65-3.25-8.63-2.98-10.3-2.1c-1.23,0.65-2.32,1.92-4.77,2.48c-1.15,0.26-1.3,0.07-3.63,0.19c-3.12,0.16-5.47,0.63-7.06,0.95
	c-2.31,0.47-3.46,0.71-4.77,1.34c-2.35,1.13-2.3,1.96-4.01,2.86c-3.85,2.04-6.32-0.99-9.73,0.95c-0.52,0.29-1.74,1.72-4.2,4.58
	c-1.71,1.99-2.19,2.7-3.43,3.43c-1.57,0.93-3.08,1.15-4.39,1.34c-1.89,0.27-3.53,0.18-4.77,0
	C410.93,28.47,413.41,29.04,415.89,29.61z"/>
<path class="st2" d="M430.27,251.34c0.89,2.52,0.64,4.24,0.25,5.34c-0.6,1.7-1.49,1.81-5.09,5.85c-1.89,2.12-2.9,3.5-3.31,4.07
	c-0.51,0.71-1.43,2-2.29,3.56c-2.18,3.98-1.83,5.86-4.42,11.76c-0.32,0.72-0.55,1.25-0.92,1.98c-0.6,1.17-2.28,4.42-4.83,6.87
	c-2.38,2.29-2.9,1.35-6.61,4.07c-2.93,2.15-4.78,4.33-5.85,5.6c-0.94,1.12-2.97,3.67-4.83,7.38c-1.39,2.76-2.07,4.94-2.29,5.6
	c-1.17,3.53-4.11,9.35-11.96,19.4c0.86-0.41,2.12-0.9,3.72-1.14c1.61-0.24,2.97-0.14,3.91,0c0.76-1.02,1.89-2.67,2.96-4.87
	c2.52-5.17,1.83-7.53,3.66-12.88c0.66-1.93,2.28-6.54,6.11-10.94c1.56-1.79,3.67-3.48,7.89-6.87c5.88-4.72,5.76-4.04,7.12-5.6
	c3.04-3.48,2.23-5.27,5.85-13.23c2.18-4.79,3.27-7.18,5.34-9.67c4.17-5,7.8-5.65,8.4-9.16
	C433.52,255.77,431.87,253.19,430.27,251.34z"/>
<path class="st2" d="M342.87,146.65c0.44,3.36,1.51,8.25,4.33,13.48c2.94,5.46,6.42,8.76,7.25,9.54c2.98,2.79,3.5,2.24,8.78,6.11
	c6.74,4.94,6.99,6.63,11.83,9.16c2.44,1.27,4.42,1.87,8.4,3.05c7.77,2.32,11.65,3.48,15.65,2.67c6.17-1.24,6.18-5.09,11.07-4.96
	c4.39,0.11,5.32,3.25,11.83,4.2c1.17,0.17,1.78,0.16,7.25,0c9.83-0.29,9.96-0.71,12.21-0.38c6.16,0.89,5.6,4.36,12.69,6.96
	c5.94,2.19,11.98,1.83,18.6,1.43c4.43-0.26,6.39-0.81,9.92,0c4.03,0.93,5.39,2.49,9.29,4.58c2.46,1.32,13.52,7.26,23.79,3.94
	c2.9-0.94,5.08-2.4,6.51-3.54c-5.64,1.57-10.36,1.59-13.38,1.38c-3.55-0.25-11.49-0.92-18.83-6.61c-3.09-2.4-5.13-4.95-6.36-6.74
	c-2.29,0.42-4.58,0.85-6.87,1.27c-4.6,0.66-8.45,0.59-11.19,0.38c-6.74-0.52-12.8-0.99-16.79-5.22c-1.55-1.64-2.04-4.09-3.94-4.33
	c-1.32-0.16-2.21,0.78-3.63,1.68c-2.55,1.61-4.85,1.87-9.06,2.33c-1.92,0.21-6.33,0.65-11.48-0.83c-4.4-1.26-5.08-2.71-10.18-3.75
	c-2.56-0.52-4.35-0.87-6.42-0.19c-3.61,1.18-3.21,3.88-6.11,4.9c-3.28,1.15-5.18-1.8-13.87-3.94c-3.51-0.87-2.87-0.3-4.9-0.95
	c-5.62-1.81-7.56-5.19-14.88-11.07c-3.69-2.95-3.1-2.02-5.85-4.33c-3.46-2.9-9.73-8.26-13.48-17.17c-0.94-2.23-2.08-5.54-2.67-9.8
	C342.54,142.15,342.71,144.4,342.87,146.65z"/>
<path class="st2" d="M561.29,195.62c-3.25-0.56-6.52,1.03-8.14,3.31c-1.35,1.89-0.58,2.88-1.53,6.87c-0.36,1.53-1.37,5.76-4.07,8.9
	c-2.41,2.8-5.34,3.78-9.41,5.09c-8.88,2.84-11.12,0.31-14.25,3.05c-3.77,3.3-0.96,7.35-5.85,12.72c-1.63,1.79-2.38,1.83-5.6,5.09
	c-2.71,2.75-4.32,4.9-5.09,5.85c-2.25,2.79-6.32,6.47-14.25,9.92c3.53-0.91,7.06-1.81,10.59-2.72c3.89-3.77,7.14-6.76,9.39-8.8
	c4.72-4.27,5.4-4.67,6.81-6.55c3.28-4.4,2.58-6.34,5.79-9.67c2.72-2.82,5.79-4.1,7.12-4.58c5.79-2.08,7.8,0.57,12.47-1.27
	c5.88-2.33,8.43-8.82,8.65-9.41c2.07-5.49-0.35-8.52,2.04-11.96c2.08-2.99,6.08-3.83,9.16-4.07
	C564.43,196.84,563.13,195.94,561.29,195.62z"/>
<path class="st2" d="M307.57,87.81c2.5,0.51,4.41,0.9,6.43,0.11c1.49-0.59,2.4-1.57,3.88-3.16c1-1.08,1.47-1.82,2.48-3.24
	c1.99-2.81,3.09-4.35,4.1-5.39c2.57-2.63,3.91-1.3,8.68-3.96c3.48-1.94,3.34-2.96,8.92-6.68c2.19-1.46,3.28-2.18,4.34-2.67
	c6.57-3.03,10.43,0.67,19.65-0.69c3.14-0.46,5.7-1.34,9.83-2.75c4.22-1.44,5.71-2.31,9.78-3.34c1.82-0.46,4.25-1.07,7.49-1.34
	c0.87-0.07,3.18-0.23,8.92,0.24c2.71,0.22,6.32,0.6,10.59,1.27c0.47-0.78,1.73-3.09,1.48-6.23c-0.23-2.9-1.61-4.86-2.19-5.6
	c-0.2,0.35-0.5,0.89-0.87,1.55c-2.51,4.54-2.35,4.87-2.96,5.44c-1.91,1.78-4.83-0.27-10.11-0.38c-0.81-0.02-1.7,0.01-9.54,1.91
	c-5.91,1.43-9.32,2.36-15.07,3.82c-6.13,1.55-9.22,2.33-10.69,2.48c-6.09,0.63-11.27-0.57-14.88-1.79
	c-0.22-0.24-0.55-0.58-0.95-0.97c-0.98-0.94-1.48-1.42-1.86-1.34c-0.33,0.07-0.38,0.38-1.1,1.43c-0.33,0.49-0.63,0.87-0.82,1.11
	c-0.09,1.13-0.43,2.96-1.71,4.61c-0.43,0.56-1.06,1.21-3.63,2.72c-2.53,1.49-4.05,2.13-6.25,3.24c-2.28,1.16-3.74,1.9-5.34,3.01
	c-1.47,1.01-5.67,3.91-8.75,8.97c-1.16,1.91-1.61,3.23-3.24,4.07c-1.43,0.74-2.47,0.45-4.83,0.76c-1.41,0.19-3.38,0.6-5.7,1.61
	C304.55,86.99,305.89,87.47,307.57,87.81z"/>
<path class="st2" d="M376.08,112.68c1.63-2.48,4.29-5.63,8.4-7.38c7.9-3.37,13.11,1.87,25.44,0.51c7.41-0.82,5.6-2.71,14.76-4.07
	c11.18-1.66,16.77,0.74,21.37-3.56c1.5-1.4,2.82-3.45,6.11-5.09c3.11-1.55,5.63-1.56,5.6-2.04c-0.04-0.59-3.93-1.77-7.44-0.38
	c-3.72,1.47-3.39,4.39-7.12,6.42c-1.5,0.81-2.58,0.9-9.8,1.08c-10.49,0.26-9.84,0.11-11,0.25c-7.93,0.96-7.82,4.02-14.25,4.58
	c-6.3,0.55-7.88-2.26-15.01-2.29c-5.35-0.03-9.7,1.53-12.47,2.8C379.13,106.58,377.6,109.63,376.08,112.68z"/>
<path class="st2" d="M250.89,178.31c2.44-2.52,2.98-4.72,4.15-6.77c2.08-3.63,3.83-2.78,6.12-6c2.11-2.97,1.01-4.22,2.66-11.31
	c0.79-3.38,2.11-6.67,4.77-13.26c2.18-5.4,2.85-6.37,4.05-7.16c2.92-1.89,5.29-0.27,8.35-2.48c2.12-1.53,1.87-2.95,3.82-5.15
	c1.49-1.68,4.13-3.69,9.16-4.58c-0.68-0.26-1.36-0.52-2.05-0.78c-0.82,0.09-1.97,0.25-3.32,0.59c-1.9,0.49-4,1.03-5.96,2.51
	c-2.09,1.57-1.6,2.38-4.26,4.45c-1.26,0.98-2.55,1.72-3.21,2.1c-1.43,0.82-1.69,0.83-3.5,1.78c-2.39,1.26-3.59,1.89-4.39,2.74
	c-1.2,1.27-1.72,2.65-2.19,3.91c-0.46,1.22-0.46,1.68-1.02,4.01c-0.27,1.13-0.6,2.3-1.26,4.64c-1.46,5.2-1.48,4.59-1.91,6.49
	c-0.68,3.06-0.31,3.26-1.14,7.11c-0.7,3.22-1.23,4.32-2,5.25c-0.91,1.1-1.22,0.84-2.86,2.39c-1.89,1.78-2.94,3.49-3.48,4.39
	c-0.73,1.21-1.37,2.3-1.77,3.91c-0.26,1.07-0.32,2-0.32,2.66C249.7,179.43,250.26,178.95,250.89,178.31z"/>
<path class="st2" d="M391.16,152.43c-0.13-1.01-0.14-2.4,0.69-3.41c1-1.22,2.23-0.67,4.33-1.61c2.47-1.11,2.3-2.56,5.66-5.06
	c1.67-1.24,2.5-1.86,3.63-2.13c3.83-0.93,5.59,3.24,9.99,4.26c7.27,1.69,12.79-7.31,17.49-4.74c1.47,0.8,0.83,1.63,3.08,4.42
	c3.69,4.56,8.6,6.29,11.45,7.28c1.98,0.7,7.18,2.52,10.26,1.43c0.26-0.09,1.13-0.42,2.34-0.48c1.78-0.08,3.14,0.51,3.63,0.72
	c3.05,1.31,5.98,4.88,7.44,6.3c2.49,2.41,7.69,3.14,17.98,4.48c6.27,0.82,9.41,1.23,12.74,1.19c9.64-0.11,15.25-2.54,19.03,0.24
	c3.66,2.68,4.67,5.06,4.67,5.06c0.33,0.78,0.43,1.33,1,1.86c1.66,1.54,3.99-0.11,5.96,0.52c3.67,1.18,1.48,8.76,6.12,14.96
	c3.16,4.23,7.85,5.59,10.43,6.36c2.51,0.75,6.87,2.06,9.99-0.25c1-0.74,1.61-1.66,1.97-2.35c-1.07,0.38-2.67,0.83-4.64,0.89
	c-4.64,0.13-8.01-2.02-10.05-3.31c-3.92-2.49-6.01-5.5-7.19-7.24c-2.17-3.19-3.77-5.55-3.29-8.25c0.66-3.74,4.85-5.6,4.44-6.3
	c-0.58-0.97-7.68,4.25-12.26,1.77c-2.2-1.2-1.36-2.84-4.15-5.15c-3.81-3.15-7.58-1.91-8.87-4.44c-0.46-0.9-0.26-1.59,0.8-5.37
	c3.27-11.73,3.35-12.25,4.21-14.15c0.88-1.94,1.47-3.26,2.65-5.9c1.36-3.05,2.15-4.88,1.63-6.68c-0.1-0.35-0.33-0.99-0.41-1.96
	c-0.03-0.37-0.08-1.36,0.25-2.73c0.42-1.71,1.78-5.46,3.95-10.27c-1.07,0.45-2.61,1.28-3.92,2.79c-2.42,2.81-2.55,6.27-2.66,8.01
	c-0.3,4.85-1.79,10.85-4.78,22.85c-2.42,9.71-3.25,8.85-3.63,11.02c-0.06,0.35-0.26,1.63-1.22,2.74c0,0-0.45,0.53-1.07,0.93
	c-6.7,4.36-25.66-0.52-25.66-0.52c-2.5-0.64-6.18-1.67-10.59-3.2c0,0-4.05-1.98-8.43-6.69c-0.36-0.38-0.99-1.12-1.05-2.13
	c-0.04-0.75,0.25-1.32,0.38-1.59c1.54-3.12,1.05-4.13,3.21-7.92c0.71-1.25,1.43-2.3,1.81-2.86c1.11-1.62,1.66-2.43,1.97-2.77
	c0.75-0.82,1.41-1.33,1.59-2.32c0.01-0.07,0.16-0.95-0.13-1.08c-0.1-0.05-0.43-0.09-2.48,2.64c-1.1,1.47-1.66,2.2-2.29,3.28
	c-1.18,2-1,2.31-1.88,3.24c-0.82,0.87-1.2,0.84-2.1,1.91c-0.85,1.01-1.28,1.94-1.37,2.13c-0.58,1.29-0.31,1.54-0.86,2.74
	c-0.26,0.56-0.73,1.58-1.72,2.29c-0.71,0.51-1.51,0.73-2.83,0.83c-2.94,0.21-5.32-0.46-5.92-0.64c-2.01-0.59-3.84-1.38-6.58-2.89
	c-5.63-3.12-8.45-4.68-9.54-7.19c-0.42-0.97-0.56-2.72-0.83-6.23c-0.24-3.06-0.13-4.79-1.14-7.12c-0.46-1.06-1.28-2.94-2.48-2.99
	c-0.68-0.03-1.2,0.54-3.31,3.24c-0.99,1.27-1.83,2.37-2.48,3.24c0.83-0.54,1.92-1.35,2.99-2.54c1.36-1.52,1.99-2.86,2.74-2.74
	c0.47,0.08,0.75,0.71,0.95,1.34c1.94,5.79-0.76,10.24-0.76,10.24c-0.17,0.28-1,1.62-2.54,2.93c-2.61,2.2-5.38,2.74-7.31,3.12
	c-1.72,0.33-3.99,0.77-6.74,0.13c-1.12-0.26-2.42-0.83-5.02-1.97c-3.49-1.53-3.59-1.81-4.58-1.84c-2.31-0.08-4.21,1.38-5.72,2.54
	c-0.9,0.7-1.72,1.51-3.34,3.15c-1.72,1.73-1.99,2.18-2.99,2.67c-0.55,0.27-1.28,0.53-2.39,1.21c-0.98,0.61-1.23,0.92-1.37,1.24
	c-0.13,0.3-0.22,0.73,0.1,2C390.31,150.31,390.61,151.3,391.16,152.43z"/>
<path class="st2" d="M524.36,115"/>
<path class="st2" d="M489.36,52.7c1.02,4.3,2.8,8.94,6.11,9.73c2.04,0.49,3.17-0.84,7.44-2.29c5.49-1.87,10.14-1.89,12.59-1.91
	c5.28-0.03,4.98,1.11,12.4,1.72c6.03,0.5,7.19-0.18,12.4,0.38c4.67,0.5,8.37,1.53,10.69,2.29c-0.47,0.16-2.95,1.05-3.63,3.24
	c-0.93,3.03,2.37,5.88,2.86,6.3c1.47,1.23,2.39,1.14,4.58,2.29c2.41,1.27,4.09,2.84,5.15,4.01c-3.85-1.12-6.95-2.31-9.16-3.24
	c-6.98-2.94-8.09-4.55-8.59-5.72c-0.88-2.08-0.42-4.23,0-5.53c-4.47,0-8.07-0.3-10.49-0.57c-6.45-0.72-9.02-1.7-13.74-0.95
	c-3.15,0.5-5.72,1.52-6.68,1.91c-4.41,1.78-6.11,3.6-10.3,4.2c-1.41,0.2-2.55,0.36-4.01,0c-4.11-1.02-6.14-5.03-6.68-6.11
	C488.16,58.17,489.03,54.02,489.36,52.7z"/>
<path class="st2" d="M562.06,75.03c0.85,0.15,2.33,0.42,3.99,1.05c2.8,1.06,4.62,2.6,5.93,3.72c3.67,3.15,5.59,6.55,6.23,7.76
	c0.44,0.83,0.59,1.23,3.12,9.41c1.91,6.19,2.31,7.53,3.24,9.92c0.61,1.56,1.4,3.55,2.67,6.11c2.58,5.18,3.59,5.45,4.01,7.82
	c0.67,3.85-1.77,4.36-1.53,8.21c0.32,5.07,4.69,6.29,6.11,12.02c0.83,3.36,0.18,6.38-0.38,8.21c-0.16-1.86-0.67-4.84-2.48-7.82
	c-3.57-5.88-8.85-6.22-9.54-10.3c-0.63-3.76,3.67-4.46,4.01-9.54c0.22-3.4-1.66-3.76-6.11-14.12c-1.48-3.44-2.62-6.55-2.93-7.38
	c-1.96-5.37-1.82-5.94-2.86-8.33c-2.34-5.36-5.82-8.74-7.19-10.05c-4.14-3.95-8.45-6-11.26-7.06
	C558.35,74.62,560.06,74.68,562.06,75.03z"/>
<path class="st2" d="M552.39,183.54c2.21,0.48,6.32,1.04,11.07-0.38c2.35-0.7,5.63-1.68,8.14-4.58c1.45-1.67,1.32-2.45,4.07-6.11
	c1.49-1.99,2.27-3,3.56-3.94c0.8-0.59,2.99-2.14,6.11-2.29c0.28-0.01,5.45-0.21,7.51,2.67c2.18,3.06,0.7,9.38-5.09,13.87
	c0.61-1.2,1.47-3.22,1.78-5.85c0.3-2.55,0.59-5.06-1.02-6.61c-1.93-1.86-5.19-1-5.6-0.89c-2.99,0.83-4.45,3.49-4.83,4.2
	c-0.93,1.71-0.48,2.19-1.4,3.82c-1.02,1.81-2.44,2.74-4.33,3.94c-1.17,0.75-3.72,2.25-7.76,3.43c-4.08,1.19-6.68,1.96-9.41,0.76
	C553.88,185,552.97,184.17,552.39,183.54z"/>
<path class="st2" d="M273.8,176.41c0.56,0.41,1.46,1.18,2.16,2.42c0.26,0.45,1.6,2.79,0.89,5.22c-0.19,0.63-0.3,0.54-2.16,3.43
	c-0.9,1.4-1.35,2.09-1.65,2.67c-1.04,1.97-1.42,3.71-1.65,4.83c-0.78,3.72,0.03,4.5-0.76,5.72c-0.69,1.06-2.4,2.15-7.12,1.78
	c1.24-0.17,3.26-0.66,4.58-2.29c0.5-0.62,0.78-1.25,1.53-4.71c1.12-5.17,0.79-5.13,1.4-6.49c1.03-2.29,1.92-2.28,2.93-4.96
	c0.74-1.98,0.76-3.34,0.76-3.69C274.69,178.59,274.17,177.2,273.8,176.41z"/>
<path class="st2" d="M248.93,164.71c-0.33-2.44,0.03-4.22,0.38-5.34c0.96-3.05,2.7-3.97,6.3-9.92c0.32-0.53,0.67-1.12,1.12-1.93
	c2.24-4.06,2.86-6.53,4.03-9.33c0.37-0.9,1.84-3.4,4.77-8.4c3.67-6.26,4.22-6.92,4.77-8.97c1.06-3.95-0.2-4.42,0.95-7.63
	c0.28-0.79,2.14-5.68,7.31-7.95c2.85-1.25,5.46-1.16,6.81-1.02c-3.16-0.93-5.45-0.53-6.68-0.19c-6.79,1.89-9.7,10.11-10.3,11.83
	c-1.21,3.41-0.54,4.14-2.1,7.25c-1.61,3.22-2.63,3.05-5.15,7.06c-2.46,3.92-3.69,7.58-4.01,8.59c-0.87,2.73-0.62,3.05-1.53,5.34
	c-0.29,0.72-0.91,2.19-3.63,6.49c-3.21,5.07-3.83,5.36-4.2,7.06C247.46,159.16,247.38,161.49,248.93,164.71z"/>
<path class="st2" d="M314.71,205.12c0.35-0.52,2.14-3.06,5.39-3.58c2.17-0.35,3.93,0.38,4.39,0.57c1.06,0.45,1.43,0.89,3.05,2.1
	c0,0,1.54,1.14,4.01,2.67c3.37,2.08,6.9,2.63,8.4,2.86c2.91,0.45,5.61,0.31,10.3-0.57c6.33-1.2,8.42-2.27,17.17-4.77
	c10.13-2.89,12.56-2.94,14.31-2.86c4.55,0.21,8.78,1.54,9.92,1.91c4.92,1.58,4.59,2.47,7.44,3.05c5.72,1.17,7.78-2.28,15.27-2.86
	c4.54-0.35,8.01,0.59,11.45,1.53c3.19,0.87,7.06,2.62,14.69,6.11c5.34,2.44,5.3,2.55,6.87,3.05c4.22,1.36,8.08,1.72,12.4,2.1
	c4.04,0.36,4.59,0.18,6.49,0.38c6.38,0.67,10.99,3.79,15.46,6.87c9.1,6.29,15.47,14.07,19.27,19.46c-1.19-1.17-2.96-2.83-5.25-4.67
	c-2.49-2.01-4.41-3.28-5.92-4.29c-10.73-7.21-10.82-8.14-15.93-10.78c-2.95-1.52-5.13-2.64-8.4-3.53
	c-6.42-1.74-8.53-0.26-14.41-1.24c-5-0.84-4.37-2.06-14.69-6.2c-7.74-3.1-11.61-4.65-15.74-4.77c-3.45-0.1-9.18,0.39-14.88,1.72
	c-2.38,0.55-3.48,0.95-5.53,0.95c-4.67,0-7.13-2.08-10.69-3.43c-4-1.52-7.69-1.21-15.07-0.57c-7.69,0.66-14.7,2.62-17.56,3.43
	c-3.38,0.96-5.48,1.74-9.16,2.1c-4.27,0.41-7.52-0.04-9.49-0.33c-5.56-0.82-8.34-1.23-10.11-3.34c-0.57-0.68-1.32-1.85-2.96-3.1
	c-0.48-0.36-1.64-1.25-2.91-1.67C318.93,202.28,315.44,204.61,314.71,205.12z"/>
<path class="st2" d="M312.85,283.52c2.26,1.23,5.62,2.78,9.92,3.75c1.29,0.29,3.72,0.77,7.82,0.95c5.4,0.24,8.34-0.28,14.82-0.89
	c7.4-0.7,13.14-0.93,16.79-1.08c3.64-0.15,6.94-0.2,13.55-0.32c11.62-0.2,13.35-0.07,16.66-1.14c3.74-1.21,2.15-1.56,10.18-5.28
	c5.24-2.43,8.3-3.38,11.64-6.55c1.71-1.62,2.85-3.22,3.56-4.33c-0.09,1.1-0.41,2.97-1.65,4.77c-1.14,1.65-2.53,2.51-4.71,3.82
	c-1.61,0.97-1.94,0.97-5.15,2.54c-1.67,0.82-3.88,1.9-6.04,3.18c-3.24,1.91-4.24,3-5.72,3.94c-3.5,2.21-6.48,1.54-15.27,1.27
	c-8.37-0.26-12.55-0.38-17.3,0.19c-5.13,0.62-8.98,0.36-14.12,1.02c-10.81,1.39-13.45,3.24-19.59,1.91
	c-3.93-0.85-7.44-2.6-8.33-3.05C316.87,286.68,314.52,284.94,312.85,283.52z"/>
<path class="st2" d="M296.63,254.97c1.35-1.46,3.74-3.6,7.25-4.77c3.01-1,5.7-0.91,9.54-0.38c11.63,1.61,12,4.25,18.32,4.2
	c2.56-0.02,6.73-1.35,15.07-4.01c8.16-2.6,7.62-2.94,10.88-3.63c5.16-1.09,6.63-0.27,19.27,0.38c11.61,0.6,16.67,0.22,17.75,2.86
	c0.96,2.37-2.04,5.31-1.14,6.11c0.95,0.85,4.27-2.53,9.92-4.77c2.85-1.13,5.15-1.45,9.73-2.1c10.24-1.44,12.01,0.32,16.22-2.1
	c2.46-1.42,3.23-2.81,5.92-3.24c2.4-0.39,4.35,0.32,7.06,1.34c4.51,1.69,6.77,2.54,8.01,4.77c1.85,3.32,0.31,7.44-0.95,10.83
	c-0.99,2.65-2.23,4.38-2.67,4.96c-1.77,2.35-3.64,3.67-4.58,4.34c-8.22,5.84-12.7,9.04-16.46,13.31c-1.25,1.42-2.26,2.92-4.29,5.92
	c-2.34,3.45-4.5,7.15-8.73,14.41c-1.33,2.28-2.57,4.44-4.63,7.16c-0.31,0.41-1.47,1.93-3.15,3.86c-2.58,2.97-2.93,2.93-4.29,4.63
	c-1.81,2.25-1.02,2.11-4.2,7.25c-0.89,1.44-2.4,3.8-3.39,5.92c-0.6,1.3-1.1,2.62-1.1,2.62c-0.38,1.02-0.47,1.42-0.62,1.81
	c-0.97,2.62-3.85,4.05-4.53,4.39c-0.95,0.47-2.53,1.25-4.67,1.1c-0.68-0.05-3.4-0.29-5.34-2.62c-2.15-2.58-1.65-5.66-1.57-6.11
	c-0.35,0.52-1.06,1.72-1.05,3.34c0.01,2.29,1.45,3.81,2,4.39c2.27,2.38,5.36,2.53,6.39,2.58c0.78,0.04,3.77,0.09,6.54-1.86
	c1.65-1.16,2.45-2.52,4.05-5.25c1.44-2.44,1.17-2.65,2.72-5.49c1.73-3.16,2.22-3.2,3.96-6.39c1.59-2.93,1.37-3.26,2.48-5.1
	c1.75-2.9,3.45-4,5.58-6.06c1.6-1.54,1.95-2.19,7.87-10.92c4.25-6.27,6.37-9.4,6.63-9.73c5.95-7.58,13.42-13.85,16.27-15.98
	c0.45-0.33,1.77-1.31,3.39-2.81c0.66-0.61,2.13-2.02,3.82-4.1c0.95-1.17,4.48-5.64,7.39-12.83c1.82-4.48,1.75-5.96,1.19-7.11
	c-0.7-1.43-2.07-2.17-3.63-3.01c-1.89-1.01-2.66-0.91-6.54-2.05c-3.6-1.06-3.44-1.3-5.72-1.81c-0.6-0.14-2.97-0.65-6.25-0.72
	c-4.4-0.09-7.69,0.67-9.21,0.99c-3.26,0.67-7.65,0.66-16.41,0.64c-9.57-0.03-9.94-0.69-22.77-1.14
	c-11.05-0.39-10.19,0.13-16.92-0.38c-10.81-0.81-11.78-2.05-18.7-1.72c-6.73,0.32-6.87,1.54-15.07,1.91
	c-5,0.22-8.73,0.39-13.74-0.38c-5.1-0.79-7.99-2-13.36-1.53c-2.68,0.24-4.57,0.42-6.3,1.72
	C295.24,246.04,296.47,254.01,296.63,254.97z"/>
<path class="st2" d="M297.82,269.58c0.06-0.62,0.35-2.82,2.06-3.93c0.99-0.64,2.06-0.65,3.72-0.67c1.42-0.01,2.58,0.2,3.34,0.38
	c2.39,0.57,2.96,1.35,4.39,1.81c2.51,0.81,3.82-0.57,9.73-2.1c2.11-0.55,1.43-0.23,6.2-1.24c6.6-1.39,6.55-1.7,10.21-2.39
	c6.15-1.16,10.97-1.17,12.69-1.14c2.5,0.03,4.25,0.21,7.63,0.57c6.28,0.67,9.65,1.34,13.45,1.91c5.86,0.87,9.98,1.06,18.22,1.43
	c11.04,0.5,14.92,0.04,17.46-0.38c4.83-0.79,7.57-1.87,9.16-2.58c4-1.79,6.87-4.06,8.68-5.72c-1.82,2.42-4.9,5.91-9.64,8.87
	c-1.08,0.68-2.83,1.76-5.06,2.58c-5.65,2.08-10.59,1.08-14.79,0.48c-10.18-1.48-7.62,0.52-23.95-0.95
	c-10.54-0.95-11.7-1.79-17.75-1.43c-5.92,0.35-6.84,1.29-12.31,1.05c-4.44-0.19-6.91-0.94-10.88,0.19c-2.46,0.7-2.18,1.18-6.01,2.67
	c-4.16,1.62-7.74,2.33-10.11,2.67c-2.89,0.42-5.52,0.79-8.97,0.29C302.05,271.47,299.49,270.41,297.82,269.58z"/>
<path class="st2" d="M505.7,90.8c0.81-0.46,1.93-1.25,2.8-2.54c1.23-1.84,0.6-2.69,1.65-4.33c1.45-2.25,3.22-1.53,4.96-3.94
	c1.25-1.73,0.66-2.54,1.78-3.69c1.56-1.6,4.41-1.81,6.49-1.27c4.81,1.26,4.18,6.26,9.16,8.4c3.24,1.39,3.88-0.58,9.29,0.76
	c1.8,0.45,5.74,1.47,8.78,4.71c1.37,1.46,1.99,2.75,3.31,5.72c5.62,12.67,5.29,13.7,7.38,15.65c3.97,3.7,6.82,1.48,9.67,5.09
	c3.94,4.98,1.56,13.06,1.27,13.99c-1.94,6.3-5.92,7.69-5.6,11.83c0.26,3.37,3.17,5.94,5.72,7.63c-0.86-1-1.92-2.53-2.29-4.58
	c-0.64-3.53,1.09-6.62,2.8-9.67c1.93-3.44,2.55-3.04,3.56-5.47c1.9-4.55,0.92-8.78,0.76-9.41c-0.25-1-1.41-5.69-5.47-8.27
	c-3.02-1.92-4.41-0.62-7-2.42c-2.33-1.62-2.43-3.54-4.83-9.54c-2.38-5.95-3.58-8.93-5.98-11.7c-1.95-2.25-4.95-5.71-9.29-6.11
	c-3.42-0.31-5.23,1.5-9.45,0.38c-2.1-0.56-3.67-1.54-3.94-1.72c-1.67-1.07-2.86-2.34-4.39-4.01c-2.01-2.19-1.94-2.55-2.86-2.99
	c-2.49-1.2-5.37,0.25-5.76,0.45c-2.29,1.18-3.54,3.4-3.59,3.5c-0.54,0.98-0.64,1.67-1.49,2.42c-0.82,0.72-1.23,0.52-2.26,1.27
	c-0.17,0.12-1.36,1.01-2.07,2.51c-0.63,1.35-0.32,2.01-0.64,3.37C507.94,87.87,507.33,89.29,505.7,90.8z"/>
<path class="st2" d="M333.27,133.99c0.31-4.37,1.82-6.3,3.05-7.25c5.45-4.24,14.94,3.21,21.2-1.59c1.05-0.81,1.94-2.1,3.71-4.68
	c2.64-3.85,3.09-5.81,4.68-8.53c2.48-4.25,5.57-6.64,9.08-9.36c4.79-3.7,7.7-5.95,11.97-6.47c4.24-0.51,4.84,1.29,12.24,2.34
	c6.55,0.93,11.17,1.59,14.17-0.96c3.38-2.87,0.87-6.55,4.8-12.73c2.66-4.19,4.71-4.1,7.06-7.44c2.02-2.87,3.67-7.8,1.53-16.79
	c0.15,2.14,0.09,5.43-1.14,9.16c-0.58,1.74-1.44,4.34-3.63,6.87c-2.2,2.54-3.29,2.2-5.15,4.77c-1.15,1.59-0.68,1.65-2.86,5.72
	c-1.88,3.53-2.74,4.42-3.72,5.06c-1.16,0.75-2.29,1.01-3.77,1.19c-5.01,0.61-9.62,0.01-14.44-0.76c-6.1-0.98-6.1-1.2-7.7-1.1
	c-3.94,0.24-6.76,1.77-9.77,3.44c-2.78,1.55-8.33,4.63-12.11,10.87c-1.16,1.92-2.59,4.27-3.44,7.7c-0.82,3.3-0.49,5.09-2.06,6.88
	c-1.27,1.45-2.89,1.86-5.39,2.46c-4.55,1.1-5.79,0.16-10.69,0.89c-3.31,0.49-6.09,0.9-7.54,3.05
	C331.59,129.37,332.88,132.99,333.27,133.99z"/>
<path class="st2" d="M609.76,155.36c-1.01,1.41-2.81,3.92-3.24,6.68c-0.59,3.77,1.86,4.86,3.05,9.73c0.1,0.42,1.96,8.46-2.1,14.12
	c-2.74,3.82-5.05,2.21-8.97,6.3c-4.24,4.42-2.31,7.11-7.25,12.98c-1.83,2.17-4.94,5.86-8.59,5.53c-2.4-0.21-3.85-2.06-4.96-1.34
	c-1.04,0.68-1.12,3.2,0,4.58c1.87,2.3,6.81,1.09,9.35,0c3.27-1.4,5.17-3.71,6.49-5.34c3.12-3.87,2.31-5.32,5.53-10.11
	c0.84-1.25,2.94-4.32,6.49-7.25c4.3-3.55,5.7-2.75,7.25-5.15c2.17-3.37,1.21-7.73,0.19-12.4c-0.92-4.18-2.86-9.16-2.86-9.16l0,0
	c0,0,5.69-0.42,8.01-3.43c1.86-2.42,1.26-6.12,0.57-6.3c-0.62-0.16-1.05,2.59-3.43,3.63c-1.82,0.79-4.26,0.37-4.58-0.57
	c-0.47-1.41,4.23-2.74,4.96-5.92c0.44-1.94-0.52-4.87-6.11-9.35c3.96,3.83,4.37,6.29,4.01,7.82
	C613.18,152.1,611.91,152.37,609.76,155.36z"/>
<path class="st2" d="M490.88,35.72c0.29,0.09,4.62,1.35,8.59,1.34c1.93-0.01,3.78-0.32,12.98-4.01c6.89-2.76,6.29-2.77,7.82-3.24
	c7.25-2.25,10.1,1.08,23.09,2.67c10.71,1.31,13.78-0.35,19.27,2.86c3.92,2.29,6.36,5.47,7.82,7.82c-0.4-2.48-1.41-5.71-4.01-8.2
	c-0.68-0.65-2.73-2.46-11.45-4.39c-5.21-1.15-5.41-0.72-10.3-1.72c-7.68-1.57-7.89-2.8-14.12-3.82c-4.29-0.7-8.1-1.33-12.78-0.19
	c-3.17,0.77-3.51,1.56-8.78,3.24c-2.68,0.86-5.66,1.81-9.35,2.29c-1.67,0.22-13.14,1.7-15.27-2.67c-0.85-1.74,0.52-2.93-0.57-4.58
	c-1.45-2.19-5.75-2.94-8.78-1.14c-2.67,1.58-3.31,4.52-3.43,5.15c0.82-0.6,2.17-1.44,4.01-1.91c1.55-0.4,3.31-0.85,4.39,0
	c1.42,1.12,0.92,3.89,0.57,5.72c-0.9,4.68-2.77,5.89-3.63,8.78c-2.03,6.83,4.17,14.54,4.77,14.31c0.39-0.15-1.62-3.63-1.34-9.16
	c0.18-3.51,1.38-9.71,4.77-10.69C486.63,33.77,487.34,34.66,490.88,35.72z"/>
<path class="st2" d="M294.67,220.01c4.81-2.48,6.17-4.93,6.45-6.81c0.37-2.51-1.32-3.25-1.79-7.29c-0.22-1.89,0.27-4.38,1.24-9.36
	c0.79-4.05,1.19-6.07,1.79-7.29c1.99-4.03,4.33-4.23,5.23-7.15c0.51-1.68,0.57-4.34-1.93-8.39c0.25,1.03,0.5,2.58,0.28,4.4
	c-0.28,2.21-1.11,3.61-2.48,6.19c-2.1,3.96-3.15,5.95-3.63,7.33c-1.03,2.97-1.19,5.45-1.44,9.29c-0.2,3.08-0.1,5.56-0.05,6.81
	c0.12,2.91,0.19,4.37,0.41,5.16c0.38,1.32,0.93,2.37,0.52,3.66c-0.27,0.85-0.81,1.39-1.19,1.75
	C296.87,219.49,295.44,219.87,294.67,220.01z"/>
<path class="st2" d="M350.44,203.19c-0.27-1.24-0.85-3.02-2.27-4.54c-2.36-2.53-4.65-1.8-8.15-4.23c-2.88-1.99-4.36-4.58-5.16-5.98
	c-1.45-2.54-1.07-3.17-2.79-7.95c-1.86-5.18-2.84-7.81-5.16-9.29c-2.89-1.85-6.12-1.25-6.71-1.14c-3.68,0.74-6.67,3.7-7.84,7.64
	c0.76-0.8,1.98-1.92,3.71-2.89c1.69-0.94,3.3-1.84,5.37-1.65c1.93,0.17,4.55,1.31,5.37,3.51c0.87,2.34-0.67,4.9-2.06,7.22
	c-1.26,2.09-1.82,2.07-2.37,3.51c-0.87,2.26-0.55,5.11,0.62,7.22c2.02,3.64,5.52,3.14,11.25,7.53c1.95,1.5,3.37,2.96,4.23,3.92
	c-1.16-1.94-3.06-4.66-5.98-7.33c-2.89-2.63-4.6-3.22-5.68-5.37c-0.92-1.84-1.39-4.88,0.93-10.01c0.64,1.38,1.7,3.37,3.41,5.47
	c2.03,2.51,3.97,3.95,6.71,5.98c3.47,2.58,5.21,3.87,7.33,4.54c0.45,0.14,1.5,0.45,2.68,1.24
	C349.13,201.46,349.95,202.47,350.44,203.19z"/>
<path class="st2" d="M268.72,173.99c-0.04-1.18,0.11-2.83,1.14-4.23c1.8-2.44,4.46-1.61,8.25-4.02c0.46-0.29,3.2-2.08,5.06-5.37
	c0.67-1.18,0.76-1.75,2.27-7.95c1.39-5.73,1.77-7.14,3.2-8.05c1.33-0.85,2.99-0.9,4.13-0.93c2.93-0.08,4.54,1.03,5.26,0.21
	c0.49-0.55,0.22-1.58-0.1-2.82c-0.3-1.16-0.79-2.02-1.14-2.55c0.27,1.29,0.13,2.27,0,2.86c-0.16,0.72-0.35,0.93-0.52,1.06
	c-0.54,0.4-1.3,0.1-2.01-0.05c-1.29-0.28-2.29-0.08-3.84,0.23c-1.11,0.22-2.79,0.56-4.08,1.88c-0.84,0.87-1.14,1.77-1.6,3.17
	c-0.91,2.77-0.32,3.78-1.45,5.17c-0.25,0.31-0.77,0.73-1.81,1.56c-1.43,1.16-1.83,1.29-2.27,1.93c-0.6,0.86-0.49,1.52-0.72,2.79
	c-0.06,0.34-0.61,3.24-2.24,5.04c-1.5,1.67-2.41,0.71-4.75,2.53c-0.61,0.48-3.3,2.57-3.25,5.52
	C268.27,172.83,268.51,173.53,268.72,173.99z"/>
<path class="st2" d="M385.73,302.35c-2.21-1.02-4.08-1.45-5.37-1.65c-3.84-0.61-5.73,0.25-10.18-0.55
	c-0.96-0.17-4.27-0.76-4.26-1.51c0.01-0.7,2.95-1.37,5.37-1.51c2.98-0.18,3.37,0.55,6.6,0.55c2.69,0,2.67-0.5,6.66-0.79
	c3.66-0.26,3.62,0.16,6-0.17c2.44-0.34,4.18-1.03,7.15-2.2c3.31-1.3,3.77-1.85,6.47-2.61c2.42-0.69,2.76-0.45,3.8-1
	c1.45-0.76,3.2-2.48,4.18-6.84c-0.95,1.13-2.44,2.69-4.54,4.13c-1.4,0.96-2.96,1.79-7.7,3.44c-5.4,1.87-8.1,2.81-11.42,3.3
	c-2.36,0.35-1.62,0.01-9.22,0.28c-8.55,0.29-13.47,0.86-15.41,1.1c-2.04,0.25-3.72,0.51-4.85,0.69c1.11,3.31,2.77,4.63,3.89,5.23
	c1.14,0.61,1.78,0.49,9.73,0.28c5.68-0.15,5.17-0.09,6.14-0.16c1.08-0.08,2.59-0.23,4.69-0.15
	C384.42,302.21,385.2,302.29,385.73,302.35z"/>
<path class="st2" d="M322.44,47.45c-0.64,0.71-1.64,2-2.2,3.85c-0.33,1.09-1.03,3.42,0,4.4c0.47,0.44,1.16,0.49,4.77-0.37
	c3.8-0.91,5.7-1.36,6.97-2.2c0.39-0.26,1.33-0.92,3.85-4.22c3.22-4.21,3.18-5.08,4.58-6.6c2.49-2.7,5.72-3.32,10.45-4.22
	c7.16-1.36,9.45,0.3,14.3-1.65c3.11-1.25,5.27-3.18,6.6-4.58c-0.34,1.18-1.15,3.29-3.12,4.95c-0.82,0.69-2.32,1.7-6.24,2.38
	c-4.19,0.73-5.06,0.03-8.8,0.37c-3.09,0.28-8.44,0.76-11.92,4.4c-0.15,0.16-1.33,2-3.67,5.69c-3.23,5.08-3.34,5.27-3.85,5.69
	c-2.69,2.18-6.29,2.38-9.72,2.57c-3.16,0.17-4.57-0.27-6.79,0.73c-1.76,0.8-2.94,2.02-3.67,2.93
	C316.81,56.86,319.62,52.16,322.44,47.45z"/>
<path class="st3" d="M385.68,298.01c-1.39,0.01-2.09,0.28-3.35,0.52c-2.62,0.49-3.98,0.18-4.02,0.46c-0.05,0.32,1.6,1.05,3.41,1.08
	c0.73,0.01,0.62-0.1,3.35-0.57c2.21-0.38,2.97-0.42,3.66-0.41c1.14,0.01,1.11,0.16,1.81,0.1c2.02-0.15,3.8-1.44,3.66-1.86
	c-0.11-0.35-1.63-0.16-2.48-0.05c-2.03,0.26-2.55,0.81-4.33,0.83C386.54,298.13,386.63,298,385.68,298.01z"/>
<path class="st3" d="M412.87,292.8c-0.67-0.16-1.5,1.18-1.7,1.5c-0.94,1.51-0.98,2.88-1.14,3.71c-0.63,3.38-4.12,3.08-7.17,7.69
	c-1.62,2.46-0.86,2.88-2.68,5.31c-2.15,2.87-4.6,4.12-4.28,4.75c0.21,0.41,1.51,0.34,2.53-0.15c1.55-0.75,1.57-2.05,3.25-4.49
	c1.57-2.27,1.95-1.72,3.3-3.87c1.27-2.02,1.04-2.68,2.37-4.18c1.04-1.17,1.45-1.07,2.37-2.32c1.05-1.43,1.54-2.97,1.6-3.15
	c0.48-1.53,0.24-1.99,0.88-2.79c0.53-0.65,1.22-0.99,1.14-1.5C413.29,293.09,413.09,292.86,412.87,292.8z"/>
<path class="st4" d="M440,246.11c-1.94-0.44-3.69-0.65-5.68-0.31c-0.83,0.14-3.02,0.52-3.2,1.55c-0.08,0.49,0.3,1.04,0.72,1.34
	c1.52,1.12,3.47-0.95,5.98-0.31c1.32,0.34,2.98,1.47,3.2,2.89c0.24,1.6-1.51,2.5-4.85,7.22c-1.51,2.14-1.83,2.91-1.55,3.3
	c0.4,0.56,1.98,0.24,3.1-0.31c2.09-1.03,2.5-2.81,4.13-5.57c2.87-4.87,5.25-5.54,4.75-7.12C446.2,247.52,444.14,247.05,440,246.11z"
	/>
<path class="st4" d="M393.68,257.43c-0.55-0.81-1.14-0.75-1.47-1.28c-0.38-0.63,0.07-1.29,0.46-2.75c0.36-1.33,0.71-2.68,0.37-3.48
	c-0.65-1.51-3.89-1.34-6.97-1.38c-3.41-0.03,1.5-0.24-12.56-1.19c-6.98-0.48-10.51-0.71-12.47-0.37c-0.84,0.15-0.33,0.1-8.99,2.48
	c-4.88,1.34-6.65,1.8-6.6,2.11c0.06,0.38,2.77,0.39,5.13,0.09c3.04-0.38,3.85-1.07,6.69-1.65c1.94-0.4,3.77-0.42,7.43-0.46
	c2.51-0.03,4.73,0.04,8.53,0.28c13.1,0.8,14.51,1.64,15.22,2.84c0.98,1.66,0.19,3.29,1.83,4.77c1.32,1.18,3.44,1.58,3.76,1.1
	C394.24,258.25,393.82,257.63,393.68,257.43z"/>
<path class="st3" d="M346.28,270.64c-1.85-0.92-3.58-0.51-6.51-0.09c-4.3,0.62-3.61,0.19-5.78,0.64c-1.76,0.36-2.83,0.77-9.81,3.85
	c-5.75,2.54-5.73,2.56-6.6,2.84c-3.65,1.16-6.7,1.47-6.69,2.2c0,0.34,0.67,0.58,1.1,0.73c1.75,0.63,3.53,0.25,5.41-0.46
	c2.82-1.06,2.7-1.65,5.04-2.57c0.57-0.22,1.05-0.38,6.33-1.28c3.59-0.62,5.4-0.93,6.33-1.01c3.63-0.32,3.9,0.15,6.42-0.28
	c2.64-0.45,6.42-1.65,6.42-3.03C347.93,271.45,346.81,270.9,346.28,270.64z"/>
<path class="st3" d="M354.9,140.61c-1.01-2.59-2.37-6.09-6.05-8.44c-0.3-0.19-5.48-3.39-10.27-1.47c-1.26,0.51-3.26,1.67-3.12,2.75
	c0.13,0.97,1.96,1.48,2.57,1.65c2.61,0.72,3.43-0.44,5.32,0c2.14,0.5,3.4,2.53,5.69,6.24c1.29,2.08,1.14,2.36,2.38,4.22
	c0.8,1.2,3.48,5.21,4.58,4.77C357.14,149.88,356.51,144.75,354.9,140.61z"/>
<path class="st3" d="M476.48,147.4c2.46,0.32,6,0.68,10.27,0.73c7.23,0.09,10.84,0.13,14.3-1.83c4.84-2.75,7.09-7.55,7.7-8.99
	c0.94-2.23,0.34-2.08,1.65-6.05c2.03-6.15,3.36-6.17,3.85-9.9c0.4-3.02-0.32-4.23,0.73-6.97c0.67-1.75,1.65-3.03,2.38-3.85
	c-1.43,2.88-1.6,5.14-1.49,6.69c0.1,1.38,0.41,1.89,0.41,3.51c0,1.3-0.19,2.44-1.1,5.36c-0.57,1.85-1.34,4.11-2.68,7.5
	c-1,2.53-1.5,3.79-2.13,5.09c-1.72,3.53-2.19,3.39-2.89,5.57c-0.64,1.98-0.53,2.96-1.58,4.81c-0.79,1.4-1.51,2-2.2,2.34
	c-1.02,0.5-2,0.45-2.48,0.41c-5.73-0.41-8.6-0.61-13.14-1.1c-4.47-0.48-6.33-0.37-9.15-1.79
	C477.87,148.39,477.04,147.81,476.48,147.4z"/>
<path class="st3" d="M275.4,150.38c0.21,0.81,0.12,1.46-0.14,2.89c-0.37,2-0.55,3-0.83,3.99c-0.72,2.58-1.08,3.86-2.06,5.09
	c-0.21,0.27-0.55,0.65-1.24,1.51c-0.38,0.48-0.68,0.87-1.38,1.79c-2.04,2.7-2.18,2.96-2.34,3.3c-0.58,1.31-0.55,2.21-0.69,2.2
	c-0.22-0.02-0.6-2.33,0.14-4.68c0.46-1.46,1.02-1.88,2.89-4.54c1.71-2.43,2.56-3.64,3.16-5c0.73-1.63,1.72-3.86,1.38-6.56
	c-0.14-1.12-0.48-2.07-0.28-2.15C274.26,148.12,275.09,149.15,275.4,150.38z"/>
<path class="st3" d="M442.06,205.15c3.21,0.99,4.79,2.35,6.9,3.52c3.62,2.01,4.81,1.26,14.25,2.31c7.41,0.82,11.11,1.23,14.28,2.69
	c5.4,2.48,9.13,6.19,10.83,7.92c4.22,4.28,7.48,9.26,7.2,9.73c-0.3,0.5-4.21-4.69-11.31-9.28c-1.25-0.81-4.89-3.07-9.85-4.82
	c-1.72-0.6-5.73-1.89-10.94-2.32c-4.15-0.34-3.94,0.29-7.83-0.15c-5.12-0.57-7.68-0.86-10.37-3.25c-2.35-2.09-2.57-3.8-5.3-5.43
	c-2.8-1.67-5.19-1.44-5.19-1.63C434.75,204.23,438.07,203.91,442.06,205.15z"/>
<path class="st3" d="M621.87,178.3c-0.13,2.39,0.84,3.91,1.24,5.09c1.58,4.72-3.71,10.75-6.46,13.89
	c-7.63,8.7-17.54,13.14-23.52,15.27c4.96-4.13,8.22-8.02,10.32-10.87c2.49-3.39,2.74-4.52,5.09-6.74c4.29-4.05,7.01-3.67,8.67-7.01
	c1.42-2.87-0.19-3.96,1.24-7.98c1.57-4.43,4.92-7.09,5.23-6.88C623.9,173.24,622.03,175.2,621.87,178.3z"/>
<path class="st3" d="M503.17,46.4c-0.01-0.28,0.14-1.26,6.67-3.3c4.79-1.5,7.44-2.33,11-2.61c4.09-0.33,5.28,0.39,21.59,4.81
	c6.84,1.86,10.79,2.86,10.8,4.4c0.01,1.09-1.95,1.91-2.48,2.13c-4.63,1.94-8.42-0.98-16.44-3.03c-5.48-1.4-8.69-2.22-13.07-1.72
	c-5.11,0.58-8.31,2.56-13.89,1.38C506.64,48.31,503.22,47.58,503.17,46.4z"/>
<path class="st3" d="M313.36,115.03c-1.28,1.56-2.88,3.96-3.58,7.15c-0.86,3.95,0.35,5.93,1.1,11c0.84,5.68,2.1,14.16-2.2,18.71
	c-2.47,2.61-5.33,2.4-6.6,5.5c-0.93,2.26-0.36,4.65,0.28,6.33c-0.11-0.77-0.2-2.14,0.34-3.64c0.88-2.46,2.86-3.72,3.85-4.33
	c2.35-1.46,3.27-0.83,4.95-1.86c2.78-1.71,3.42-5.38,3.78-7.5c0.61-3.53-0.13-6.75-1.65-13.07c-1.32-5.49-1.86-6.08-1.99-8.73
	C311.44,120.6,312.45,117.27,313.36,115.03z"/>
<path class="st3" d="M318.4,122.27c6.5-0.88,9.03-3.13,10.09-5.13c2.27-4.3-1.85-8.11,0.37-14.12c1.94-5.26,7.1-7.78,7.7-8.07
	c6.2-2.93,11.47,0.14,13.02-2.2c0.83-1.25,0.5-3.88-4.22-9.9c0.49,2.24,1.2,3.85,1.79,4.95c0.41,0.76,0.83,1.41,0.6,2.06
	c-0.15,0.44-0.63,0.97-2.75,1.47c-2.42,0.56-4.37,0.46-4.45,0.46c-3.71-0.19-7.49,1.75-9.35,3.21c-3.97,3.12-4.66,8.35-4.91,10.22
	c-0.76,5.76,1.64,7.86,0.14,11.32C325.45,118.79,323.14,120.88,318.4,122.27z"/>
<path class="st3" d="M295.3,80.83c-1.69,4.35-1.54,7.82-1.28,9.72c0.41,3.06,1.52,5.35,2.93,8.25c2.24,4.61,3.4,5.08,4.4,7.7
	c0.94,2.47,1.53,6.27-0.37,11.92c0.29-1.73,0.71-5.75-1.28-10.09c-0.69-1.51-2.12-4.51-5.5-6.6c-4.09-2.53-8.29-2.03-9.54-1.83
	c0.67-6.66,1.32-8.24,1.83-8.25c0.61-0.02,0.73,2.24,2.57,4.22c1.45,1.56,3.31,2.24,4.77,2.57c-0.9-1.01-2.46-3.08-2.93-6.05
	C289.86,85.96,294.81,81.27,295.3,80.83z"/>
<path class="st3" d="M577.16,47.15c-1.21,1.89-2.53,4.7-2.2,7.91c0.37,3.6,2.53,4.72,6.88,11.28c2.7,4.08,4.73,7.19,5.78,11.55
	c0.82,3.41,0.73,6.36,0.55,8.25c-0.18-1.83-0.58-4.51-1.58-7.63c-1.09-3.41-1.75-5.44-3.64-7.36c-2.87-2.89-6.53-3.44-7.56-3.58
	c-2.89-0.39-4.18,0.39-9.49,1.24c-3.2,0.51-5.83,0.73-7.5,0.83c3.22-0.48,5.41-1.57,6.81-2.48c2.45-1.59,3.1-3.02,5.23-3.78
	c2.41-0.87,4.86-0.23,6.6,0.48c-0.92-0.81-2.72-2.63-3.44-5.5C572.07,52.3,576.87,47.44,577.16,47.15z"/>
<path class="st4" d="M445.95,90.27c-1.18,1.52-2.99,1.94-4.68,2.2c-5.38,0.83-6.66-0.45-10.73,0c-5.6,0.62-7.86,3.56-9.63,2.2
	c-1.31-1-1.3-3.55-0.55-5.23c1.54-3.46,6.79-4.52,10.45-4.13c4.33,0.47,4.73,2.79,8.8,2.75c3.83-0.04,6.3-2.12,7.15-1.1
	C447.37,87.68,446.69,89.32,445.95,90.27z"/>
<path class="st5" d="M441.19,247.3c-1.61-0.52-2.92-0.59-3.71-0.62c-1.33-0.06-2.73,0.05-2.73,0.21c0,0.1,0.55,0.16,2.68,0.57
	c1.44,0.27,1.92,0.38,2.42,0.52c1.51,0.4,2.27,0.61,2.63,1.19c0.48,0.76,0.04,1.48,0.46,1.75c0.56,0.36,2.08-0.4,2.12-1.19
	C445.12,248.57,441.98,247.55,441.19,247.3z"/>
<path class="st5" d="M353.11,249.91c-0.04-0.25,3.21-1,3.44-1.05c2.3-0.53,4.09-0.73,4.49-0.78c1.24-0.14,2.66-0.25,6.6-0.28
	c3.39-0.02,5.08-0.03,6.46,0.05c3.46,0.2,4.09,0.55,9.26,1.01c2.43,0.22,3.94,0.29,3.94,0.32c0,0.07-6.19-0.28-12.79-0.41
	c-1.54-0.03-2.43-0.04-4.63-0.09c-2.72-0.07-3.13-0.1-4.45-0.09c-2.2,0.02-3.82,0.15-4.72,0.23c-1.74,0.16-2.6,0.24-3.21,0.41
	c-0.9,0.26-1.68,0.62-3.03,0.73C354.03,250,353.13,250.04,353.11,249.91z"/>
<path class="st5" d="M390.7,249.59c0.46-0.07,1.15-0.17,1.56,0.23c0.38,0.37,0.31,0.98,0.18,2.06c-0.04,0.38-0.11,1-0.37,1.79
	c-0.31,0.98-0.61,1.3-0.55,2.02c0.04,0.46,0.2,0.71,0.09,0.78c-0.18,0.12-0.91-0.36-1.15-1.05c-0.18-0.53,0.07-0.76,0.18-1.65
	c0.07-0.55,0.24-1.93-0.46-2.57c-0.56-0.51-1.35-0.22-1.42-0.5C388.7,250.37,389.68,249.74,390.7,249.59z"/>
<path class="st4" d="M345.09,271.92c-0.08-0.37-1.68-0.39-2.84-0.28c-1.67,0.17-1.99,0.59-3.58,0.83c-1.59,0.23-1.73-0.12-3.39,0
	c-1.32,0.09-2.4,0.46-4.49,1.19c-1.71,0.6-4.84,1.78-4.77,2.02c0.05,0.15,1.33-0.26,3.76-0.64c1.06-0.16,3.51-0.53,6.51-0.55
	c2.38-0.01,2.68,0.21,3.94-0.09c1.11-0.27,1.93-0.7,3.58-1.56C344.95,272.24,345.11,272.05,345.09,271.92z"/>
<path class="st4" d="M343.71,131.81c-1.47-0.07-2.93,0.45-2.93,0.83c0,0.43,1.95,0.26,4.03,1.47c1.4,0.81,2.21,1.9,3.76,4.03
	c2.13,2.93,2.7,4.61,3.03,4.49c0.42-0.15,0.22-3.17-1.28-5.87C350.02,136.23,347.58,132,343.71,131.81z"/>
<path class="st4" d="M506.1,143.09c-0.16,0.63-0.49,1.56-1.19,2.48c-0.73,0.95-1.86,1.88-4.31,2.66c-2.3,0.73-4.09,0.8-9.17,0.83
	c-2.41,0.01-4.54,0.01-6.33,0c1.3,0.33,3.19,0.75,5.5,1.01c2.4,0.27,2.8,0.1,5.96,0.37c4.31,0.36,4.75,0.77,5.78,0.37
	C503.78,150.23,505.4,148.46,506.1,143.09z"/>
<path class="st4" d="M512.89,126.95c-0.36,0.67-0.53,1.22-0.73,1.93c-0.59,2.03-0.99,3.59-1.28,4.68c-0.17,0.62-0.44,1.58-0.83,2.75
	c0.37-0.57,0.83-1.31,1.29-2.22c0.53-1.03,0.95-1.85,1.26-2.94c0.73-2.54-0.07-3.29,0.86-4.47c0.32-0.41,0.84-0.86,1.13-1.75
	c0.15-0.45,0.18-0.84,0.19-1.1c-0.18,0.36-0.48,0.92-0.89,1.58C513.41,126.15,513.18,126.4,512.89,126.95z"/>
<path class="st4" d="M273.33,157.15c-0.45,0.88-0.5,1.02-0.72,1.44c-0.62,1.2-1.21,2.07-1.51,2.51c-0.8,1.17-1.64,2.17-1.93,2.51
	c-0.65,0.77-1.02,1.14-1.41,1.89c-0.42,0.8-0.64,1.61-0.55,1.65c0.09,0.04,0.39-0.63,1.1-1.44c0.49-0.56,0.82-0.78,1.31-1.2
	c0.36-0.31,1.51-1.35,2.48-2.89c0.41-0.66,0.89-1.42,1.2-2.54c0.21-0.75,0.18-1.1,0.52-2.2c0.28-0.94,0.56-1.53,0.52-1.55
	C274.28,155.3,273.79,156.25,273.33,157.15z"/>
<path class="st4" d="M445.22,207.96c0.69,0.15,1.78,0.46,3.04,1.14c1.07,0.58,1.79,1.17,2.04,1.36c1.71,1.33,3.46,1.07,8.2,1.39
	c1.11,0.07,4.65,0.33,8.98,1.04c1,0.17,1.5,0.25,2.08,0.38c4.49,0.99,8.19,2.96,8.13,3.28c-0.03,0.18-1.12-0.22-5.54-1.18
	c-2.54-0.55-4.19-0.91-6.24-1.22c-1.89-0.29-3.69-0.56-6.02-0.62c-3.7-0.09-4.75,0.46-8.01-0.08c-1.85-0.31-2.92-0.72-3.99-1.64
	C446.5,210.6,445.66,209,445.22,207.96z"/>
<path class="st4" d="M616.36,192.88c-0.36-0.46-2.59,0.34-4.26,1.79c-1.81,1.57-1.58,2.7-3.71,5.5c-1.74,2.28-3.14,3.16-3.03,3.3
	c0.2,0.25,4.46-2.47,8.25-6.6C614.66,195.73,616.78,193.41,616.36,192.88z"/>
<path class="st4" d="M514.17,44.97c3.13-0.9,4.71-1.35,6.97-1.56c0.77-0.07,3.55-0.29,7.15,0.37c4.58,0.83,4.98,2.06,10.73,3.76
	c4.57,1.35,7.64,1.56,7.61,2.11c-0.02,0.42-1.81,0.75-3.39,0.73c-3.04-0.03-4.94-1.32-7.43-2.48c-1.73-0.81-4.84-2.26-8.25-2.57
	c-4.38-0.4-5.26,1.45-12.2,1.93c-2.58,0.18-6.16,0.17-6.24-0.37C509.06,46.44,511.52,45.74,514.17,44.97z"/>
<path class="st4" d="M568.09,66.75c0.9-0.62,1.2-1.13,1.65-1.51c0.84-0.7,1.87-0.67,3.64-0.62c2.64,0.08,4.46,1.07,4.88,1.31
	c0.72,0.41,1.27,0.84,1.65,1.17c-0.76-0.08-1.96-0.21-3.44-0.41c-2.39-0.32-2.66-0.42-3.44-0.34c-1.5,0.15-1.83,0.66-3.64,0.96
	c-1.07,0.18-1.97,0.17-2.54,0.14C567.15,67.31,567.6,67.09,568.09,66.75z"/>
<path class="st4" d="M574,55.61c-0.19,0.05-0.24,1.43,0.28,2.82c0.43,1.15,1.11,1.97,2.34,3.44c0.41,0.49,0.87,0.99,1.44,1.86
	c0.34,0.51,0.59,0.94,0.76,1.24c-0.14-0.79-0.43-1.98-1.17-3.23c-0.66-1.12-1.05-1.24-1.86-2.48
	C574.46,57.22,574.22,55.56,574,55.61z"/>
<path class="st5" d="M423.53,90.68c-0.22-0.39,0.87-1.75,2.34-2.34c0.65-0.26,1.41-0.39,5.5,0.28c1.95,0.32,1.94,0.37,3.16,0.55
	c3.48,0.51,5.2,0.31,5.23,0.55c0.03,0.33-3.15,1.52-6.88,1.24c-2.69-0.2-3.53-1-6.19-0.69C424.89,90.49,423.73,91.04,423.53,90.68z"
	/>
<path class="st6" d="M345.86,51.48c0.16,1.34,0.32,2.68,0.47,4.02c2.09-0.41,4.65-0.73,7.57-0.71c4.12,0.02,7.59,0.7,10.17,1.42
	c2.58-1.37,6.27-3.14,10.88-4.73c4.59-1.58,10.48-3.56,18.22-3.79c3.95-0.11,10.16,0.18,17.51,2.6c-0.74-1.68-1.73-4.63-1.42-8.28
	c0.12-1.36,0.39-2.56,0.71-3.55c-2.21,1.81-4.42,3.63-6.63,5.44c-4.7-0.8-10.38-1.08-16.56,0.24c-5.38,1.15-5.77,2.36-13.25,4.26
	c-6.81,1.73-12.5,2.25-16.56,2.6C352.48,51.4,348.66,51.49,345.86,51.48z"/>
<path class="st6" d="M341.13,51.72c0.79,1.34,1.58,2.68,2.37,4.02c-2.1,1.14-5.2,2.84-8.99,4.97c-2.15,1.21-3.25,1.83-4.6,2.63
	c-2.64,1.57-6.8,4.04-9.36,6.12c-2.29,1.86-5.9,5.53-8.52,12.54c-0.83-0.62-4.08-2.89-8.04-2.13c-1.03,0.2-1.91,0.56-2.6,0.95
	c1.88-0.69,4.98-1.94,8.52-4.02c9.84-5.8,8.88-9.68,17.27-13.96c4.28-2.18,8.11-3,11.59-7.33
	C339.93,54.05,340.68,52.67,341.13,51.72z"/>
<path class="st6" d="M311.26,68.34"/>
<path class="st7" d="M290.62,113.71c0.18,1.13,0.38,2.27,0.59,3.43c0.23,1.25,0.46,2.47,0.71,3.67c-1.32,0.11-3.22,0.41-5.32,1.3
	c-3.36,1.43-5.47,3.64-6.39,4.61c-2.44,2.61-1.87,3.3-3.67,4.5c-2.36,1.56-3.7,0.59-6.51,2.25c-0.34,0.2-2.29,1.38-3.67,3.55
	c-1.59,2.51-1.14,4.33-1.66,8.04c-0.74,5.25-2.18,5.43-3.19,10.65c-0.43,2.23-0.82,5.55-0.35,9.82c-0.96,0.44-1.96,0.98-2.96,1.66
	c-5.57,3.77-7.9,9.45-8.87,12.54c-0.08-2.88-0.16-5.76-0.24-8.64c1.12-0.54,2.71-1.45,4.26-2.96c1.05-1.02,2.48-2.62,4.26-6.86
	c1.89-4.53,2.82-8.31,3.19-9.94c1.52-6.62,0.68-6.94,2.01-10.53c0.35-0.94,1.94-5.05,5.68-8.99c1.92-2.02,4.75-3.79,10.41-7.33
	c4.2-2.62,6.83-4.01,9.46-7.33C289.44,115.78,290.17,114.54,290.62,113.71z"/>
<path class="st7" d="M275.95,139.26c0.12,2.1,0.42,4.59,1.06,7.33c0.69,2.94,1.6,5.44,2.48,7.45c-1.41,1.41-1.98,2.73-2.25,3.67
	c-0.44,1.57-0.17,2.66-1.06,4.02c-0.59,0.9-1.57,1.73-1.89,1.54c-0.5-0.31,1.02-2.84,1.77-6.63c0.17-0.87,0.37-2.15,0.35-6.51
	C276.41,147.4,276.31,143.7,275.95,139.26z"/>
<path class="st7" d="M277.72,182.09c0.5,0.17,1.06,0.4,1.66,0.71c0.45,0.23,0.84,0.48,1.18,0.71c-0.67,0.78-1.58,1.94-2.48,3.43
	c-0.79,1.31-2.15,3.8-3.31,8.4c-0.75,2.99-1.64,7.71-1.54,13.84c-0.42-0.84-1.51-2.75-3.79-4.02c-1.23-0.69-2.39-0.95-3.19-1.06
	c1.46,0.13,3.45,0.08,4.61-1.18c0.91-0.98,0.76-2.08,1.06-4.38c0.26-2,0.66-5.01,2.13-7.69c1.54-2.8,3.18-3.32,3.67-6.03
	C277.92,183.69,277.83,182.72,277.72,182.09z"/>
<path class="st7" d="M261.04,201.14c-0.08,1.14-0.06,2.6,0.24,4.26c0.44,2.43,1.31,4.32,2.01,5.56c-0.87,0.12-1.74,0.24-2.6,0.35
	c-0.43-0.82-1.23-2.6-1.18-4.97C259.55,203.78,260.55,201.93,261.04,201.14z"/>
<path class="st7" d="M296.41,185.88c1.42,0,2.84,0,4.26,0c-0.72,1.82-1.66,4.58-2.25,8.04c-0.68,4.01-0.64,7.4-0.59,9.94
	c0.06,3.51-0.52,7.08,0.12,10.53c0.14,0.73,0.51,2.54-0.35,3.19c-0.44,0.33-1.18,0.35-1.65,0.03c-0.91-0.62-0.61-2.37-0.36-4.52
	c0.26-2.24,0.2-4.51,0.47-6.74c0.22-1.76,0.96-7.9,0.83-13.96C296.83,189.7,296.61,187.47,296.41,185.88z"/>
<path class="st7" d="M275.83,218.88c1.1,0.75,2.21,1.5,3.31,2.25c-0.8,0.98-1.62,2.16-2.37,3.55c-2.42,4.55-2.69,8.96-2.6,11.59
	c-0.99-4.21-0.71-7.1-0.24-8.99c0.2-0.8,0.72-2.56,1.3-5.32C275.51,220.66,275.71,219.59,275.83,218.88z"/>
<path class="st7" d="M257.99,224.12c0.24-1.02,0.78-2.58,1.98-2.99c1.34-0.46,2.88,0.73,5.44,3.08c4.03,3.69,6.85,6.82,7.1,7.1
	c4.95,5.53,5.86,6.81,8.4,8.28c1.56,0.9,3.28,1.88,5.68,2.01c1.3,0.07,2.22-0.14,7.69-2.13c5.2-1.89,5.62-2.15,7.45-2.6
	c1.23-0.3,3.69-0.89,6.74-0.95c3.86-0.07,4.32,0.78,9.7,1.42c1.83,0.22,5.43,0.62,9.7,0.24c3.54-0.32,5.17-0.97,7.81-1.54
	c5.97-1.28,8.47-0.27,30.29,1.3c1.08,0.08,1.77,0.13,2.74,0.19c2.93,0.19,8.91,0.56,16.9,0.75c4.14,0.1,8.82,0.22,14.55,0.12
	c10.6-0.18,11.45-0.86,18.1-0.95c6.2-0.08,17.06-0.22,28.98,3.96c5.92,2.08,5.69,2.96,15.79,6.92c6.27,2.45,11.19,4.38,16.15,5.5
	c15.41,3.48,29.55-1.2,34.07-2.9c7.64-2.87,20.5-9.53,26.03-9.58c0.44,0,2.26,0.02,4.38-0.83c2.07-0.83,3.5-2.13,4.38-3.08
	c-0.63,1.01-1.59,2.4-2.93,3.87c-0.96,1.06-2.91,3.03-7.36,5.77c-3.25,2-6.24,3.43-9.05,4.61c-2.74,1.15-8.17,3.41-15.53,4.97
	c-14.22,3.01-25.74,1.31-30.7,0.53c-8.17-1.28-13.97-3.38-15.62-3.99c-4.09-1.53-5.22-2.36-9.32-4.17
	c-3.42-1.51-12.02-5.32-21.3-6.74c-6.04-0.93-5.86,0.15-21.83,0.35c-5.68,0.07-9.92-0.03-18.4-0.24
	c-10.14-0.25-18.21-0.44-28.63-1.18c-15.37-1.09-15.46-1.92-21.77-1.42c-6.55,0.52-9.41,1.65-17.04,1.42
	c-4.92-0.15-10.56-0.83-12.48-1.06c-7.05-0.85-6.91-1.24-9.32-1.33c-10.29-0.38-12.02,6.77-19.61,6.3
	c-4.06-0.25-4.99-2.39-20.35-14.31C263.16,227.98,260.08,225.67,257.99,224.12z"/>
<path class="st7" d="M447.25,251.18c1.3,0.71,2.6,1.42,3.9,2.13c-1.3,6.49-3.85,10.52-5.86,12.95c-2.54,3.08-3.72,3.02-13.31,10.82
	c-5.69,4.63-7.22,6.24-8.52,7.81c-2.28,2.77-2.86,4.23-5.86,9.41c-4.55,7.85-6.83,11.78-9.58,15.08c-3.06,3.66-6.67,7.08-9.35,11.65
	c-0.24,0.4-0.87,1.5-2,3.43c-2.73,4.64-2.91,4.81-3.55,6.03c-2.48,4.69-1.46,5.19-3.02,7.1c-2.27,2.77-7.26,5.17-10.65,3.02
	c-2.9-1.84-3.01-5.98-3.02-6.57c3.43-0.24,6.86-0.47,10.29-0.71c4.82-7.36,9.2-12.8,12.42-16.5c2.48-2.85,4.71-5.19,7.63-9.41
	c2.52-3.64,3.58-5.84,6.21-10.47c1.96-3.46,5.26-9.27,8.52-14.02c6-8.74,8.95-9.62,17.04-19.7
	C442.54,258.28,445.46,253.97,447.25,251.18z"/>
<path class="st7" d="M310.43,287.56c0.7-0.84,1.79-1.88,3.02-1.77c1.41,0.12,2.09,1.66,3.37,3.02c1.7,1.8,3.59,2.37,6.92,3.37
	c6.71,2.02,17,0.58,29.1-0.53c4.73-0.44,8.92-0.82,14.55-1.06c10-0.44,14.24-0.01,17.92-0.18c6.89-0.32,16.67-2.96,28.75-13.66
	c-0.64,1.79-1.86,4.51-4.26,7.1c-2.44,2.64-5.18,4.14-8.52,5.5c-7.8,3.18-14.76,3.91-18.28,4.26c-9.83,0.96-15.58,1.18-22,1.6
	c-21.19,1.37-22.68,3.16-30.17,1.77C325.93,296.05,318.68,293.82,310.43,287.56z"/>
<path class="st7" d="M297.65,269.1c0.86-0.97,2.23-2.16,4.08-2.48c3.03-0.53,4.68,1.73,8.16,2.66c2.54,0.68,5.3-0.08,10.82-1.6
	c6.75-1.85,7.41-3.12,12.78-4.08c0.44-0.08,3.02-0.29,8.16-0.71c8.69-0.71,9.98-0.76,11.71-0.71c2.37,0.07,3.39,0.27,9.05,1.06
	c1.76,0.25,9.34,1.31,13.31,1.77c9.75,1.13,17.29,0.87,21.47,0.71c7.42-0.29,11.2-0.46,14.73-1.95c1.8-0.76,9.21-3.89,11.18-7.63
	c0.22-0.42,0.98-2.01,2.66-2.84c0.81-0.4,1.59-0.51,2.13-0.53c-0.51,3.37-1.8,5.28-2.84,6.39c-2.67,2.84-5.84,2.65-8.7,6.03
	c-1.18,1.4-1.8,2.82-2.13,3.73c-2.96,0.21-7.61,0.48-13.31,0.53c-13.65,0.13-17.08-1.13-30.7-1.24c-12.89-0.1-10.64,1.02-21.83,0.71
	c-11.63-0.32-15.15-1.56-20.76,1.06c-4.39,2.05-5.52,4.35-11.71,7.1c-4.39,1.95-8.32,2.79-11,3.19c-1.35-1.22-3.06-3.02-4.61-5.5
	C298.99,272.67,298.17,270.68,297.65,269.1z"/>
<path class="st7" d="M328.36,187.53c0.76,1.28,1.98,3.07,3.83,4.91c0.24,0.24,0.82,0.81,1.61,1.48c2.7,2.27,5.26,3.47,5.92,3.79
	c2.1,1.02,5.26,2.98,9.94,7.1c-0.02,0.25-0.16,1.97-1.66,3.08c-1.8,1.33-3.9,0.52-4.02,0.47c-1.15-1.55-2.98-3.91-5.44-6.63
	c-2.6-2.88-3.76-3.78-5.44-5.92C331.71,194.06,329.9,191.37,328.36,187.53z"/>
<path class="st7" d="M316.76,207.05c0.12-0.31,0.89-2.24,2.72-2.72c0.27-0.07,1.17-0.27,2.72,0.35c2.13,0.86,3.25,2.36,4.02,3.19
	c1.7,1.84,4.13,2.56,8.99,4.02c1.59,0.48,5.07,1.5,9.35,1.66c4.76,0.18,6.01-0.88,15.14-2.84c8.52-1.83,13.77-2.26,15.14-2.37
	c5.76-0.44,8.71-0.64,12.07,0.35c3.93,1.17,4.68,2.63,9.23,3.55c3.73,0.75,6.8,0.49,8.28,0.35c4.18-0.39,5.32-1.34,8.75-2.07
	c0.86-0.18,11.68-2.35,19.88,2.66c0.04,0.02,2.21,1.43,6.57,4.26c2.99,1.94,3.89,2.52,5.32,3.02c2.77,0.95,4.99,0.68,7.28,0.53
	c1.74-0.12,8.05-0.53,12.95,0.35c5.07,0.92,8.68,3.24,13.84,6.57c2.4,1.54,2.72,1.98,8.52,6.03c3.05,2.13,5.59,3.84,7.28,4.97
	c0.06,0.71,0.12,1.42,0.18,2.13c-0.91-0.41-2.3-1.03-3.96-1.83c-5.41-2.61-8.72-4.64-13.96-7.69c-7.89-4.6-11.87-6.9-13.37-7.22
	c-4.15-0.88-9.19-0.75-13.13-0.65c-4.07,0.1-3.81,0.35-5.56,0.3c-8.48-0.28-10.48-6.1-19.4-8.75c-4.78-1.43-8.76-1.11-15.26-0.59
	c-7.63,0.61-8.83,2.03-14.37,2.48c-10.45,0.85-11.15-3.82-21.47-4.17c-11.56-0.39-13.88,5.36-27.06,4.35
	c-4.05-0.31-7.12-1.11-10.38-1.95C328.15,213.03,321.29,209.65,316.76,207.05z"/>
<path class="st7" d="M340.07,137.13c1.18,0.67,2.88,1.76,4.61,3.43c1.55,1.49,2.51,2.85,4.02,5.09c2.58,3.82,4.39,6.73,4.85,7.45
	c0,0,3.08,4.86,8.16,10.17c3.28,3.42,10.12,10.57,20.82,13.49c2.31,0.63,8.63,2.35,16.21,1.3c2.59-0.36,6.19-1.16,11.48-1.06
	c2.09,0.04,4.32,0.22,6.86,0.83c2.79,0.67,3.26,1.22,5.44,1.89c3.94,1.21,7.75,0.96,15.38,0.47c2.69-0.17,3.9-0.35,5.68,0.24
	c2.6,0.85,3.37,2.33,5.68,4.02c2.17,1.59,4.68,2.24,9.7,3.55c4.9,1.28,7.48,1.95,11.12,1.89c2.06-0.03,4.34-0.3,7.57,0.47
	c1.52,0.36,2.74,0.83,3.55,1.18c-1.1,0.85-2.76,1.96-4.97,2.84c-4.7,1.87-8.82,1.44-13.01,0.95c-6.4-0.75-9.92-1.16-13.13-3.87
	c-3.36-2.84-3.82-6.02-7.28-6.65c-1.54-0.28-3.26,0.02-5.24,0.35c-2.44,0.42-4.06,1.01-4.79,1.24c-5.81,1.82-13.31-1.42-18.46-3.64
	c-2.98-1.28-4.71-2.36-7.63-2.31c-3.04,0.05-5.53,1.3-5.94,1.51c-2.79,1.42-2.3,2.4-4.08,2.93c-4.01,1.19-9.79-2.76-10.91-3.64
	c-0.18-0.14-0.71-0.56-1.51-0.8c-1.38-0.4-2.6,0.02-2.84,0.09c-2.93,0.87-10.55-6.17-11.27-6.83c-8.39-7.72-9.33-5.93-15.97-12.95
	c-3.34-3.53-5-5.29-6.57-8.07c-2.02-3.61-2.74-6.67-6.3-13.31C340.79,138.42,340.36,137.64,340.07,137.13z"/>
<path class="st7" d="M484.78,192.62c-0.19,0.73-0.35,1.77-0.09,2.93c0.29,1.29,1.38,3.91,11.53,7.81c6.03,2.32,9.87,3.75,15.26,3.64
	c4.8-0.1,7.43-1.34,9.14-2.66c0.97-0.75,3.26-2.52,2.84-4.44c-0.29-1.32-1.81-2.42-3.19-2.4c-1.51,0.03-2.03,1.39-3.99,2.66
	c-1.77,1.15-3.42,1.38-5.59,1.69c-2.72,0.38-5.68,0.18-10.03-1.15C494.26,198.74,488.87,195.58,484.78,192.62z"/>
<path class="st7" d="M389.58,150.92c0.57-0.39-0.61-1.98,0-3.55c0.43-1.13,1.41-1.27,3.02-2.31c1.9-1.22,1.39-1.56,5.15-5.15
	c2.28-2.18,3.22-2.77,4.26-3.19c1.5-0.61,2.76-0.7,3.02-0.71c3.05-0.17,5.06,1.55,6.92,2.48c4.11,2.07,9.88,1.54,13.49-0.71
	c6.04-3.77,6.04-12.36,6.03-13.13c-1.5,2.8-3.2,4.77-4.44,6.03c-1.6,1.62-3.54,3.59-6.74,4.79c-1.5,0.56-3.66,1.37-6.21,0.89
	c-2.96-0.56-3.48-2.29-6.57-3.55c-3.36-1.38-6.59-0.91-7.63-0.71c-7.64,1.45-10.73,9.73-12.07,13.31c-0.76,2.02-0.88,3.48-0.18,4.5
	C388.16,150.68,389.18,151.19,389.58,150.92z"/>
<path class="st7" d="M436.84,123.53c0.63,0.56,1.54,1.42,2.48,2.6c2.29,2.84,2.24,4.28,4.02,6.86c2.3,3.33,5.14,4.96,5.8,5.32
	c1.69,0.93,3.9,2.15,6.63,1.77c2.93-0.4,4.93-2.43,6.27-3.79c2.86-2.9,2.88-5.02,5.09-5.8c1.7-0.6,3.46,0.03,4.61,0.59
	c-0.29,0.4-0.73,0.99-1.24,1.72c-2.04,2.87-2.08,3.25-3.14,4.67c-2.31,3.12-3.28,2.92-4.26,5.21c-0.75,1.76-0.3,2.15-0.95,3.08
	c-2.06,2.94-8.58,1.62-8.99,1.54c-6.54-1.39-10.31-6.76-11.71-8.75c-3.74-5.32-4.33-10.82-4.5-12.54
	C436.86,124.99,436.84,124.13,436.84,123.53z"/>
<path class="st7" d="M472.27,133.7c0.02,0.92,0.03,2.34,0,4.08c-0.05,3-0.17,3.8,0,5.32c0.17,1.52,0.37,3.22,1.24,4.61
	c1.14,1.82,3.12,2.64,7.1,3.55c4.75,1.09,7.55,1.21,13.13,1.77c8.08,0.81,10.48,1.38,12.24-0.35c1-0.98,0.82-1.75,1.6-4.61
	c1.66-6.1,3.67-7.03,6.39-14.02c0.16-0.41,0.93-2.99,2.48-8.16c2.69-8.98,3.53-12.09,6.39-13.66c1.6-0.88,3.3-0.98,4.61-0.89
	c-1.31,0.66-3.21,1.85-4.79,3.9c-0.91,1.19-1.56,2.45-2.66,6.03c-1.65,5.33-1.59,6.93-2.84,11c-1.16,3.78-1.38,2.93-2.84,7.28
	c-2.19,6.53-2.71,11.45-2.84,12.78c-0.28,2.94-0.25,5.4-0.18,7.1c-2.1-0.31-5.23-0.74-9.05-1.06c-5.76-0.5-7.31-0.29-13.49-0.71
	c-7.3-0.5-11.02-0.78-14.2-2.13c-4.29-1.83-7.18-4.62-8.87-6.57c0.38-2.06,1.03-4.56,2.13-7.28
	C469.2,138.33,470.85,135.66,472.27,133.7z"/>
<path class="st7" d="M536.69,167.24c-4.59-2.66-7.92-5.41-10.12-7.45c-4.6-4.28-5.57-6.67-5.86-7.45c-1.09-2.96-0.83-5.45-0.53-8.34
	c0.25-2.38,0.68-3.77,4.61-15.79c0.71-2.18,0.71-2.18,0.82-2.52c0,0,1.11-3.44,3.61-11.85l0,0l0,0c0,0-0.91-1.04-1.24-1.42
	c-0.7,1-1.62,2.43-2.48,4.26c-0.36,0.77-0.98,2.09-1.38,3.56c-0.79,3-0.34,5.52-0.22,6.37c0.73,5.43-3.22,10.62-7.1,21.12
	c-1.09,2.95-2.51,7.22-3.73,12.6c2.27,0.29,6.15,1.1,10.12,3.73c2.23,1.47,3.85,3.1,4.97,4.44c0.75-0.26,1.58-0.51,2.48-0.71
	C532.96,167.26,535.02,167.17,536.69,167.24z"/>
<path class="st7" d="M566.86,150.74c0.3,2.12-0.19,3.53-0.53,4.26c-0.77,1.65-2.1,2.61-4.73,4.47c-1.5,1.06-2.52,1.64-3.25,2.1
	c-4.72,2.92-5.71,5.3-12.24,10.82c-1.22,1.03-2.24,1.84-2.84,2.31c0.3,1.09,0.82,2.61,1.77,4.26c0.46,0.78,2.03,3.43,4.79,5.32
	c4.15,2.85,8.78,2.5,11.36,2.31c6-0.46,10.12-3.22,11.89-4.44c3.72-2.57,6.46-4.45,7.1-7.63c0.26-1.28,0.27-3.24,1.42-3.73
	c0.68-0.29,1.51,0.03,1.95,0.35c2.42,1.77-0.03,8.65-0.18,9.05c-1.61,1.36-4.03,3.17-7.28,4.79c-3.29,1.64-6.09,2.41-8.34,3.02
	c-3.91,1.05-5.83,1.1-11.53,2.66c-1.07,0.29-1.93,0.55-2.48,0.71c-3.06-1.68-7.06-4.31-11-8.34c-2.83-2.89-4.9-5.75-6.39-8.16
	c0.65-1.42,1.3-2.84,1.95-4.26c4.41-2.84,8.05-4.99,10.47-6.39c6.14-3.54,9.4-5.05,13.49-8.7
	C564.38,153.63,565.93,151.87,566.86,150.74z"/>
<path class="st7" d="M348.7,111.82c2.29,2.52,4.57,5.05,6.86,7.57c-0.08-2.51,0.11-6.6,1.89-11.12
	c4.28-10.87,14.25-15.36,17.98-17.04c3.81-1.72,8.36-3.69,14.14-2.69c3.7,0.64,6.46,2.25,8.1,3.4c-0.08-4.5-0.16-8.99-0.24-13.49
	c-0.83,1.45-2.29,3.47-4.73,4.73c-2.12,1.09-4.07,1.15-4.73,1.18c-6.87,0.34-15.33,5.15-16.41,5.77
	c-5.85,3.32-10.13,8.18-17.42,16.47c-0.28,0.32-1.22,1.4-2.6,2.72C350.41,110.42,349.41,111.26,348.7,111.82z"/>
<path class="st7" d="M498.24,127.67c1.54,0.03,3.28-0.16,3.79-1.18c0.4-0.8-0.24-1.55-0.24-2.84c0.01-1.98,1.54-3.38,2.37-4.26
	c3.61-3.86,2.27-6.83,5.44-10.88c2.93-3.75,7.08-5.07,8.99-5.68c1.35-0.43,8.91-2.69,16.33,1.42c4.66,2.58,6.99,6.43,7.81,7.81
	c2.58,4.38,1.16,5.55,3.79,10.65c1.15,2.24,4.54,8.82,9.94,9.23c1.59,0.12,2.93-0.33,3.79-0.71c-1.72-0.56-4.25-1.67-6.15-4.02
	c-2.17-2.68-1.84-4.89-3.79-10.88c-1.42-4.39-2.13-6.58-3.79-8.75c-3.01-3.96-7.22-5.34-11.12-6.63
	c-3.41-1.12-14.22-4.67-19.88-0.24c-0.91,0.71-2.84,2.54-5.92,3.08c-1.47,0.26-2.73,0.14-3.55,0c-3.6,5.41-5.04,9.66-5.68,12.07
	c-0.46,1.72-1.01,4.45-1.42,6.86C498.61,124.73,498.39,126.44,498.24,127.67z"/>
<path class="st7" d="M475.53,16.7c0,0.79,0,1.58,0,2.37c-1.72,1.3-4.24,3.29-7.1,5.92c-6.19,5.69-9.39,8.69-11.12,13.72
	c-0.44,1.28-1.77,5.28-0.95,10.17c0.45,2.66,1.25,3.89,6.63,13.01c4.66,7.9,5.23,8.97,5.92,10.41c0.63,1.33,2.96,6.29,4.26,11.83
	c2.24,9.59,2.53,25.76-4.97,29.34c-1.09,0.52-2.89,1.03-5.68,0.47c1.87-1.91,4.48-5.13,5.92-9.7c1.34-4.27,0.99-7.95,0.24-15.14
	c-0.71-6.76-1.06-10.15-2.6-14.2c-3.03-7.97-7.89-12.71-9.23-13.96c-1.98-1.85-3.84-3.16-5.21-4.02c0.26-0.8,1-3.42-0.24-6.15
	c-0.48-1.07-1.13-1.84-1.66-2.37c0.44-3.44,1.96-11.57,8.28-19.4C464.46,21.02,472.25,17.83,475.53,16.7z"/>
<path class="st7" d="M505.81,88.63c0.19-1.15,0.62-3.16,1.66-5.44c2.71-5.96,8.95-12.38,14.67-11.59c0.82,0.11,3.83,0.53,4.97,2.6
	c0.59,1.08,0.4,2.1,1.18,2.6c0.91,0.59,2.37-0.03,3.55-0.71c-0.63-2.68-1.26-5.36-1.89-8.04c-3.93-0.39-6.87,0.17-8.75,0.71
	c-3.79,1.09-5.66,2.75-12.54,6.86c-2.85,1.7-5.19,3-6.63,3.79C503.29,82.48,504.55,85.55,505.81,88.63z"/>
<path class="st7" d="M491.97,54.73c1.55-0.48,3.8-1.13,6.57-1.77c2.45-0.57,4.65-0.98,11.18-1.95c6.4-0.96,9.59-1.43,10.47-1.42
	c1.83,0.03,5.33,0.91,12.24,2.66c8.04,2.04,5.24,1.46,13.31,3.55c3.9,1.01,4.9,1.23,6.57,1.95c3.98,1.72,6.78,4.11,8.52,5.86
	c-0.18,0.77-0.35,1.54-0.53,2.31c-0.1,0.06-6.54,4.22-6.64,4.29c-0.01,0.01-1.87,1.21-1.88,1.21c-0.31-0.43-1.3-1.93-1.06-3.9
	c0.27-2.18,1.94-4.06,4.26-4.79c-1.39-1.03-3.54-2.43-6.39-3.55c-4.55-1.78-7.14-1.36-14.91-1.95c-9.62-0.74-9.37-1.67-15.62-1.6
	c-4.28,0.05-7.67,0.52-11.53,1.06c-5.02,0.7-9.2,1.58-12.24,2.31C493.51,57.57,492.74,56.15,491.97,54.73z"/>
<path class="st7" d="M555.86,72.13c0.66,0.04,1.64,0.07,2.84,0c1.83-0.1,3.06-0.37,5.5-0.89c5.64-1.19,6.02-1.23,6.57-1.24
	c2.48-0.05,4.37,0.47,5.15,0.71c0.41,0.13,3.38,1.08,5.5,3.02c2.62,2.4,2.92,5.39,3.9,9.94c1.42,6.58,3.36,12.21,5.5,18.46
	c1.14,3.31,2.45,6.8,2.31,11.71c-0.05,1.49-0.21,2.72-0.35,3.55c-1.52-1.73-3.6-4.51-4.97-8.34c-1.44-4.05-0.97-6.15-1.95-11.53
	c-0.87-4.8-1.53-8.4-3.73-12.07c-3.98-6.62-10.57-9.41-13.49-10.65C563.58,72.65,558.97,72.17,555.86,72.13z"/>
<path class="st8" d="M346.51,239.76c-11.16,1.47-18.78,5.63-22.98,8.41c-5.43,3.6-10.19,6.74-11.55,12.38
	c-2.48,10.25,7.75,19.66,8.53,20.36c7.74,6.92,14.86,3.49,27.97,11.15c4.19,2.45,7.28,5,9.16,6.68c-2.41-0.06-6.15-0.09-10.72,0.14
	c-8.81,0.43-11.41,1.34-16.29,1c-7.04-0.5-12.24-3.14-14.74-4.45c-11.36-5.91-16.57-15.49-18.47-19.09
	c-2.05-3.89-5.27-10.17-4.96-18.39c0.19-5.19,1.71-8.93,2.48-10.78c1.39-3.34,2.38-5.63,4.86-7.06c2.99-1.73,6.65-1.35,7.24-1.28
	c1.06,0.11,1.14,0.26,3.3,0.64c2.35,0.42,4.16,0.58,5.78,0.72c8.72,0.74,13.09,1.11,15.86,1.08
	C335.59,241.22,340.56,240.92,346.51,239.76z"/>
</svg>
