<?xml version="1.0" encoding="utf-8"?>
<!-- Generator: Adobe Illustrator 24.1.2, SVG Export Plug-In . SVG Version: 6.00 Build 0)  -->
<svg version="1.1" id="Слой_1" xmlns="http://www.w3.org/2000/svg" xmlns:xlink="http://www.w3.org/1999/xlink" x="0px" y="0px"
	 viewBox="0 0 566.9 425.2" style="enable-background:new 0 0 566.9 425.2;" xml:space="preserve">
<style type="text/css">
	.st0{fill:#6D6354;}
	.st1{fill:#D3AD62;}
	.st2{fill:#608452;}
	.st3{fill:#EFEDDF;}
	.st4{opacity:0.81;fill:#7FA36F;enable-background:new    ;}
	.st5{opacity:0.68;fill:#8C8070;enable-background:new    ;}
	.st6{opacity:0.61;fill:#F2D094;enable-background:new    ;}
	.st7{fill:#DBB0A7;}
	.st8{fill:#D3AAA3;}
	.st9{fill:#CEA69F;}
	.st10{opacity:0.21;fill:#EFCCC7;enable-background:new    ;}
	.st11{opacity:0.21;fill:#FCDCD9;enable-background:new    ;}
	.st12{opacity:0.36;fill:#D6ACA3;enable-background:new    ;}
	.st13{opacity:0.31;fill:#D6ACA3;enable-background:new    ;}
	.st14{opacity:0.44;fill:#D6ACA3;enable-background:new    ;}
	.st15{opacity:0.13;fill:#BA8C85;enable-background:new    ;}
	.st16{opacity:0.25;fill:#D6ACA3;enable-background:new    ;}
	.st17{opacity:0.24;fill:#FCDCD9;enable-background:new    ;}
	.st18{opacity:0.79;fill:#D6ACA3;enable-background:new    ;}
	.st19{opacity:0.58;fill:#D6ACA3;enable-background:new    ;}
	.st20{opacity:0.58;fill:#BF928C;}
	.st21{opacity:0.31;fill:#FCDCD9;enable-background:new    ;}
	.st22{opacity:0.35;fill:#D6ACA3;enable-background:new    ;}
	.st23{opacity:0.26;fill:#D6ACA3;enable-background:new    ;}
	.st24{opacity:0.58;fill:#DBB3AF;enable-background:new    ;}
	.st25{opacity:0.28;fill:#C69A83;enable-background:new    ;}
	.st26{opacity:0.58;fill:#BC928E;enable-background:new    ;}
	.st27{opacity:0.29;fill:#D6ACA3;enable-background:new    ;}
	.st28{opacity:0.17;fill:#D6ACA3;enable-background:new    ;}
	.st29{fill:#F2DAD7;}
	.st30{opacity:8.000000e-02;fill:#F2DAD7;enable-background:new    ;}
</style>
<path class="st0" d="M294.6,403.8H91.3c-6.5,0-11.7-5.2-11.7-11.7v-37.2c0-1.4,1.1-2.5,2.5-2.5h217.3c1.4,0,2.5,1.1,2.5,2.5v41.5
	C301.9,400.5,298.6,403.8,294.6,403.8z"/>
<path class="st1" d="M376.1,352.4H190.3c-4.8,0-8.8-3.9-8.8-8.8v-36.6h201.7v38.2C383.2,349.2,380,352.4,376.1,352.4z"/>
<path class="st2" d="M476.1,307.1H296.4c-4.2,0-7.6-3.4-7.6-7.6v-39.7h196.1v38.5C484.9,303.1,481,307.1,476.1,307.1z"/>
<path class="st3" d="M372.7,388c-25.1,5.3-50.2,10.5-75.3,15.8c0.3,0,2.4-0.3,3.7-2.1c0.7-1.1,0.8-2.1,0.8-2.6c0-15.5,0-31.1,0-46.6
	c23.8,0,47.6,0,71.4,0C373.1,364.3,372.9,376.1,372.7,388z"/>
<path class="st3" d="M454,338.5c-24.9,4.6-49.8,9.2-74.6,13.8c0.5-0.1,2.3-0.6,3.3-2.3c0.4-0.6,0.5-1.3,0.6-1.7
	c0-13.7,0-27.5,0-41.2c23.8,0,47.6,0,71.5,0C454.4,317.5,454.2,328,454,338.5z"/>
<path class="st3" d="M555.7,292.6c-25.3,4.8-50.7,9.7-76.1,14.5c0.5,0,2.5-0.3,4-2.1c1-1.2,1.2-2.5,1.3-3.1c0-14,0-28,0-42.1
	c23.8,0,47.6,0,71.5,0C556.1,270.7,555.9,281.6,555.7,292.6z"/>
<path class="st4" d="M288.8,273.9c5.2,4.5,13.4,10.9,24.7,16.3c20.3,9.6,39.4,9.4,76.7,8.5c48.3-1.1,66-7.8,74-11.2
	c9-3.8,16-7.9,20.7-10.9c0,8.6,0,17.2,0,25.7c-0.1,0.6-0.4,1.9-1.6,3.1c-1.6,1.7-3.7,1.8-4.2,1.8c-61.8,0-123.6,0-185.3,0
	c-0.3,0-2.2,0-3.7-1.6c-1.3-1.4-1.3-3-1.3-3.4C288.8,292.7,288.8,283.3,288.8,273.9z"/>
<path class="st5" d="M79.6,365.6c3.1,3.6,8.2,8.9,15.6,13.6c13.9,9,27.5,10.6,36.3,11.5c45,4.9,80.5,8.8,118.1,0.3
	c12.9-2.9,23.5-6.7,33.9-12.5c8.1-4.6,14.3-9.4,18.5-13c0,11.2,0,22.5,0,33.7c0,0.4-0.2,1.8-1.2,2.9c-1.3,1.4-3,1.6-3.3,1.6
	c-70.1,0-140.2,0-210.3,0c-0.6,0-3-0.2-5-2c-2.3-2.1-2.5-4.9-2.5-5.5C79.6,386.1,79.6,375.9,79.6,365.6z"/>
<path class="st6" d="M181.5,321.5c7.1,2.9,16.7,6.5,28.3,9.8c36.6,10.6,65.6,11.2,87.2,11.5c48.3,0.6,64.2-7.4,70.1-10.7
	c7.2-4,12.6-8.4,16.1-11.5c0,9,0,18,0,27c0,0.5-0.1,1.4-0.6,2.3c-1.1,1.9-3.2,2.3-3.5,2.4c-63.9,0-127.9,0-191.8,0
	c-0.4,0-2.3-0.1-3.9-1.5c-1.7-1.5-1.9-3.5-1.9-3.9C181.6,338.5,181.5,330,181.5,321.5z"/>
<path class="st7" d="M10.6,54.5c3.8,1.7,7.7,3.3,11.5,5c3.6,0.4,9,1,15.6,1.4c15.2,0.9,26.5,0.2,30.5,0c23.8-1.3,44.4,0.7,53.9,1.4
	c12.9,1,23.7,2.4,34.7,1.5c2.1-0.2,7-0.6,13.9-0.6c3.3,0,6.3,0.1,12.3,0.3c7.2,0.3,8.3,0.4,11.7,0.3c4.2-0.1,4.5-0.3,9.8-0.6
	c7.3-0.4,10.9-0.6,13.9,0c6.1,1.1,10.3,4.1,12.9,6c3.1,2.2,5.9,5.5,11.7,12c4.4,5,4,4.9,7.6,8.8c2.7,2.9,6,6.6,10.7,10.7
	c3.1,2.7,5.9,4.8,7.9,6.3c1.4-0.1,3.6-0.5,6.3-1.3c1.7-0.5,2.9-1,3.5-1.3c5.1-2.1,11-3.6,15.5-4.7c6.8-1.7,9.5-1.9,11.4-1.9
	c5.7,0,7.3,1.3,7.9,1.9c2.5,2.4,2,6.3,1.9,7.3c0.7,1.6,1.6,4.1,1.9,7.3c0.6,7.6-3,13.2-4.4,15.5c-3.1,4.9-7.1,7.9-9.8,9.5
	c1.5,1.4,3.5,3.7,5.4,6.9c2.5,4.5,2.9,7.6,4.7,13.3c1.4,4.1,2.6,6.8,5,12c2.3,5,6.3,13.3,12.6,22.4c2.7,3.8,5.3,7,6.3,12
	c0.3,1.4,0.5,3,1.3,6c1,4,1.5,4.4,2.2,7.3c0.9,3.6,0.2,3.8,1,8.8c0.1,0.8,0.6,4.2,1.9,8.5c1.4,4.9,2.1,5.2,2.8,8.8
	c0.5,2.8,1,4.9,0.3,7.6c-0.3,1-1.3,5.1-4.7,6.9c-2.5,1.3-5,0.7-8.8-0.3c-2.7-0.7-7.7-2.1-12.6-6.3c-3.8-3.2-5.6-6.6-7.6-10.1
	c-4.5-8.2-2.1-9-6.6-17.4c-1.8-3.3-3.9-6.4-4.4-11.4c-0.2-2-0.1-3.6,0-4.7c-1.2-0.6-2.9-1.6-4.7-3.2c-4.2-3.6-6-7.6-7.9-11.7
	c-1.8-3.8-4.5-9.2-8.5-15.8c-3-2.9-7-6.3-12.3-9.1c-2.1-1.1-4.1-2.1-6-2.8c1.5,1.3,3.8,3.6,5.4,6.9c0.7,1.4,1.5,3.6,2.2,9.5
	c0.4,3.2,0.7,7.8,0.6,13.3c1.1,5.1,2.3,9,3.2,11.7c0.7,2,1.5,4.5,2.5,8.2c0,0,0.7,2.6,1.3,5.4c1.8,8.5,2.5,20.9,2.5,22.4
	c0.8,1.8,2,4.8,2.8,8.5c1.3,6.2,0.2,7.8,1.3,16.4c0.6,4.8,1.2,5.6,1.6,10.7c0.3,3.8,0.1,5.1,0.3,8.2c0.2,3.3,0.7,8,2.2,13.9
	c-0.5,2.2-1,4.4-1.6,6.6c-7.7,0.3-15.4,0.6-23,1c-1.3-1.1-3.2-2.8-5-5.4c-4.3-5.8-5.7-11.7-6.6-15.8c-0.4-1.8-0.1-1-1.3-8.5
	c-1.6-11-2.4-13.8-2.8-19.9c-0.3-3.5-0.3-6.3-0.3-8.2c-1.1-1.8-2.6-4.4-4.1-7.9c-1.3-2.9-2.6-5.8-3.5-9.8c-1.3-5.6-0.2-6.2-1.6-10.4
	c-1.2-3.6-2.3-4.1-3.8-7.9c-1.4-3.7-1.8-7-1.9-9.1c-1.3-1.9-3.2-4.8-5.7-8.2c-4.6-6.4-4.8-5.9-6.9-9.1c-4.5-6.6-6.9-13.1-9.5-19.9
	c-1-2.6-1.7-4.8-2.2-6.3c-1.3-0.1-2.5-0.2-3.8-0.3c0.2,1.2,0.6,3.1,1.3,5.4c1.9,7,3.3,8,4.7,13.6c1.3,5,0.4,5.3,1.9,10.1
	c1.6,5.1,2.6,5.1,3.2,8.2c1.2,6.8-3,12.7-3.8,13.9c-3.4,4.9-8,7-12,8.8c-4.1,1.9-5.1,1.5-9.1,3.2c-6.7,2.7-9.9,6.3-13.6,9.1
	c-4.4,3.4-11.3,7.4-22.4,9.5c-1.2,0.7-3,1.7-5.4,2.2c-1.9,0.4-4.7,0.7-12.3-1.3c-1.8-0.4-3.3-0.9-10.1-3.2
	c-10.7-3.5-9.6-3.3-11.4-3.8c-5.5-1.4-8-1.4-13.9-3.5c-2.3-0.8-4-1.5-5.7-3.2c-0.8-0.8-2.9-3-3.5-6.3c-1-5.4,2.7-9.7,3.8-11
	c5.4-6.4,13.8-6.4,15.3-6.4c1.6,0.5,3.9,1.2,6.8,1.5c5.9,0.8,10.5-0.2,13.6-0.8c4.7-0.9,11.4-1.9,20.3-2.2c1.3-1.8,3.3-4.2,6.3-6.4
	c4.1-3,8.2-4.2,10.6-4.8c-1.2-0.6-2.8-1.5-4.4-3.1c-3.2-3.2-4.1-7-4.6-9c-1-3.9-3-9.4-7.3-16.4c0.8,2.1,1.7,4.7,2.3,7.8
	c0.6,3.4,0.8,6.3,0.7,8.7c-0.6,2.9-1.5,6.1-2.9,9.6c-2.4,6-5.5,10.7-8.2,14c-5.1,0.6-9.5,1.3-12.8,1.8c-4,0.7-5.4,1-7.6,1.1
	c-4.9,0.3-9.2-0.6-12.7-1.8c-3.1-1.6-6.9-3.9-10.5-7.4c-2.1-2-5.4-5.4-7.9-10.8c-1.2-2.7-1.9-5.2-2.2-6.9
	c-10.3-2.4-19.2-3.8-25.9-4.6c-8.5-1-15.5-1.4-17-1.4c-9.8-0.4-12.5,0.1-20.4-0.5c-4.3-0.3-10.3-0.9-17.5-2.4
	C10.6,134.4,10.6,94.5,10.6,54.5z"/>
<path class="st8" d="M91.3,183.2c0.7-1.7,2.7-6,7.3-8.2c3-1.4,6-1.4,8.5-1.4c1.9,0,4.2,0.1,6.8,1c4.5,1.7,5.3,4.4,10.5,8.1
	c1.8,1.3,4,2.6,6.8,3.7c0.1-1.4,0.2-2.7,0.3-4.1c2.8-0.6,6.8-1.9,10.9-4.6c5.7-3.6,9.1-8,10.9-10.7c1.2,2.9,2.4,6.8,2.8,11.6
	c0.1,1.6,0.1,3.2,0,4.6c-0.5,3-1.4,6.7-3.1,10.7c-2.4,5.8-5.4,10.2-7.8,13.2c-1.9,0.2-4.9,0.6-8.5,1.1c-5.4,0.8-7.3,1.3-9.5,1.6
	c-3.5,0.4-8.6,0.5-15.2-1.6c-3.4-1.7-10.2-5.5-15.3-13.2C93.6,190.6,92.1,186.3,91.3,183.2z"/>
<path class="st8" d="M111.9,208.3c6.5,1.8,11.7,1.9,15.2,1.6c5-0.4,7.7-1.6,14.9-2.4c4.5-0.5,8.2-0.7,10.5-0.7
	c1.2-1.7,2.9-3.8,5.4-5.8c4.4-3.5,8.9-4.9,11.5-5.4c-0.9-0.4-2.3-1.1-3.7-2.4c-4-3.5-4.8-7.9-6.4-12.9c-1.1-3.2-2.9-7.8-6.1-13.2
	c3-2.5,6.9-5.2,11.9-7.1c18.1-7.1,35.5,0.8,39.8,2.9c2.5,6.4,4,11.7,4.9,15.4c1.5,6.3,1.3,7.5,3,13.6c2.3,8,3.4,8.4,3.3,11.9
	c-0.2,7.1-5.6,12.4-6.7,13.4c-4,3.7-5.9,2.7-17.2,8.3c-2.2,1.1-5.5,2.8-9.5,5.3c-8.3,5.2-7.6,6.5-12.7,9c-2.9,1.4-2.9,0.9-14.9,4.8
	c-7.2,2.3-6.4,2.3-7.6,2.5c-10.6,2.3-14.6-5.3-31.6-8.5c-6-1.1-9-0.9-13.9-3.5c-3-1.6-8.1-4.3-9.2-9.5c-1.3-6.1,3.7-11.9,8-14.7
	C105.3,208.2,109.9,208.2,111.9,208.3z"/>
<path class="st7" d="M303.3,139.3c-14,5.1-25.4,6.1-33.3,6c-16.5-0.2-25.7-5.1-42.8-1.5c-7,1.5-9.7,3.2-16.3,5.6
	c-18.3,6.8-33.8,6.9-53.4,7.1c-25.6,0.3-69.7-3.7-124.7-15.3c22.1-11.3,54.4-25.1,90.8-31.8c20.8-3.8,22.7-1.6,53.9-6
	c6-0.9,17-2.5,31.5-0.7c6.4,0.8,10.5,1.9,13.9,2.7c10.2,2.3,25.2,4.2,46.3,1.8c5.5-1.9,11.6-3.8,18.3-5.4c7.1-1.7,13.7-2.9,19.8-3.7
	c7.7,6.1,11.3,15.8,9.2,24.9C314,133.8,304.6,138.6,303.3,139.3z"/>
<path class="st9" d="M199.5,152.9c-6.3,1.3-13.4,2.4-21.2,3.1c-7.7,0.6-14.8,0.8-21.1,0.5c-5.9-0.2-10.7-0.2-14.8-0.4
	c0,0-7.6-0.3-14.6-0.7c-10.3-0.7-28.6-2.6-51.9-6.2c14.1,4.6,30.7,12.7,45,27.3c1.7,1.8,3.3,3.6,4.9,5.3c-1-2-1.4-3.8-1.7-5
	c-0.2-1.3-0.4-2.6-0.1-4.2c0.3-1.1,0.7-1.9,1-2.4c0.6-0.9,1.7-2.2,3.3-3.1c1.9-1,3.5-1,6.8-1.2c4.9-0.4,4.6-0.8,7.1-0.9
	c2.4-0.1,6.2,0.2,10.9,2.1c3.9-1.7,8.6-3.4,13.9-4.7c7.5-1.9,14.2-2.6,19.7-2.9c3.2,0.1,7.1,0.4,11.4,1.4c2.5,0.6,4.7,1.3,6.7,2
	c1.3,0.1,2.5,0.2,3.8,0.3c3.4-2.3,8.1-4.9,14.1-6.7c9.8-3.1,18.3-2.7,23.4-2c1.9,0.6,4.2,1.5,6.6,3c5.1,3.1,8.2,7,9.8,9.6
	c-0.4-10.1,2.8-14,4.9-15.7c1.7-1.3,3.3-1.7,7.6-3.1c5.7-1.8,10.4-3.6,13.6-4.9c-11.2,2.3-20.1,2.1-26.3,1.4
	c-7.1-0.8-10.4-2.1-19.4-2.3c-5.4-0.1-10.9-0.2-17.6,1.6c-4.5,1.2-5.8,2.2-13.7,4.9C206.6,150.8,202.4,152.1,199.5,152.9z"/>
<path class="st10" d="M293.6,185.6c0.5-1.8,4.4-15.1-3.4-24.6c-0.6-0.7-7.8-9.3-15.3-7.1c-3.2,0.9-7.3,4.1-7.1,8.3
	c0.1,2.9,2.1,5.7,4.8,6.6c3.1,1.1,4.6-1.5,8.8-1.4c4.1,0.1,7.9,2.6,10.2,5.8C295.5,178.7,293.9,184.8,293.6,185.6z"/>
<path class="st11" d="M325.6,200c-0.8-1.2-6.5-9.8-15.8-9.8c-0.7,0-9.2,0.2-11.6,5.6c-1,2.4-1.2,6.3,1.3,8.2
	c1.7,1.3,4.3,1.5,6.1,0.4c2.1-1.3,1.4-3.4,3.5-5.9c2.1-2.3,5.4-3.4,8.3-3.2C322.5,195.6,325.2,199.5,325.6,200z"/>
<path class="st11" d="M321.5,241.5c-1,2.6,0.3,6.1,2,8.1c3.3,3.9,10,4.2,13.6,0.3c3.7-4.1,2.1-10.9,0.2-14.6
	c-4.1-7.7-13.5-8.2-16-8.3c-5.2-0.3-9.3,1.5-11.4,2.6c1.1-0.4,5.7-1.9,9.9,0.9c2.2,1.4,5.2,4.5,4.7,7.1
	C324.2,239.4,322.4,239.3,321.5,241.5z"/>
<path class="st12" d="M288.8,143.5c5.1,1.7,8.5,4.1,10.5,5.9c2.2,1.9,4,4.4,7.6,9.3c2.5,3.4,4.3,5.9,6.3,9.5c2.3,4.2,3.2,7,4.1,9
	c1.8,4.4,5.5,10.3,13.9,16.7c-1.8-2.6-3.9-5.9-6.3-9.9c-2.5-4.4-5.9-10.1-8.8-17.9c-1.4-3.7-3.1-8.8-4-11.4
	c-1.4-4.3-2.3-7.2-4.6-10.6c-1.5-2.2-3-3.8-4-4.8C298.5,140.7,293.6,142.1,288.8,143.5z"/>
<path class="st13" d="M291,173.4c-1.2,1-2.7,2.1-4.6,3.2c-2,1.2-4,1.9-5.6,2.5c1,1.6,1.8,3.1,2.5,4.3c1.6,2.8,2.8,5,3.2,5.8
	c0.9,1.6,1.6,3.1,2.1,4.2c-0.7-1.7-2.3-6-1.3-11.4C288.1,177.8,289.9,174.9,291,173.4z"/>
<path class="st14" d="M304.9,222.9c0.1-1.6,0.3-3.9,1.1-6.5c0.5-1.7,1.9-5.7,5.3-9c5-4.9,11.5-5.4,13.4-5.4c-3.6,0-9.3,0.6-15.4,3.4
	c-2.9,1.4-5.3,2.9-7.2,4.4c-0.1,1.3-0.2,2.9,0,4.7C302.5,218.2,303.8,221.1,304.9,222.9z"/>
<path class="st10" d="M244.2,197.7c-2.2-0.5-18.8-4.7-26.1-16.7c-0.8-1.3-6.1-11.4-1.5-17.1c2.5-3,7.8-4.6,11.9-2.4
	c2.6,1.4,4.4,4.2,4.7,7c0.4,3.5-1.9,4.6-2.9,9.3c-0.1,0.4-1.4,6.4,0.9,11.3C234.5,196.1,244.2,197.7,244.2,197.7z"/>
<path class="st15" d="M246.4,154.9c4.7,5.7,7.1,10.8,8.4,14.3c1.4,3.6,1.1,4.3,4.2,15.4c1.7,6,2.5,9,3.7,12.4
	c1.9,5.4,2.8,6.4,5.6,12.9c2.8,6.5,4.5,11.4,6.6,17.6c1.7,4.9,3.5,10.5,5.3,16.8c-0.3-6.4-0.9-13.6-2.4-21.5
	c-1.8-10.1-4.5-18.9-7.1-26.1c0-1.4,0-3.4,0-5.8c-0.2-6.3-0.4-9.9-1.7-13.8c-0.8-2.4-2.5-6.1-6.5-10c-1.2-2-3.5-5.2-7.4-8
	C251.8,156.7,248.5,155.5,246.4,154.9z"/>
<path class="st11" d="M263.3,216.4c-0.7-1-5.8-8.8-14.1-8.7c-0.6,0-8.2,0.2-10.4,5c-0.9,2.1-1.1,5.6,1.2,7.3
	c1.5,1.2,3.9,1.3,5.5,0.3c1.9-1.2,1.3-3.1,3.2-5.2c1.8-2.1,4.8-3.1,7.4-2.9C260.6,212.4,263,215.9,263.3,216.4z"/>
<path class="st11" d="M271.8,239.3c-0.8-1.2-6.5-9.8-15.8-9.8c-0.7,0-9.2,0.2-11.6,5.6c-1.1,2.4-1.2,6.3,1.3,8.2
	c1.7,1.3,4.3,1.5,6.1,0.4c2.1-1.3,1.4-3.4,3.5-5.9c2.1-2.3,5.4-3.4,8.3-3.2C268.8,234.8,271.5,238.8,271.8,239.3z"/>
<path class="st11" d="M274,287.3c2.1,1.8,2.6,5.5,2,8.1c-1.2,5-7.2,8.5-12.3,6.7c-5.3-1.9-7.1-8.6-7-12.8
	c0.1-8.7,8.5-13.6,10.7-14.9c4.7-2.7,9.2-3.1,11.7-3.1c-1.2,0.2-6.1,1-8.7,5.5c-1.4,2.3-2.6,6.4-1,8.5
	C270.6,286.7,272.2,285.8,274,287.3z"/>
<path class="st13" d="M242.9,200.2c-1.2,1-2.7,2.1-4.6,3.2c-2.1,1.2-4,1.9-5.6,2.5c0.1,2,0.4,3.6,0.6,4.9c0.2,1,0.9,3.9,2.5,7.5
	c0.7,1.5,1.4,2.7,1.9,3.6c-0.6-1.4-2.7-6.3-1-12.3C238.2,204.2,241.6,201.2,242.9,200.2z"/>
<path class="st12" d="M244,244.7c4.2,3.2,7.7,3.7,9.6,3.8c1.1,0.1,2.7,0,9.7-2.1c3.5-1,6.3-2,8.2-2.6c-3.2,2.5-8.7,6-16.2,7.5
	c-2.8,0.6-5.4,0.8-7.6,0.7c-0.7-1.2-1.4-2.4-2.1-3.8C245,247,244.5,245.8,244,244.7z"/>
<path class="st12" d="M239.7,231.7c1.1-1.2,2.7-2.9,5.1-4.4c0.7-0.4,2.5-1.5,5.9-2.6c2.6-0.9,6.6-1.9,11.7-2
	c-5.5-0.7-9.6-0.3-12.4,0.3c-1.7,0.3-4.4,1-7.9,0.3c-1.9-0.3-3.4-0.9-4.3-1.4c0.6,1.4,1.2,3.1,1.6,5.2
	C239.7,228.8,239.8,230.4,239.7,231.7z"/>
<path class="st10" d="M194.6,192.3c-2.1,0.1-18.3,0.2-28.5-7.7c-1.1-0.8-8.9-7.7-6.3-13c1.4-2.9,5.7-5.2,10-4.4
	c2.8,0.6,5.2,2.4,6.3,4.5c1.4,2.7-0.3,4,0.1,7.9c0,0.3,0.6,5.3,4.1,8.6C185.4,193.1,194.6,192.3,194.6,192.3z"/>
<path class="st16" d="M161.4,186.9c1.8,1.2,4.5,2.8,8.1,4.1c4,1.4,7.1,1.8,16,2.8c5.6,0.6,10.2,1.1,13.6,1.4
	c-6.1-0.5-12.9-0.6-20.1-0.3c-3.4,0.2-6.6,0.4-9.6,0.8c-1.1-0.5-2.8-1.4-4.4-3.1C162.9,190.5,161.9,188.2,161.4,186.9z"/>
<path class="st17" d="M192,197.4c-8-1.9-14.6-1.7-19-1.2c-5,0.6-9.5,1.1-10.5,3.9c-0.9,2.5,1.3,6.3,4.5,7.6c2.4,1,5.6,0.8,7.4-1
	c1.9-2,0.6-4.4,1.8-6.5C177.4,198,181.2,196.1,192,197.4z"/>
<path class="st18" d="M156.5,202.3c2.2,4,4.7,6.2,6.4,7.5c2,1.4,4.4,2.6,8.2,4.4c1.3,0.6,2.4,1.1,3.2,1.5
	c-7.3-2.9-14.6-5.9-21.9-8.8c0.6-0.8,1.3-1.7,2.1-2.6C155.2,203.5,155.9,202.9,156.5,202.3z"/>
<path class="st19" d="M148.6,207c1.4,0.5,2.8,1,4.1,1.5c7.3,2.7,14.6,5,21.6,7.1c-7.3-2.9-14.6-5.9-21.9-8.8
	C151.2,206.9,149.9,206.9,148.6,207z"/>
<path class="st17" d="M160.1,213.5c0-0.1-7.9-3-18.3-3.5c-7.1-0.3-10.3,0.7-12.4,2.8c-0.3,0.3-2.5,2.6-1.8,4.5c1,2.7,7.5,3.6,10.2,1
	c1.4-1.4,0.6-2.6,2-4.3c2.2-2.6,6.5-2.4,10.9-2.2C156.5,212.3,160.1,213.5,160.1,213.5z"/>
<path class="st20" d="M186.4,159.6c6.6,4.6,10,9.4,11.8,13c3.1,6.1,5,14.5,9,19.8c2.1,2.8,3.2,4.2,4.6,5.3c1.1,0.9,2.3,1.5,3.2,2.9
	c0.8,1.3,1,2.7,1.1,3.6c0.1-1.3,0.1-3.3-0.6-5.5c-0.7-2.6-1.6-3.5-2.6-6c-1-2.6-0.8-3.6-1.4-7.3c-0.4-2.7-1.1-5.1-2.6-10
	c-1-3.4-2.3-7.6-4.1-12.4c-2.9-1-6.4-2-10.4-2.7C191.5,159.8,188.7,159.6,186.4,159.6z"/>
<path class="st20" d="M195.4,214.8c-8,1-8.9,6.6-20,13.1c-8.1,4.7-12,4.3-16.5,9.8c-2.1,2.6-3.2,5.1-3.9,7c11.6-2,18-5.8,21.8-9
	c1.8-1.5,5.6-5.2,12-8.3c0.7-0.3,2.3-1,5.7-2.5c8.6-3.7,9.9-4,12.1-5.5c1.7-1.2,4.2-3.2,6.6-6.6c-2.2,0.4-5.6,0.9-9.7,1.4
	C198.8,214.6,197,214.6,195.4,214.8z"/>
<path class="st21" d="M113.4,217.3c-0.4,1.3-1.9,2.1-3.1,2.1c-2.4,0.1-5.1-2.2-5.3-4.9c-0.3-2.8,2.3-4.7,4.1-5.2
	c3.8-1.2,7.6,2.1,8.6,3c2.1,1.9,3.2,4,3.7,5.2c-0.3-0.6-1.6-2.8-4.1-3.4c-1.3-0.3-3.3-0.3-3.9,0.8
	C113,215.5,113.7,216.2,113.4,217.3z"/>
<path class="st20" d="M92.7,223.3c1.6,2.2,4.1,5.1,7.9,7.3c4.8,2.9,9.1,3.1,12.5,3.7c5.2,0.9,12.3,3.4,20.5,10.5
	c-1.2-0.5-3-1.2-5.2-2c-6.4-2.3-9.5-3.5-12.3-4c-4.1-0.8-5.1-0.4-8.8-1.5c-1.4-0.4-2.7-1-5.2-2c-3.4-1.4-4.1-1.9-4.7-2.3
	c-1.9-1.5-2.9-3.2-3.2-3.8C92.8,226.7,92.7,224.4,92.7,223.3z"/>
<path class="st22" d="M96.2,194.9c4.8,3,11.4,6.4,19.6,8.8c11.9,3.6,22.3,3.9,29.3,3.5c-3.9,0.2-7.1,0.7-9.2,1.1
	c-2.8,0.6-3.5,0.9-6,1.3c-1.6,0.2-4.6,0.6-8.4,0.4c-3.7-0.2-6.8-0.9-9.5-1.6c-2.3-1.1-4.9-2.7-7.7-5
	C100.5,200.4,97.9,197.3,96.2,194.9z"/>
<path class="st23" d="M134.9,166c2-0.5,4.8-1,8.1-0.9c4.4,0.1,8,1.2,10.3,2.1c1.1,2.5,1.7,4.7,2,6.3c0.5,2.5,0.7,4.6,0.8,6.6
	c0.1,1.4,0.1,2.7,0.1,3.5c-1.1-2.6-3.7-7.6-9.2-11.8C142.3,168,137.5,166.6,134.9,166z"/>
<path class="st10" d="M144.4,186.2c-7.4,1.9-14.5,0.2-18-4.4c-1.8-2.4-3.5-6.8-1.8-10.5c0.8-1.7,2.6-4.2,4.8-4.1
	c1.9,0.1,3.1,2.1,4,3.5c1.6,2.6,1,3.8,2.4,7.6c1,2.8,2,5.3,4.4,6.8C141.8,186,143.4,186.2,144.4,186.2z"/>
<path class="st24" d="M119.8,186.1c-5.8-5.7-11.2-7.4-14.2-8c-2.5-0.5-6.3-1.3-7.8,0.8c-1.1,1.4-1.3,4,0.2,5.7
	c0.9,1.1,2.4,1.7,3.7,1.6c1.6-0.1,1.9-1.3,3.9-2.1c1.6-0.7,3-0.7,5.2-0.6C114.4,183.7,117.5,184.9,119.8,186.1z"/>
<path class="st17" d="M137.1,198.3c-5.8-5.9-11.4-9.2-15.4-11.2c-4.6-2.2-8.7-4.1-11-2.3c-2.1,1.7-2.2,6-0.2,8.9
	c1.5,2.1,4.3,3.7,6.8,3.1c2.7-0.7,2.9-3.4,5-4.6C124.5,191,128.6,191.5,137.1,198.3z"/>
<path class="st23" d="M125.8,181.8c0.1,0.3,0.6,2-0.3,3.7c-0.5,0.9-1.3,1.4-1.7,1.7c0.8,0.4,1.9,1,3.2,1.8c0.9,0.6,3.3,2,6,4.2
	c1.4,1.1,3.1,2.6,4.9,4.4c-1.1-2.5-1.7-4.6-2-6.1c-0.2-1-0.2-1.3-0.1-1.6c0.7-2.8,6.6-3.3,7.7-3.4c-1.7,0.1-3.7,0.1-5.9-0.1
	C132.2,185.6,128.2,183.4,125.8,181.8z"/>
<path class="st25" d="M99.2,159.6C95,157,87.1,152.4,76,149.2c-19.1-5.6-27.6-1.2-50.7-6.8c-6.4-1.5-11.5-3.2-14.7-4.4
	c0,12.1,0,24.2,0,36.4c4.4,0.8,10.9,1.9,19,2.5c8.2,0.6,8.7,0,18,0.3c3.6,0.1,16.1,0.7,31.9,3.6c4.5,0.8,8.1,1.6,10.7,2.2
	c-0.2-0.6-0.6-2.3,0.3-4.2c0.2-0.5,0.8-1.8,2.3-2.7c0.4-0.2,1.8-1.1,3.8-0.7c2.2,0.4,3.3,2.1,3.5,2.4c1.7-0.1,3.6,0,5.8,0.5
	c4.8,1,8,3.2,9.6,4.3c1.9,1.3,3.4,2.7,4.4,3.7c0.9,0.5,1.9,1,2.8,1.5c0.3-0.1,2.1-0.5,3-2.3c0.9-1.7,0.4-3.3,0.3-3.5
	C120.4,175.6,111.7,167,99.2,159.6z"/>
<path class="st10" d="M282.4,138.2c1.9,0.2,16.2,1.5,25.3-6c0.7-0.6,8.9-7.5,5.9-13.1c-1.3-2.5-5-5.3-9.4-4.6
	c-3,0.5-5.7,2.5-6.4,4.7c-0.8,2.6,2,3.5,2.3,6.8c0.3,3.3-1.9,6.7-5,8.9C289.8,138.8,283.2,138.3,282.4,138.2z"/>
<path class="st26" d="M213.9,148.3c3.7-2.1,9.4-6,14.6-12.6c6.4-8.1,8.8-16.3,9.8-20.8c-0.4,1.3-2.9,10.8,3.1,19.5
	c4.9,7.1,12.2,8.9,13.9,9.3c-4.9-1-11.3-1.7-18.7-1.2c-9.2,0.7-15.9,3-17.8,3.7C216.7,147,215.1,147.8,213.9,148.3z"/>
<path class="st21" d="M219.4,113.4c1.7,1.2,4.5,0.9,6.3,0c3.4-1.7,4.9-6.6,2.7-9.9c-2.3-3.4-7.7-3.5-10.7-2.7
	c-6.4,1.6-8.4,8.5-8.9,10.3c-1.1,3.8-0.6,7.1-0.1,8.9c-0.1-0.9-0.4-4.5,2.4-7.2c1.4-1.4,4.2-3,6-2.2
	C218.4,111.1,217.9,112.4,219.4,113.4z"/>
<path class="st26" d="M269.5,107.2c-6.7-1.8-16.6-4.8-27.9-10.1c-9.9-4.6-12.9-7.2-19.7-8.9c-11.6-3-20.9-0.2-31.6,2.5
	c-11.7,2.9-28.7,6.6-50.9,9.3c21,1.2,37.5,0,48.8-1.4c14.7-1.8,26.6-4.5,41.4,0.1c3.9,1.2,7.2,2.7,14.2,4.5
	C254.3,105.9,263.4,106.8,269.5,107.2z"/>
<path class="st21" d="M218.9,73.6c0.1,1.6,1.7,3.3,3.1,4c2.7,1.4,6.4,0,7.2-2.9c0.9-3.1-1.7-6.5-3.6-8c-4.1-3.3-9.2-1.4-10.5-0.9
	c-2.8,1.1-4.5,2.9-5.4,4.1c0.5-0.5,2.5-2.3,5.5-1.8c1.5,0.3,3.9,1.3,4.3,2.8C219.8,71.9,218.8,72.2,218.9,73.6z"/>
<path class="st27" d="M19.3,132.6c16.6,3.4,29,1.8,37.5-0.5c15.4-4.1,20.2-10.9,31.8-9.9c11.6,0.9,16.9,8.5,28,16.3
	c10.3,7.3,26.6,15.4,52,17.9c-16.1,0.2-35.5-0.4-57.6-2.5c-10.5-1-21.5-2.1-35.4-4.8C60.3,146.1,41,141.2,19.3,132.6z"/>
<path class="st21" d="M136.1,114.4c-0.3-0.7-0.8-2.7,1.7-4.9c0.4-0.3,4.2-3.6,12.4-4.4c9.2-1,15,1.9,15.3,2.1c3.9,2,5.7,5.7,0.7,8.7
	c-4.3,2.6-11.7,3.4-17,2.8c-1.3-0.2-5.8-0.7-7.1-2.5c-1.5-2.2,2.1-4.9,6.1-5.6c3.1-0.5,5.5,0.3,6.9-0.3c1.2-0.6,0.9-1.9-0.8-2.5
	c-2.7-1-8.6,0.3-12,1.5C137.4,111,136.3,113.6,136.1,114.4z"/>
<path class="st28" d="M121,141.3c13.3,3.6,47.9,10.9,84.8-5c14-6,24.7-13.9,32.3-20.7c-0.9,4-2.7,9.7-6.4,15.7
	c-5.8,9.2-13.2,14.4-17.4,16.8c-8.2,3.6-24.8,9.5-46.3,8.2C145.2,154.9,128.7,146.1,121,141.3z"/>
<path class="st29" d="M100.1,196.6c0.9,0.3,3.8,1.3,6.1,0c4-2.3,3.3-9.3,0.8-13.7c-1-1.8-3.1-5.6-7.3-6.2c-2.7-0.4-5.5,0.6-7.1,2.4
	c-2.7,3-0.7,7.3,0.5,10.1C94.3,191.5,95.9,195.2,100.1,196.6z"/>
<path class="st29" d="M303.3,108.8c3-0.3,7.3-0.9,12.3-1.7c0.1-0.5,0.9-3.9-1.3-6.8c-2.1-2.7-6-3.7-9.5-2.4
	c-3.7,0.7-7.5,1.5-11.5,2.4c-8.7,2-16.7,4.3-24.1,6.8c1.5,0.6,3.9,1.4,6.9,2C279.6,109.9,285.8,110.8,303.3,108.8z"/>
<path class="st30" d="M14.6,108.1c1.3-5.5,4.4-14.4,12-22.1c7.1-7.2,14.9-10,21.9-12.2c12.1-3.9,31.9-9.2,59.4-12.4
	c-13.7-1.1-24.8-1-32.6-0.7c-6.8,0.3-16.2,0.9-28,0.7c-6.3-0.1-11.5-0.5-13.1-0.6c-4.6-0.3-8.7-0.8-12.1-1.2
	c-2.6,4.6-5.7,11.3-7.5,19.8C12,91.6,13.3,102,14.6,108.1z"/>
</svg>
