<?xml version="1.0" encoding="utf-8"?>
<!-- Generator: Adobe Illustrator 24.1.2, SVG Export Plug-In . SVG Version: 6.00 Build 0)  -->
<svg version="1.1" id="Слой_1" xmlns="http://www.w3.org/2000/svg" xmlns:xlink="http://www.w3.org/1999/xlink" x="0px" y="0px"
	 viewBox="0 0 850.39 425.2" style="enable-background:new 0 0 850.39 425.2;" xml:space="preserve">
<style type="text/css">
	.st0{fill:#F9E1D7;}
	.st1{fill:#D6AF9D;}
	.st2{fill:#CE9F8D;}
	.st3{fill:#E5C4B7;}
	.st4{opacity:0.51;fill:#CE9F8D;enable-background:new    ;}
	.st5{fill:#845842;}
	.st6{fill:#9B6D59;}
	.st7{fill:none;}
	.st8{fill:#E2C7C3;}
	.st9{opacity:0.21;fill:#513328;enable-background:new    ;}
	.st10{opacity:0.28;fill:#513328;enable-background:new    ;}
</style>
<path class="st0" d="M544.37,52.44c1.43-3.02,2.88-6.06,4.31-9.08c11.59-2.81,23.16-5.62,34.75-8.43c7.62,0.74,9.72,3.36,10.43,4.85
	c3.08,6.45-6.68,19.7-18.54,23.23C564.95,66.12,553.01,61.79,544.37,52.44z"/>
<path class="st1" d="M128.68,17.45c13.69,8.88,33.45,19.09,57.57,23.5c4.65,0.85,13.52,2.43,25.26,2.35
	c13.35-0.09,21.55-2.26,35.25-4.69c0,0,2.13-0.38,40.54-5.29c36.33-4.64,162.61,4.21,223.26,8.81c2.23,0.61,5.46,1.39,9.4,2.06
	c4.18,0.7,11.39,1.87,19.09,1.18c6.24-0.57,9.59-2.07,15.28-3.82c6.48-2,16.08-4.34,28.79-5.29c1.74,0.48,4.58,1.56,6.75,4.11
	c4.69,5.5,2.67,13.49,1.76,17.04c-1.76,6.92-5.82,11.53-8.33,13.9c-3.32,1.05-7.33,1.94-11.93,2.17c-15.02,0.75-26.44-6-31.35-9.36
	c34.44,115.22,52.16,159.71,61.52,172.98c1.01,1.42,7.43,10.3,11.82,23.62c2.54,7.72,5.7,17.7,3.53,30.16
	c-0.82,4.71-2.89,15.7-12.14,24.68c-3.49,3.39-10.11,9.83-20.37,10.18c-12.65,0.44-21.02-8.71-22.33-10.18
	c1.25,3.19,2.82,8.45,2.35,14.88c-0.5,6.82-3.05,11.7-6.65,18.41c-4.17,7.77-6.26,11.66-10.18,14.88
	c-9.22,7.59-20.94,6.94-25.86,6.65c-11.38-0.64-19.74-5.4-23.89-8.23c2.03,5.53,1.53,9.36,0.78,11.74
	c-1.66,5.29-5.63,7.09-14.1,15.67c-5.36,5.43-5.89,6.85-7.83,8.62c-5.08,4.6-16.21,8.18-43.87-1.56c0.62,1.77,1.21,4.35,0.4,7.05
	c-1.16,3.86-4.64,6.1-14.88,10.96c-8.38,3.99-12.57,5.97-14.88,6.65c-17.8,5.3-37.55-5.49-42.3-8.23
	c-41.01-17.13-87.16-39.42-135.91-68.55c-46.23-27.6-85.87-56.03-119.18-82.65c-11.72-8.44-27.62-18.1-47.69-25.86
	c-12.89-4.98-24.88-8.14-35.25-10.18c21.53-37.25,43.11-77.19,64.24-119.86C102.34,75.73,116.07,46.17,128.68,17.45z"/>
<path class="st2" d="M581.11,325.6c-6.85-8.68-16.58-20.61-28.81-34.37c-18.68-20.99-29.13-32.75-45.43-45.83
	c-18.62-14.94-36.65-24.98-43.87-28.98c-10.82-6.01-27.29-14.35-46.61-27.82c-6.92-4.82-14.3-10.37-19.19-19.97
	c-2.69-5.29-2.99-8.6-6.27-16.84c-3.63-9.13-7.66-16.17-10.58-20.77c5.91,9.23,8.06,16.81,8.91,22.13
	c0.41,2.62,0.72,5.96,2.06,10.87c0,0,1.77,6.52,4.99,12.92c4.17,8.28,19.77,24.27,45.15,37.9c71.45,45.01,93.8,65.43,99.89,75.6
	c4.21,7.05,9.73,13.05,20.77,25.06c1.5,1.63,4.79,5.15,10.2,7.62C575.79,324.74,578.97,325.35,581.11,325.6z"/>
<path class="st2" d="M521.73,370.37c-5.22-3.09-11.82-7.25-19.19-12.54c-4.55-3.26-12.17-8.94-21.15-16.84
	c-17.66-15.55-25.94-26.84-42.3-43.87c-20.27-21.12-19.72-16.47-44.25-41.13c-23.25-23.35-24.69-28.48-38-38.38
	c-18.4-13.7-36.96-19.76-49.26-22.72c10.08,3.42,24.18,9.56,37.9,21.15c9.45,7.99,14.54,15.02,20.77,22.72
	c9.4,11.63,9.82,10.43,44.65,45.43c0,0,58.08,58.37,86.95,77.94c3.84,2.61,7.63,4.26,8.04,4.43
	C512.08,369.23,517.75,370.08,521.73,370.37z"/>
<path class="st2" d="M456.12,402.45c-6.87-6.14-17.55-15.66-30.74-27.19c-47.35-41.46-48.04-40.01-61.11-53.46
	c-19.69-20.27-25.59-31.21-47.59-51.7c-5.57-5.19-16.98-15.47-34.67-22.91c-5.93-2.5-11.06-4.04-14.69-4.99
	c7.02,1.94,17.18,5.6,27.62,12.92c9.9,6.95,15.49,14,21.15,20.85c0,0,11.21,13.57,37.9,42.3c15.91,17.12,18.48,17.38,44.07,42.6
	c15.32,15.09,27.29,27.72,34.77,35.74c2.85,1.05,5.97,2.06,9.32,2.98C447.17,400.95,451.88,401.86,456.12,402.45z"/>
<path class="st2" d="M401.79,421.73c-8.67-2.14-18.23-5.01-28.4-8.87c-12.18-4.62-22.82-9.74-31.86-14.72
	c7.25-16.48,7.67-33.06,0.43-39.03c-8.79-7.25-32.18-1.69-50.33,21.69c-2.94-1.43-5.87-2.88-8.81-4.31
	c17.79-16.87,24.5-36.85,17.67-49.57c-0.48-0.89-3.6-6.52-9.93-9.23c-14.3-6.11-36.86,6.14-55.52,30.79
	c-1.7-1.11-3.39-2.21-5.09-3.33c11.5-14.11,13.48-31.97,6.27-41.86c-9.4-12.92-36.96-15.7-56.38,4.13
	c-14.64-12.37-32.77-25.49-54.67-37.32c-8.33-4.5-16.43-8.41-24.21-11.8c5.46,4.1,13.49,10.1,23.23,17.29
	c23.32,17.18,46.67,33.9,57.67,41.52c17.86,12.35,50,33.15,100.96,59.39c30.58,14.26,61.15,28.51,91.73,42.75
	c3.67,1.48,9.21,3.16,16.06,3.42C395,422.82,398.8,422.34,401.79,421.73z"/>
<path class="st2" d="M439.78,100.58c-9.86-4.74-26.51-10.87-47.29-9.99c-6.72,0.28-27.72,1.42-47.89,14.4
	c-11.62,7.48-14.35,13.33-27.62,18.51c-4.11,1.6-22.99,8.98-29.08,2.06c-6.11-6.95,2.96-25.66,12.34-36.72
	c10.14-11.97,22.16-16.78,36.72-22.62c12.24-4.91,24.01-9.48,39.66-8.23c10.17,0.81,18.27,3.77,23.5,6.17
	C413.34,76.3,426.56,88.44,439.78,100.58z"/>
<path class="st3" d="M585.79,236.09c0.54,2.47,1.11,6.6,0.04,11.43c-0.51,2.33-3.18,12.96-11.08,15.97
	c-4.67,1.77-6.6-0.85-12.68,1.39c-1.99,0.74-7.4,2.72-7.91,6.55c-0.5,3.7,3.73,7.84,7.96,8.82c6.48,1.5,12.52-4.57,16.24-8.31
	c2.03-2.04,6.74-6.91,8.89-15.01C589.9,246.97,586.91,238.77,585.79,236.09z"/>
<path class="st3" d="M538.1,302.54c0.06,2.52-0.18,6.68-2.17,11.23c-0.95,2.18-5.62,12.1-13.96,13.53
	c-4.92,0.84-6.3-2.11-12.71-1.09c-2.1,0.34-7.79,1.23-9.04,4.89c-1.21,3.53,2.16,8.41,6.1,10.18c6.07,2.72,13.18-2.07,17.55-5.01
	c2.38-1.6,7.96-5.48,11.63-13.01C540.03,314,538.67,305.38,538.1,302.54z"/>
<path class="st4" d="M147.29,165.12c-3.63,11.46-6.77,26.24-6.65,43.47c0.31,50.57,28.37,86.35,39.19,98.82
	c-11.15-9.43-24.77-19.66-40.99-29.49c-13.47-8.17-26.3-14.58-37.89-19.63c-7.06-4.79-15.45-9.84-25.13-14.62
	c-9.05-4.47-17.57-7.87-25.23-10.48c14.41-3.84,37.21-11.91,60.3-29.67C128.18,190.19,139.85,175.87,147.29,165.12z"/>
<path class="st4" d="M609.01,249.82c-0.1,5.36-0.44,13.19-1.49,22.62c-0.85,7.62-1.56,13.43-2.94,17.91
	c-1.5,4.89-6.79,17.74-29.22,28.07c1.91,2.4,3.83,4.78,5.73,7.18c3.13,0.09,8.13-0.2,13.56-2.5c11.69-4.96,16.65-15.6,18.65-19.9
	c4.6-9.87,4.43-18.72,4.21-24.04C617.02,266.23,612.56,256.09,609.01,249.82z"/>
<path class="st3" d="M488.15,356.14c-0.81,2.4-2.47,6.21-5.87,9.82c-1.65,1.73-9.42,9.46-17.73,7.94
	c-4.92-0.89-5.21-4.14-11.57-5.36c-2.09-0.4-7.74-1.49-10.16,1.52c-2.34,2.91-0.85,8.64,2.26,11.66c4.78,4.64,13.09,2.55,18.2,1.28
	c2.78-0.7,9.35-2.43,15.38-8.26C486.05,367.57,487.72,359.02,488.15,356.14z"/>
<path class="st3" d="M422.43,388.42c-0.72,2.13-2.18,5.52-5.22,8.72c-1.46,1.55-8.37,8.4-15.76,7.06
	c-4.37-0.79-4.62-3.67-10.28-4.77c-1.84-0.35-6.88-1.33-9.02,1.35c-2.09,2.58-0.75,7.67,2,10.35c4.24,4.11,11.63,2.27,16.16,1.13
	c2.47-0.62,8.3-2.16,13.66-7.33C420.57,398.58,422.05,390.96,422.43,388.42z"/>
<path class="st3" d="M304.35,161.39c-0.43-3.08-1.32-12.34,4.11-21.74c0.78-1.33,8.91-14.85,25.26-16.45
	c18.45-1.8,29.67,13.28,30.25,14.1c7.43,10.37,10.67,27.67,0.3,39.66c-8.89,10.27-23.79,12.01-34.37,7.63
	c-2.6-1.08-11.48-4.75-13.8-13.52c-2.72-10.23,4.95-21.84,12.92-23.8c6.21-1.52,10.91,3.22,13.8,0.58c2.54-2.3,1.96-8.61-1.18-11.74
	c-5.22-5.23-17.3-1.4-24.08,3.23C307.35,146.33,304.94,157.93,304.35,161.39z"/>
<path class="st3" d="M244.6,215.15c-0.35-2.54-1.09-10.16,3.39-17.89c0.64-1.11,7.33-12.21,20.78-13.53
	c15.18-1.49,24.41,10.92,24.89,11.6c6.11,8.52,8.77,22.77,0.24,32.62c-7.3,8.45-19.57,9.89-28.27,6.28
	c-2.13-0.88-9.43-3.9-11.36-11.12c-2.24-8.41,4.07-17.96,10.64-19.57c5.11-1.25,8.96,2.64,11.36,0.48c2.09-1.89,1.62-7.08-0.96-9.66
	c-4.3-4.31-14.23-1.15-19.82,2.65C247.07,202.75,245.09,212.3,244.6,215.15z"/>
<path class="st3" d="M207.21,264.89c-0.27-1.96-0.84-7.83,2.61-13.77c0.5-0.85,5.65-9.42,16.01-10.43
	c11.7-1.15,18.81,8.41,19.18,8.94c4.71,6.57,6.75,17.55,0.18,25.13c-5.63,6.51-15.08,7.62-21.79,4.84
	c-1.65-0.68-7.28-3.01-8.75-8.57c-1.73-6.48,3.13-13.84,8.2-15.08c3.94-0.96,6.91,2.04,8.75,0.37c1.6-1.45,1.25-5.46-0.75-7.45
	c-3.3-3.32-10.96-0.88-15.26,2.04C209.11,255.35,207.58,262.7,207.21,264.89z"/>
<path class="st3" d="M374.66,121.05c-0.31-2.24-0.96-8.99,2.99-15.83c0.57-0.98,6.48-10.82,18.4-11.99
	c13.45-1.32,21.62,9.67,22.04,10.27c5.42,7.55,7.76,20.16,0.21,28.89c-6.47,7.49-17.33,8.75-25.04,5.56
	c-1.89-0.78-8.35-3.46-10.06-9.84c-1.99-7.45,3.6-15.9,9.42-17.33c4.52-1.11,7.94,2.34,10.06,0.43c1.84-1.67,1.43-6.27-0.85-8.55
	c-3.8-3.82-12.6-1.02-17.55,2.35C376.86,110.07,375.08,118.53,374.66,121.05z"/>
<path class="st5" d="M663.93,39.2c-10.41,4.81-19.16,7.97-25.26,9.99c-15.39,5.06-17.93,4.1-26.44,8.81
	c-5.02,2.78-9.16,5.89-17.63,9.4c-4.14,1.72-7.66,2.84-9.99,3.53c-5.12,1.63-13.01,3.42-22.33,2.35
	c-9.55-1.09-15.47-4.61-36.43-18.21c-19.91-12.94-29.87-19.39-38.78-25.86c-11.45-8.3-20.81-15.65-27.62-21.15
	c-2.65-1.84-6.81-4.33-12.34-5.87c-7.25-2.03-13.21-1.43-15.86-1.18c-14.45,1.38-28.99,1.39-43.47,2.35
	c-8.51,0.57-20.77,0.96-35.84,0c-2.74-0.75-8.54-1.93-15.28,0c-9.16,2.62-14.08,9.28-15.86,11.74c-1.87,2.61-3.36,5.5-7.05,19.39
	c-1.99,7.46-3.52,14.01-4.69,19.39c-4.94,7.56-10.03,15.21-15.28,22.91c-4.91,7.21-9.8,14.26-14.69,21.15
	c0.72,1.53,1.99,3.74,4.11,5.87c4.89,4.91,10.94,5.96,14.1,6.47c10.54,1.69,19.4-1.97,31.73-7.05c3.18-1.3,14.2-6,25.26-14.1
	c6.2-4.54,9.63-8.11,11.74-10.58c2.37-2.74,4.11-5.22,5.29-7.05c3.57,0.74,7.5,1.36,11.74,1.76c7.74,0.74,14.68,0.55,20.57,0
	c3.72,2.72,9.23,6.78,15.86,11.74c15.38,11.53,25.77,19.73,35.84,27.62c33.64,26.33,31.74,24.03,44.07,34.07
	c10.75,8.78,25.93,21.73,43.47,38.78c20.41,14.14,34.67,26.47,43.47,34.67c6.1,5.69,12.01,11.63,17.63,20.57
	c4.85,7.73,7.7,14.85,9.4,19.97c5.33-2.27,13.29-5.72,22.91-9.99c40.69-18.1,45.86-22.31,65.22-30.55
	c39.13-16.65,45.11-10.91,81.08-27.02c19.62-8.79,34.78-18.08,44.65-24.68c-7.83-14.1-17.97-29.39-31.13-44.65
	C751.06,71.58,695.89,49.08,663.93,39.2z"/>
<path class="st5" d="M124.8,276.51c-1.56,1.96-6.78,8.98-6.11,18.71c0.18,2.62,0.62,9.05,5.29,13.52c4.87,4.65,11.55,4.5,21.74,4.11
	c5.76-0.23,13.97-1.09,23.63-4.1c2.23,1.52,4.45,3.02,6.68,4.54c-0.67,2.89-1.38,6.98-1.52,11.9c-0.21,7.43-0.45,14.74,3.53,21.74
	c7.21,12.71,22.72,15.09,24.08,15.28c1.69,0.24,5.79,0.1,13.9-0.2c7.18-0.26,13.06-0.55,17.04-0.78c0.62,2.65,1.62,5.9,3.33,9.4
	c6.88,14.1,21.33,24.41,32.11,24.48c1.29,0.01,5.13-0.11,7.45-0.2c4.69-0.17,8.55-0.41,11.16-0.58c-0.18,2.55-0.18,7.83,2.74,13.32
	c2.65,4.98,6.37,7.59,9.01,9.4c8.23,5.65,16.64,6.35,24.68,7.05c4.45,0.38,10.04,0.81,17.04-0.78c3.04-0.7,6.87-1.5,11.16-4.11
	c3.72-2.26,6.26-4.88,7.83-6.78c-6.35-3.52-12.72-7.04-19.08-10.55c0.96-2.98,2.03-7.19,2.35-12.34c0.54-8.67-1.35-15.11-1.76-16.45
	c-0.92-3.04-2.67-8.57-7.35-14.1c-2.41-2.87-7.39-8.75-15.57-10.28c-2.04-0.38-7.32-1.38-11.66,1.56c-2.64,1.79-3.82,4.27-4.51,5.77
	c-4.64,10.1-8.72,20.5-10.38,24.78c-2.94-1.43-5.87-2.88-8.81-4.31c1.96-2.85,4.48-7.01,6.65-12.34c1.63-4,4.5-11.16,4.69-20.77
	c0.13-5.8,0.28-12.91-3.91-20.57c-0.68-1.25-5.65-9.99-15.86-14.3c-2.84-1.19-6.84-2.82-11.56-1.76c-3.8,0.85-6.28,3.06-7.63,4.31
	c-9.7,8.87-19.29,34.99-20.17,37.4c-1.7-1.11-3.39-2.21-5.09-3.33c1.3-2.55,2.98-6.28,4.31-10.96c1.7-5.99,3.26-11.46,2.16-17.63
	c-1.82-10.14-9.77-16.26-14.88-20.17c-4.78-3.66-9.33-7.16-15.67-7.05c-5.4,0.1-9.28,2.74-13.72,5.87
	c-4.09,2.88-10.64,8.4-16.1,18.07c-2.23-1.52-4.45-3.02-6.68-4.54l0,0C154.49,297.99,139.64,287.25,124.8,276.51z"/>
<path class="st6" d="M358.4,57.01c-0.21,3.15-0.96,8.28-3.91,13.72c-1.42,2.61-8.3,14.41-18.81,15.28
	c-6.21,0.51-7.59-3.3-15.67-2.74c-2.64,0.18-9.8,0.7-11.74,5.09c-1.89,4.26,1.74,10.68,6.47,13.32c7.25,4.04,16.58-1.12,22.33-4.31
	c3.13-1.73,10.47-5.93,15.86-14.88C359.55,71.46,358.81,60.6,358.4,57.01z"/>
<path class="st6" d="M530.26,171.39c-4.58-23.38-14.58-54.65-37.3-82.55c-19.46-23.89-34.17-27.99-41.72-29.08
	c-4.82-0.7-14.55-1.97-24.24,3.67c-8.88,5.18-12.78,13.29-14.16,16.62c4.78,3.55,9.57,7.15,14.4,10.81
	c5.84,4.44,11.6,8.88,17.26,13.3c4.06,0.77,10.16,2.45,16.51,6.52c10.28,6.57,15.25,15.5,17.23,19.7
	C495.59,144.05,512.93,157.72,530.26,171.39z"/>
<path class="st7" d="M529.08,111.27c3.46,14.78-1.4,30.21,8.45,37.21c7.48,5.3,20.41,3.66,27.43-3.22
	c10.14-9.94,5.22-27.79,3.91-32.51c-11.55-41.96-94.23-52.71-103.98-53.87C510.77,75.73,525.32,95.22,529.08,111.27z"/>
<path class="st7" d="M699.9,96.07c-18.57,0.65-47.86,3.86-75.39,17.32c-9.94,4.85-21.49,10.65-26.16,20.34
	c-5.94,12.35,0.55,28.47,15.04,30.14c7.77,0.89,17.84-2.37,23.05-7.28c4.35-4.13,4.28-8.47,4.07-14.52
	c-0.4-10.68-4.87-13.77-4.4-17.91C636.83,117.88,648.92,108.68,699.9,96.07z"/>
<path class="st8" d="M309.06,53.88c1.13,1.63,2.68,4.3,3.33,7.83c0.99,5.43-0.7,9.94-2.16,13.42c-5.29,12.62-13.3,25.39-16.26,29.97
	c-1.87-1.69-4.78-3.89-8.81-5.49c-2.26-0.89-4.34-1.39-6.07-1.66C289.07,83.25,299.07,68.57,309.06,53.88z"/>
<path class="st8" d="M185.68,323.59c-1.77-6.17,1.12-11.42,4.5-17.56c2.44-4.43,7.19-11.56,16.16-18.01
	c3.72,0.99,9.22,2.95,14.98,6.95c6.67,4.64,10.72,9.99,12.92,13.42c-2.87,6.28-8.61,16.08-19.49,22.52
	c-4.67,2.77-9.96,5.9-16.45,4.41C192.56,333.99,187.36,329.39,185.68,323.59z"/>
<path class="st8" d="M259.89,307.79c-4.78,8.54-8.03,15.94-10.18,21.35c-3.69,9.26-3.89,12.06-2.94,14.69
	c2.11,5.8,9.5,9.84,15.86,9.11c7.13-0.82,11.33-7.46,16.45-15.57c3.97-6.3,6.11-12.06,7.28-15.84c-0.5-1.53-2.84-8.07-9.83-11.99
	C268.8,305.22,261.23,307.38,259.89,307.79z"/>
<path class="st8" d="M306.5,350.24c-3.13,6.43-5.19,12.03-6.57,16.21c-2.85,8.75-2.55,11.09-1.76,12.92
	c1.77,4.14,6.61,7.16,11.19,6.91c4.99-0.27,8.06-4.37,11.73-9.26c2.48-3.32,6.09-9.11,8.06-17.65c-1.55-1.94-6.28-7.38-14.24-8.99
	C311.55,349.7,308.62,349.9,306.5,350.24z"/>
<path class="st9" d="M692.91,85.61c2.24,5.91,10.28,29.21-0.78,53.28c-8.55,18.58-28.91,38.55-46.23,35.25
	c-14.41-2.74-14.51-19.28-32.11-23.89c-11.96-3.13-27.83,0.31-36.27,11.36c-10.72,14.04-4.74,34.23,3.36,45.43
	c14.72,20.4,42.13,18.98,44.65,18.81c40.41-2.74,61.59-52.54,64.24-58.75C704.94,131.42,696.67,97.96,692.91,85.61z"/>
<path class="st9" d="M355.77,18.33c-1.08,1.16-3.56,3.55-7.45,4.41c-3.94,0.88-9.5,0.21-10.52-2.41c-0.96-2.51,3.15-4.54,2.68-9.25
	c-0.06-0.54-0.37-3.59-2.45-4.89c-3.35-2.1-10.41,0.85-12.04,5.97c-1.73,5.43,3.56,10.35,3.94,10.71c5.3,4.79,12.87,3.02,14.65,2.61
	C350.7,24.05,354.39,20.03,355.77,18.33z"/>
<path class="st9" d="M460.15,27.78c-1.56,0.27-4.99,0.64-8.58-1.05c-3.66-1.72-7.67-5.63-6.88-8.33c0.77-2.58,5.26-1.67,7.77-5.69
	c0.28-0.45,1.9-3.06,1.05-5.38c-1.38-3.72-8.77-5.67-13.19-2.61c-4.68,3.25-3.49,10.38-3.4,10.89c1.28,7.04,8.35,10.24,10.03,11.01
	C452.64,29.22,458.02,28.27,460.15,27.78z"/>
<path class="st10" d="M530.1,57.81c5.8,13.57,11.21,24.31,15.15,31.72c6.71,12.62,9.43,16.1,12.54,25.46
	c2.06,6.23,3.33,12.51,5.87,25.06c1.59,7.83,2.75,14.34,3.53,18.81c-0.7-8.81-1.94-22.03-4.31-38.28
	c-1.35-9.28-1.99-12.11-1.56-16.16c0.89-8.72,6.6-22.27,33.29-37.02c-10.51,5.49-19.47,6.13-24.28,6.07
	c-13.74-0.14-24.6-6.26-31.93-10.38C534.85,61.1,532.05,59.2,530.1,57.81z"/>
</svg>
