<?xml version="1.0" encoding="utf-8"?>
<!-- Generator: Adobe Illustrator 25.3.1, SVG Export Plug-In . SVG Version: 6.00 Build 0)  -->
<svg version="1.1" id="Слой_1" xmlns="http://www.w3.org/2000/svg" xmlns:xlink="http://www.w3.org/1999/xlink" x="0px" y="0px"
	 viewBox="0 0 595.3 841.9" style="enable-background:new 0 0 595.3 841.9;" xml:space="preserve">
<style type="text/css">
	.st0{display:none;}
	.st1{display:inline;fill:none;}
	.st2{display:inline;}
	.st3{font-family:'Constantia-Bold';}
	.st4{font-size:12px;}
	.st5{fill:#EDEDED;}
</style>
<g id="Стрела">
</g>
<g id="Слой_1_1_" class="st0">
	<rect x="140.4" y="190" class="st1" width="9.7" height="12.2"/>
	<text transform="matrix(1 0 0 1 140.38 198.8625)" class="st2 st3 st4">A</text>
	<text transform="matrix(1 0 0 1 140.6406 198.9854)" class="st2 st3 st4">T</text>
</g>
<g id="Слой_3">
	<path class="st5" d="M140.1,198.9c0-0.1,0-0.2,0-0.3c0.2,0,0.5-0.1,0.7-0.2c0.1-0.1,0.2-0.1,0.2-0.2c0.1-0.1,0.1-0.3,0.1-0.3
		c0.1-0.2,1.1-2.8,3.1-7.3c0.2,0,0.4,0,0.5,0c0.9,2.5,1.8,4.9,2.7,7.4c0,0,0.1,0.1,0.1,0.1c0.1,0.1,0.2,0.1,0.3,0.2
		c0.1,0.1,0.3,0.1,0.6,0.2c0,0.1,0,0.2,0,0.3c-0.9,0-1.8,0-2.7,0c0-0.1,0-0.2,0-0.4c0.1-0.1,0.3-0.1,0.4-0.2
		c0.1-0.1,0.2-0.1,0.2-0.2c0-0.1,0-0.1,0-0.2c-0.7-2.2-1.4-4.3-2.1-6.5c-0.8,2.2-1.6,4.4-2.5,6.6c0,0.1-0.1,0.1-0.1,0.2
		c0.1,0,0.1,0.1,0.2,0.1c0.2,0.1,0.5,0.2,0.7,0.2c0,0.1,0,0.2,0,0.3C141.8,198.9,141,198.9,140.1,198.9z"/>
	<path class="st5" d="M142.9,195.5c0.9,0,1.9,0,2.8,0c0,0.1,0.1,0.2,0.1,0.3c-1,0-2,0-3,0C142.9,195.7,142.9,195.6,142.9,195.5z"/>
</g>
<g id="Слой_4">
	<path class="st5" d="M143.9,191.1c-0.1,2.4-0.1,4.8-0.2,7.2c0,0-0.1,0.1-0.2,0.1s-0.2,0.1-0.2,0.1c-0.2,0.1-0.4,0.1-0.6,0.1
		c0,0.1,0,0.2,0,0.3c1,0,2.1,0,3.1,0c0-0.1,0-0.3,0-0.4c-0.1,0-0.3,0-0.4,0c-0.1,0-0.1,0-0.2-0.1c-0.1,0-0.2-0.1-0.2-0.1
		c0-2.4,0-4.8-0.1-7.2c0.6,0,1.3,0,1.9,0c0.1,0.6,0.2,1.1,0.4,1.7c0.1-0.1,0.2-0.1,0.4-0.2c0.1-0.7,0.2-1.4,0.4-2.1c0,0,0,0,0,0
		c-2.4,0-4.8,0-7.1,0c0,0,0,0.1-0.1,0.1c0.1,0.8,0.1,1.5,0.1,2.3c0.1,0,0.2,0,0.3-0.1c0.2-0.5,0.4-1.1,0.5-1.6
		C142.5,191.1,143.2,191.1,143.9,191.1z"/>
</g>
</svg>
