<?xml version="1.0" encoding="utf-8"?>
<!-- Generator: Adobe Illustrator 24.1.2, SVG Export Plug-In . SVG Version: 6.00 Build 0)  -->
<svg version="1.1" id="Слой_1" xmlns="http://www.w3.org/2000/svg" xmlns:xlink="http://www.w3.org/1999/xlink" x="0px" y="0px"
	 viewBox="0 0 595.3 841.9" style="enable-background:new 0 0 595.3 841.9;" xml:space="preserve">
<style type="text/css">
	.st0{display:none;}
	.st1{fill:#D3A89B;}
	.st2{fill:#B78D83;}
	.st3{opacity:0.57;fill:#E0B1A4;enable-background:new    ;}
	.st4{fill:#C99E93;}
	.st5{opacity:0.39;fill:#C4978D;enable-background:new    ;}
	.st6{opacity:0.6;fill:#C4978D;enable-background:new    ;}
	.st7{opacity:0.17;fill:#D3A89B;enable-background:new    ;}
	.st8{opacity:0.71;}
	.st9{opacity:0.71;fill:#B78D83;}
	.st10{opacity:0.71;fill:#BC968F;}
	.st11{fill:#F9DFD9;}
	.st12{opacity:0.68;fill:#E0B1A4;enable-background:new    ;}
	.st13{opacity:0.51;fill:#E0B1A4;enable-background:new    ;}
	.st14{opacity:0.74;fill:#B78D83;}
	.st15{fill:#E0B1A4;}
	.st16{opacity:0.5;fill:#C69791;enable-background:new    ;}
	.st17{fill:#D8B0A9;}
	.st18{opacity:0.73;fill:#F2D2D1;enable-background:new    ;}
	.st19{opacity:0.67;fill:#BC9695;enable-background:new    ;}
	.st20{opacity:0.24;fill:#EABDAC;enable-background:new    ;}
	.st21{opacity:0.58;fill:#B78D83;}
	.st22{opacity:0.54;fill:#BC968E;enable-background:new    ;}
	.st23{fill:#B78276;}
	.st24{opacity:0.5;fill:#FFDCDC;enable-background:new    ;}
	.st25{opacity:0.42;fill:#FFDCDC;enable-background:new    ;}
	.st26{opacity:0.64;fill:#B78D83;}
	.st27{opacity:0.35;fill:#F7D8D0;enable-background:new    ;}
	.st28{opacity:0.32;fill:#F7D8D0;enable-background:new    ;}
	.st29{opacity:0.32;fill:#F4E4D0;enable-background:new    ;}
	.st30{opacity:0.21;fill:#EAC4AC;enable-background:new    ;}
	.st31{opacity:0.29;fill:#B78276;enable-background:new    ;}
	.st32{opacity:0.39;fill:#E0B1A4;enable-background:new    ;}
	.st33{fill:#F7DEDC;}
	.st34{opacity:0.31;fill:#FFFFFF;enable-background:new    ;}
	.st35{opacity:0.35;fill:#FFFFFF;enable-background:new    ;}
</style>
<g id="Слой_1_1_" class="st0">
	
		<image style="display:inline;overflow:visible;opacity:0.69;enable-background:new    ;" width="786" height="1280" xlink:href="928AE9F9.jpeg"  transform="matrix(0.6549 0 0 0.6549 34.8387 3.6332)">
	</image>
</g>
<g id="Слой_2_1_">
	<path class="st1" d="M417.3,841.9c-1-7.7-2.1-19.1-2.8-33c-1.3-28.7,0.7-49.8,1.7-61.5c1.8-21.5,3.6-52.8,3.3-94.2
		c6.9-7.5,15-17.4,22.7-29.9c3.8-6.2,10.1-17.3,15.5-31.6c8.7-23,5.8-30.2,12.2-60.4c5.8-27.8,14.3-50.4,18.3-60.9
		c11.3-29.8,15.8-32.1,17.2-48.2c0.8-9.2-0.3-13.7-0.5-43.8c-0.1-9.7,0-17.6,0-22.7c-9.1-16.1-19.7-25.8-26.6-31
		c-5.9-4.5-11.5-8.7-20-11.1c-16.1-4.5-30.3,1.2-36,3.9c-4.7-5.2-12.5-12.4-23.8-17.7c-22.8-10.6-44.2-6.3-51.5-4.4
		c-4.6-9.2-10.3-14.8-14-17.9c-5.5-4.6-14.2-7.5-31.6-13.3c-12.4-4.1-17.1-4.9-21.2-2.9c-1.4,0.6-4,2.2-7.9,2.5
		c-3.3,0.2-6.1-0.5-7.9-1.3c0.7-11.2,0.8-20.4,0.8-26.6c0-12.3-0.5-19.8,0-33.7c0.2-6,0.6-11,0.8-14.1c-0.4-5.4-0.8-13.4-1.3-23.3
		c-1.3-29.6-0.2-32.4-1.3-55.7c-1.5-32.7-4-32.5-2.5-46.5c0.3-3.3,1.2-10.7,0-20.4c-0.8-6-1.9-13.9-7.1-22
		c-2.4-3.8-5.6-8.7-11.6-12.1c-10.5-5.7-22.5-2.7-29.9-0.8c-3.7,0.9-6.7,2.1-8.7,2.9c-0.1,2.2-0.3,4.4-0.4,6.7
		c-1.6,2.1-3.9,5.6-5.8,10.4c-3.9,9.7-2.9,17.5-2.5,33.2c0.3,13.8-0.7-3.7,0,22.8c0.8,28.8,2.3,60.8,2.9,74.4
		c0.1,17.5,0.5,32,0.8,42.4c0.8,21.5,1.6,29.1,0.8,41.6c-1,16.9-4,30.8-6.6,40.3c-4.9,24.5-10.7,49.7-17.4,75.6
		c-2.6,9.9-5.2,19.5-7.9,29.1c-5.7,1.4-14.4,4.4-22.9,11.1c-7.6,6-11.4,12.2-16.1,20c-27.5,45.4-31.2,52-29.4,62
		c1.2,6.5,3.9,10.5,8.3,17.2c29.9,45.3,21.1,40.7,41,67.6c13.4,18.2,33.7,42.2,62.6,67c6,30.6,7.5,55.9,7.8,73.7
		c0.3,26-2.2,49.8-7.2,97.5c-1.7,16.3-3.3,29.9-4.4,39.1C277.3,841.9,347.3,841.9,417.3,841.9z"/>
</g>
<g id="Слой_11">
	<path class="st2" d="M278.5,407.8c15.7,17.1,25.5,33.3,31.6,45.1c5.4,10.5,11,21.7,14.1,37.6c1,5.2,1.3,8.5,2.9,24.7
		c1.5,14.5,2.7,26.3,3.5,33.7c-0.9-26.4,0.8-44.2,2.3-55.1c0.4-2.5,0.7-4.6,1.3-7.1c4.5-20.2,15.5-33.2,18.3-36.8
		c8-10.2,16.5-29.9,19.4-71.4c-12,7.4-28.8,16-50.1,22C305.2,405.3,290.4,407.1,278.5,407.8z"/>
	<path class="st3" d="M299.3,637.7c4.9,22.7,7.4,41.2,8.7,53.2c4,36.3,2.3,55.5,5.5,108.3c1,16,2.1,29,2.8,36.7
		c-0.5-8.4-1.2-21.1-1.5-36.6c-0.9-43.4-1.4-74.5,6.5-111c2.6-12,7.1-29.2,15.4-49.5C324.2,638.5,311.8,638.1,299.3,637.7z"/>
</g>
<g id="Слой_3">
	<path class="st4" d="M422.3,317.5c-2.6,2.1-6.2,5.1-10.4,9c-1.4,1.3-7.9,7.3-11.2,11.2c-8.6,10.1-10.3,22.6-12,35.3
		c-1.8,13,0.5,10.9-1.3,27.8c-1.4,13.1-3.2,18.7-1.7,28.7c1.2,7.3,2.4,15.3,7.5,17.5c8.5,3.6,23.1-11.3,30.3-22.9
		c6.9-11,8.9-21.7,9.6-27.8c3.6-5,7.2-10,10.8-15c4.1,2.3,8.7,4.5,13.7,6.6c7.3,3.1,14.2,5.4,20.4,7.1c4-2.8,9.1-6.9,13.8-12.8
		c8.2-10.1,11.5-20.4,13-26.6c-0.8-1.8-20-42-56.4-43.7C437.9,311.5,428.9,314.4,422.3,317.5z"/>
	<path class="st4" d="M347,295.3c-9.9,3.9-19.9,7.8-29.8,11.6c-5.8,8.6-7.6,16-8.3,21.2c-1.2,9.7,1.6,13.4,1.3,28.7
		c-0.1,4.2-0.6,8.6-1.7,17.5c-2.3,19.9-3.9,22.7-2.9,29.9c1.1,7.7,3.2,7.4,7.5,19.1c8.3,23,3.4,33.8,11.2,38.6
		c6.4,3.9,16.2,0.9,21.6-3.7c7.1-6,7.5-15.5,7.9-26.2c0.4-9.2-1.2-16.7-2.5-21.6c3.5-4.4,7.2-9.8,10.8-16.2
		c3.6-6.4,6.2-12.4,8.1-17.6c6,4.9,11.9,9.8,17.9,14.7c-0.4-6.1-1.8-34.2,9.7-49.5c1.1-1.5,5.1-6.5,10.7-12.2
		c4.8-4.8,9.5-8.9,13.8-12.2c-6.1-6.8-12.2-11.1-16.4-13.7c-3.2-2-19.6-11.6-42.6-10.8C356.4,293.2,350.8,294.3,347,295.3z"/>
	<path class="st4" d="M264.4,262.5c-5.7,1.7-7.6,11-8.7,16.2c-1.5,7.3-1.4,12.6-0.8,18.7c1,10-0.7,4.9-0.4,33.2
		c0.1,13.2,0.5,18.7,0.8,29.5c1.2,41.6-1.9,53.3,3.7,77.3c5.2,22.4,10.6,23.9,12,24.1c9,1.5,19.4-17.8,20.4-19.5
		c1.2-2.2,1.8-3.7,6.6-20.4c6.3-21.4,7.2-25.3,7.7-27.5c1.3-6.1,2.7-12.6,3.5-21.5c1.2-13,0.6-24.4,0.3-29.4
		c-0.5-9.1-1.2-9.7-0.8-13.9c0.8-9.7,5-17.4,8.4-22.4c9.9-3.9,19.9-7.8,29.8-11.6c-3.9-8.7-9.1-13.9-12.7-16.8
		c-4.3-3.5-8.3-5.2-16.2-8.7c-3.2-1.4-1.7-0.6-20.1-6.9c-7.7-2.6-10.7-3.7-14.6-2.7c-3.3,0.8-3.9,2.2-7.7,2.8
		C269.7,264.2,267.9,261.4,264.4,262.5z"/>
	<path class="st5" d="M504.9,355.7c-1.3,5.5-4.1,14.2-10.5,23.3c-5.7,7.9-12,13.1-16.3,16.1c1.4,7.4,2.8,18.2,2.3,31.3
		c-0.4,10-1.9,18.1-6.5,37.4c-6.9,28.6-7.7,27.2-13.1,49.9c-5.8,24.5-8.8,36.8-10.8,48.5c-1,5.7-1.7,10.2-3.8,16.5
		c-5.3,16-13.8,26.5-16.7,29.9c-5.1,6-14.3,16.5-30.4,22.9c-17.1,6.8-32.5,5-39.7,3.7c20.1,6,40.3,12,60.4,18
		c10.3-11.1,17.5-21.5,22.3-29.3c17.3-28.2,23.7-55.9,24.7-68.5c0.1-1.1,0.3-4.2,0.9-8.7c0.1-1,1.5-12.3,4.4-24.2
		c4.3-17.8,11.6-47.6,24.4-71c1.8-3.3,6.6-11.7,8.4-23.6c0.2-1.2,0.6-4,0.8-12.1c0.4-13.2-0.3-22.5-0.6-29.4
		C504.6,379.1,504.4,368.6,504.9,355.7z"/>
	<path class="st6" d="M443.9,381.3c7.1,9.7,16.2,24.5,22.4,44.3c4.9,15.5,6.5,29.3,7,39.7c2.8-8.7,5.6-20.3,6.6-34.1
		c1-14.5-0.3-26.9-2-36.2C466.6,390.5,455.3,385.9,443.9,381.3z"/>
	<path class="st7" d="M454.7,359.7c0.7,4.3,2.2,10.9,6.3,17.9c5.7,9.7,13.2,15.1,17.3,17.5c-7.5-1.8-16.2-4.5-25.3-8.9
		c-3.3-1.6-6.3-3.2-9.1-4.9C447.5,374.1,451.1,366.9,454.7,359.7z"/>
</g>
<g id="Слой_9" class="st8">
	<path class="st9" d="M212.6,439.4c0.2,2.2,0.5,5.8,1.3,10c9.4,52.9,60.1,84.1,73.2,92.1c9.2,5.6,22.9,13,41.1,19
		c-4.4-15-11.6-34.2-23.7-54.9c-11.4-19.3-23.7-34.1-34-44.8c-0.6-0.3-1.5-0.9-2.4-1.8c-1.2-1.1-1.9-2.4-2.4-3.4
		c-6.2-12.8-8.1-24.5-8.1-24.5c-0.8-4.9-1.6-11.5-1.7-19.4c-5.5,2-11.6,4.6-18,8c-4.6,2.4-8.6,5-12.3,7.4
		C221.1,431.2,216.9,435.3,212.6,439.4z"/>
	<path class="st10" d="M212.6,439.4c-4.3,35.3,3.8,57,11.6,70.2c13.5,22.6,31.9,29.3,75.6,62.7c20.3,15.5,35.9,29.1,45.7,37.8
		c2-26.4-5.1-38.8-11.6-45.3c-9.4-9.2-18.6-7.1-43.6-21.5c-3.1-1.8-12.2-7.1-22.7-15.3c-10.5-8.2-24.7-19.2-36.4-37.3
		C225.3,481.6,215.9,464.4,212.6,439.4z"/>
</g>
<g id="Слой_8">
	<path class="st11" d="M260.7,433c-1.2,6.4-1.5,12.1-1.3,16.9c0.3,8.9,0.5,14.9,4.7,17.6c3,1.9,7.3,1.6,10.3-0.1c1.5-0.9,4.1-3,6-14
		c0.9-5,1.6-12.2,0.9-21.2c-1.4-1-3.9-2.3-7.1-2.8C267.2,428.2,261.9,432,260.7,433z"/>
	<path class="st12" d="M215.3,399.5c-4-2.2-18.8-11.1-24.4-28.5c-1.3-4-6.3-19.3,2.1-30.3c3.6-4.8,12.3-11.8,21.4-8.6
		c7.1,2.5,12.1,10.5,11,18.2c-1,6.5-7.3,7.5-11.5,13.4C209.7,369.4,207.4,379.6,215.3,399.5z"/>
	<path class="st13" d="M346.5,334.9c-3.3-3.5-9.6-6.4-14.1-3.7c-3.5,2-4.2,6.4-4.3,7.2c-0.8,4.9,1.9,8.5,2.5,9.3
		c3.3,4.2,7.5,3.7,9.8,5.7c3.5,2.9,4,12.1-7.9,38.1c4.9-5.8,8.1-11.1,10.1-15c2.9-5.6,7.8-15.1,7.6-27.6
		C350.2,343.6,350.1,338.7,346.5,334.9z"/>
</g>
<g id="Слой_4">
	<path class="st1" d="M155.2,387.8c9-4.2,12.6-1.5,31.3-5c1.9-0.4,14.2-2.7,28-7.8c22.5-8.3,27.5-16.3,51.1-24.5
		c7.5-2.6,13.8-4.4,17.9-5.4c1.6,0.6,3.9,1.7,5.8,3.7c7,7.3,3.9,20.1,2.5,25.8c-6.3,26-42.6,40.8-47.8,42.8c-6.9,2.6-15.9,7-24.5,15
		c-2.7,2.5-5.1,5-7.1,7.5c-0.4,2.6-0.8,5.9-1,9.8c-0.2,2.9-0.5,8.9,0,16.2c0.5,7.3,1.1,16.3,4.8,27.2c1.2,3.4,4.5,12.3,11.5,22
		c6.9,9.5,13.8,14.9,24.7,23.2c11.7,8.8,25.2,18.7,40.3,29.3c-21.4,27.8-59.9,73.2-81.6,64c-2.4-1-3.2-2.7-8.4-7.4
		c-11.1-10.1-28.1-25.7-45.6-48.5c-8.8-11.4-19.4-26.8-29.7-46.4c-6.4-10.4-12.2-19.9-17.2-28.3c-8.9-14.9-10.9-18.8-11.3-24.6
		c-0.4-5.6,3.7-13.2,11.5-28.2c8.6-16.4,13.4-24.3,20-33.5C141.5,399.4,147.1,391.6,155.2,387.8z"/>
</g>
<g id="Слой_5">
	<path class="st14" d="M425.7,420.4c-1-5.8-1.8-16.4,2.4-28.3c1.8-5,3.9-10.8,9.1-16.2c3-3.1,6.4-5.3,13.7-12.5
		c1.6-1.5,2.9-2.9,3.7-3.7c-3.6,7.2-7.2,14.4-10.8,21.6c-3.6,5-7.2,10-10.8,15c-0.4,3.4-1.1,7.5-2.4,12.1
		C429.2,413.2,427.4,417.2,425.7,420.4z"/>
	<path class="st15" d="M307.2,296.1c-0.6,16.9-1,34.3-1,52.1c0,13.5,0.1,26.7,0.5,39.6c3.5-20.2,3.8-30.4,3.3-36
		c-0.2-1.9-0.4-5.6-0.9-13c-0.4-5.6-0.5-7.2-0.3-9.6c0.1-1.1,0.5-5.6,2.5-11.2c1.7-4.7,3.9-8.4,5.9-11.2
		C313.8,303.3,310.5,299.7,307.2,296.1z"/>
	<path class="st15" d="M314.7,289.5c1,0.9,3,3,4,6.4c1.6,5.6-1,10.2-1.5,11.1c9.9-3.9,19.9-7.8,29.8-11.6
		C336.2,293.4,325.4,291.4,314.7,289.5z"/>
	<path class="st16" d="M290.5,362.4c-4.4,13.9-11.5,23-16.2,28.7c-9.4,11.6-19.7,19.6-28.2,24.8c5.9-2.1,26.3-9.9,38-26.1
		c5.2-7.2,7.6-15.2,7.6-15.2c2-6.6,2-11.3,1.9-12.5c-0.1-3.2-0.6-5.9-1.2-7.8C292.2,356.4,291.6,359.2,290.5,362.4z"/>
	<path class="st17" d="M265.2,241.9c-4.8,4.4-10.7,9.1-18,13.6c-16.7,10.2-32.9,14-43.8,15.5c8.1-0.6,17.6-0.7,28.3,0.3
		c9.3,0.9,17.6,2.4,24.7,4.2c0.1-1.6,0.5-6.1,4-9.9c1.4-1.5,2.8-2.4,4-3C264.6,255.6,264.9,248.7,265.2,241.9z"/>
	<path class="st18" d="M290.8,356c-5.2,4.3-10,7-13.6,8.7c-2.9,1.4-6.8,3.2-12.3,4.2c-4.2,0.8-7.9,0.9-10.5,0.7
		c2.6,0.9,7.5,2.2,13.4,1.4c6.3-0.9,10.6-3.6,13.1-5.3C285.8,362.6,288.9,358.8,290.8,356z"/>
	<path class="st19" d="M173,434.1c21.7,10.6,29.4,20.8,32.2,28.5c0.8,2.2,3.2,9.6,7.7,21.6c1.7,4.5,3.1,8.2,4.1,10.6
		c-2.4-7.4-4.7-17.2-5.5-28.9c-0.6-9.6-0.1-18.1,0.9-24.9c-1.7,0.4-3.4,0.6-5.3,0.8C192.8,443.3,180.7,438.4,173,434.1z"/>
	<path class="st20" d="M271.6,633.8c-11.3,0.3-18.9,12.7-23,19.7c-7.7,13-8.4,22.8-11.9,70.1c-2.5,33.6-3.1,42-3.3,56.8
		c-0.2,13.5,0,25,0.3,33.8c10.5-68.7,29.9-102.6,46.3-120.8c4.9-5.5,18.6-19.6,16.1-35.5C294.1,646,283.1,633.6,271.6,633.8z"/>
	<path class="st2" d="M376.5,335.9c-0.9,6.6-2.4,14.1-5.1,22.1c-6.3,18.9-16.1,32.6-23.6,41.4c1.2,3.8,2.4,7.5,3.6,11.3
		c3-4.8,7.3-11.8,11.8-20.5c2.9-5.5,6-11.5,8.2-17.1C374.2,365.8,377.7,353.5,376.5,335.9z"/>
	<path class="st21" d="M400.4,300.8c2,3.8,4.2,9.5,3.9,16.4c-0.3,6.7-4,9.7-9.7,23.8c-7,17.2-8.9,16-10.3,23
		c-1.2,6-1.5,15.1,3.8,27.3c-0.6-6.1-0.9-15.2,1-26c1-5.9,1.9-10.8,4.8-16.8c4.5-9.5,11.1-15.7,18.6-22.7c4-3.7,7.5-6.5,9.8-8.4
		c-1.4-1.5-2.9-3.1-4.5-4.6C411.8,307.3,405.7,303.4,400.4,300.8z"/>
	<path class="st22" d="M353.6,324.6c2,5.7,3.7,12.5,4.6,20.3c2.7,24.6-5.3,44.5-10.4,54.6c4.9-5.7,10.5-13.1,15.4-22.4
		c8.3-15.6,11.7-30.1,13.1-40.2c-2-2.1-4.8-4.5-8.5-6.8C362.4,326.7,357.1,325.3,353.6,324.6z"/>
	<path class="st23" d="M267.8,262.5c0.9,1,2.1,2.7,3.1,4.9c0.4,0.8,1,2.4,1.5,5.6c0.4,2.3,0.7,5.6,0.4,9.6c0-4.1,0.8-7.2,1.4-9.1
		c0.7-2.1,1.5-3.6,2.6-5.7c1.6-3,3.1-5.3,4.2-6.9c-0.5,0.2-1.1,0.5-1.9,0.9c-1.8,0.8-2.7,1.2-3.5,1.4c-1.9,0.5-3.5,0.2-4.8,0
		C269.6,263,268.5,262.7,267.8,262.5z"/>
	<path class="st24" d="M413.6,416.5c0.4,3,0.6,8-1,13.8c-1.9,6.8-5.3,11.4-7.4,13.7c2.1-4.1,4.3-9.7,5.7-16.4
		c0.8-3.8,1.1-7.3,1.2-10.4C412.6,416.9,413.1,416.7,413.6,416.5z"/>
	<path class="st25" d="M385.6,428.8c-0.2-1.7-0.8-7.5,0.8-11.9c0.6-1.5,1.3-2.5,1.5-2.7c1.3-1.7,2.9-2.5,4.4-3.2
		c2.8-1.3,5.2-1.6,6-1.7c3.8-0.4,6.7,0.6,8.4,1.1c2.1,0.7,4,1.5,5.6,3.5c0.7,0.9,1.1,1.9,1.4,2.5c-0.5,0.2-1,0.5-1.5,0.7
		c-3.7-2.2-13.9-7.4-22.3-3.4c-0.6,0.3-1.2,0.6-1.7,1C387.3,419.4,386.5,424.1,385.6,428.8z"/>
	<path class="st26" d="M195.5,271.8c4.8-0.6,9.9-1.1,15.3-1.3c17.7-0.6,33.2,1.7,45.6,4.8c-4.1-1-32.3-7.3-53.8,10.6
		c-7.6,6.3-11.9,13.6-14.4,19C190.6,293.9,193.1,282.9,195.5,271.8z"/>
	<path class="st27" d="M241.1,280.3c-7.6-3.2-17.9,2.3-23.3,6.9c-1.7,1.5-10,9-10.3,19.7c-0.4,16.8,19.3,22.3,20.5,39.3
		c0.4,5.5-1,13.5-10,23.8c6.4-2.6,17.8-8.5,26-20.5C261,324.9,255.8,286.5,241.1,280.3z"/>
	<path class="st28" d="M210.2,21.9c5.2-7.6,14.7-7.7,15.3-7.7c10.3,0,17.6,8.9,20.2,15.9c2.8,7.5,1.1,14.2-0.2,19.2
		c-3.2,12.4-10.9,20.6-15.6,24.8c7.1-12.9,6.3-18.5,4.2-21.2c-4.1-5.3-13.8,0.1-21-6C207,41.7,204.6,29.9,210.2,21.9z"/>
	<path class="st26" d="M260.7,67.1c-5.2,4.2-11.8,8.9-19.9,13c-15.8,8-30.4,10.7-40.4,11.6c8.2-0.3,17.2-1.1,26.9-2.5
		c12.8-1.9,24.3-4.5,34.2-7.4c-0.2-1.7-0.4-3.5-0.6-5.4C260.7,73.1,260.6,70,260.7,67.1z"/>
	<path class="st26" d="M197.4,147c4.7,2,9.7,3.9,15.1,5.6c18.6,6,35.8,8.2,50.1,8.8c-7.2,1.8-16.4,3.4-27,3.7
		c-15.6,0.4-28.5-2.3-37.6-5C197.7,155.7,197.6,151.3,197.4,147z"/>
	<path class="st28" d="M261.5,161.1c-28.8-4.6-37.2-12.2-39.2-18.6c-0.7-2.2-1.6-7.2-5.7-10c-3.2-2.1-8.4-3-12-0.5
		c-2.9,2-5.1,6.2-4.3,9.8c1.7,7.7,16.4,10.9,38.5,15.4C248.1,159.2,256,160.3,261.5,161.1z"/>
	<path class="st29" d="M284.5,270c0.4,0.1,1.2,0.4,2.3,0.1c1.7-0.5,3.3-2.3,3.1-3.8c-0.2-2.1-3.6-3.6-5.8-3.4
		c-6.5,0.6-9.5,17.5-9.9,19.3C279.8,271.7,282.8,269.6,284.5,270z"/>
	<path class="st29" d="M265.1,271.2c-0.3,0-1,0.3-1.8-0.1c-1.3-0.6-2.3-2.6-2-4.1c0.4-2,3.2-3.3,4.9-2.9c5,1.2,5.5,18.1,5.6,20
		C268.7,273.3,266.5,271,265.1,271.2z"/>
	<path class="st29" d="M348.9,334.5c-1-2.8-3.3-7.5-7.8-11.6c-5.2-4.7-15.3-10.5-23-6.6c-3.3,1.6-7.1,5.5-6.4,9.4
		c0.8,4.1,6.3,6.9,10.5,6.4c4.7-0.6,5.5-4.9,9.7-6.1C335.1,325,340.2,325.8,348.9,334.5z"/>
	<path class="st29" d="M427.5,382.8c-0.3-3-1.1-8.1-4.4-13.3c-3.7-5.9-12-14.2-20.4-12.5c-3.6,0.7-8.3,3.4-8.6,7.4
		c-0.4,4.2,4.2,8.3,8.5,8.9c4.7,0.7,6.6-3.2,11-3.3C416.7,370,421.5,372.1,427.5,382.8z"/>
	<path class="st28" d="M345.9,411.6c-1-2.1-3.3-5.6-7.8-8.7c-5.2-3.5-15.3-7.9-23-5c-3.3,1.2-7.1,4.1-6.4,7
		c0.8,3.1,6.3,5.2,10.5,4.8c4.7-0.4,5.5-3.7,9.7-4.6C332.1,404.5,337.3,405.1,345.9,411.6z"/>
	<path class="st28" d="M414.4,416.5c-0.4-1.5-1.3-4.1-4.1-7c-3.1-3.3-9.7-8.1-15.9-8.1c-2.6,0-5.9,1-5.9,2.9c0,2,3.6,4.5,6.8,5.2
		c3.5,0.8,4.7-1,7.9-0.6C405.7,409.1,409.3,410.6,414.4,416.5z"/>
	<path class="st30" d="M354.9,628.8c12.4-1.9,33.3-6.5,52.5-18.5c22-13.7,50.1-42.3,36.2-67.8c-5.9-10.8-21.2-24.4-38.2-24.1
		c-18,0.4-31.7,16.1-30.9,29.5c1,14.7,19.1,19.3,22.9,32.8C400.2,590.7,395.2,606.3,354.9,628.8z"/>
	<path class="st27" d="M160.9,433.3c-3.7,1.5-8.8-0.6-11.5-2.5c-0.9-0.6-5-3.6-5.3-8.2c-0.5-7.1,9.1-9.8,9.4-17.1
		c0.1-2.4-0.7-5.7-5.3-10c3.2,1,8.9,3.3,13.1,8.2C169.9,414,168,430.4,160.9,433.3z"/>
	<path class="st31" d="M285.3,301.3c-1,0-3.3,0.5-5.3-1.2c-3.4-2.8-5.1-10.4-3.1-15.7c2.7-7.2,12.1-10.4,16.9-8.2
		c14.3,6.6,3.4,68.3,2.2,75.1C294.3,310.7,289.6,301.4,285.3,301.3z"/>
	<path class="st31" d="M264.9,292.9c0.5,0.1,1.6,0.7,2.7-0.3c1.8-1.5,2.7-6.5,1.7-10.4c-1.3-5.2-6-8.3-8.5-7.3
		c-7.3,3.1-2.4,46.1-1.8,50.9C260.2,298.3,262.6,292.4,264.9,292.9z"/>
	<path class="st14" d="M478.4,395.1c3-3.4,14.2-16.6,13.4-35c-0.2-4.3-0.9-20.4-12.9-28.3c-4.9-3.2-16.4-8.1-23.8-1.3
		c-6.4,5.9-7.9,18.8-0.2,25.1c6,4.9,15.7,4.3,22-2.2c3.3,2.8,5.1,5.7,6.3,7.9C490.5,376.2,479.3,393.7,478.4,395.1z"/>
	<path class="st28" d="M284.2,431.9c-0.6-1.4-2-3.8-5.2-6.2c-3.6-2.7-11-6.4-17-5.2c-2.6,0.5-5.7,2-5.4,3.9c0.3,2,4.3,3.8,7.6,4
		c3.6,0.1,4.5-1.8,7.7-2C274.3,426.1,278.2,427,284.2,431.9z"/>
	<path class="st24" d="M282.7,430.9c0.9,2.9,1.9,7.8,1.3,13.8c-0.7,7-3.4,12.1-5.1,14.7c1.4-4.4,2.7-10.2,2.9-17.1
		c0.1-3.9-0.1-7.4-0.5-10.4C281.8,431.5,282.3,431.2,282.7,430.9z"/>
	<path class="st30" d="M254.4,567.6c-13.3,1.5-36.1,2.3-60.3-6.1c-27.7-9.7-67.8-35.2-64.3-69.8c1.4-14.7,11.2-35.5,28.4-40.2
		c18.2-5,38.5,9.6,43.1,25.8c5.1,17.8-11.2,28.7-9.4,45.9C193.2,536,204.6,553,254.4,567.6z"/>
	<path class="st3" d="M116.2,459.6c3.6,0.7,8.3,3.1,8.9,7.5c0.6,3.5-1.3,7.3-4.3,8.8c-4.4,2.2-8.9-2.4-11.4-0.6
		c-1.7,1.2-2.5,5.1,1.9,17.5c-2.3-2.3-6.3-6.8-7.9-12.4C100.2,468.8,108.8,458.1,116.2,459.6z"/>
	<path class="st20" d="M358.6,640.1c10.8,0.3,18,12.7,22,19.7c7.4,13,8.1,22.8,11.4,70.1c2.4,33.6,3,42,3.2,56.8
		c0.2,13.5,0,25-0.3,33.8c-10.1-68.7-28.6-102.6-44.3-120.8c-4.7-5.5-17.8-19.6-15.4-35.5C337.1,652.3,347.6,639.8,358.6,640.1z"/>
	<path class="st32" d="M159.4,578.6c17.2,6.3,35.1,12.5,53.5,18.4c44.5,14.3,87.2,25.6,127.6,34.5c-21.1-4.7-49.1-8.6-81.9-6.7
		c-17.8,1.1-33.7,3.7-47.4,6.8c-8.5-7.5-17.4-15.9-26.4-25.1C175.4,596.9,167,587.6,159.4,578.6z"/>
</g>
<g id="Слой_10">
</g>
<g id="Слой_6">
	<path class="st33" d="M236.4,364c3.3,2,8.9,4.7,16.3,5.5c10.4,1.1,18.4-2.2,23.6-4.4c4.1-1.8,10.1-5,16.3-10.7
		c-0.4-1.2-1.3-3.4-3.3-5.5c-2.2-2.3-4.6-3.3-5.8-3.7c-6.8,1.7-14.4,3.9-22.5,7.1C251.5,356,243.3,360.1,236.4,364z"/>
</g>
<g id="Слой_7">
	<path class="st11" d="M388.1,414.8c-0.5,2-1.3,5.2-1.8,9.1c-1.3,8.9-2.9,20.7,3,25.2c2.1,1.6,5.1,2.2,7.5,1.8
		c8.1-1.5,14.2-15.1,15.3-33.7c-0.8-1.1-3.9-5.1-9.5-6.3C394.7,409.1,388.7,414.2,388.1,414.8z"/>
	<path class="st11" d="M318.8,435.2c0,2.6,0.2,6.3,0.8,10.8c1.1,7.5,2.2,14.4,7.3,20.4c2.3,2.6,5.6,6.4,8.9,5.8
		c5.8-1.1,7.9-15.2,7.9-23.4c0-7.5-1.7-13.6-3.3-17.7c-1.7-0.8-4.5-1.9-8.1-1.9C324.9,429.2,319.9,434.1,318.8,435.2z"/>
	<path class="st34" d="M244.8,362c1.6,1.4,4.5,3.6,9.1,4.6c5.3,1.2,14.7,1.4,19.6-3.5c2.1-2.1,4-5.8,2.4-8c-1.7-2.3-6.7-2.2-9.9-0.4
		c-3.5,1.9-3,4.9-5.9,7C258,363.3,253.9,364.5,244.8,362z"/>
	<path class="st35" d="M251.5,364.2c1.2,0.8,3.3,2,6.5,2.4c3.6,0.4,10-0.2,13-4c1.3-1.6,2.3-4.2,1-5.6c-1.3-1.4-4.7-1-6.7,0.5
		c-2.2,1.6-1.6,3.5-3.4,5.2C260.5,364,257.8,365.2,251.5,364.2z"/>
	<path class="st34" d="M274.3,456.6c1.5-1.3,3.8-3.9,5.2-7.7c1.6-4.4,2.5-12.3-2-16.3c-1.9-1.7-5.4-3.2-7.6-1.9
		c-2.4,1.5-2.6,5.6-1.2,8.2c1.6,2.9,4.6,2.4,6.5,4.8C276.5,445.6,277.5,449.1,274.3,456.6z"/>
	<path class="st35" d="M277,451c0.9-1,2.3-2.8,2.9-5.5c0.7-3,0.5-8.4-2.9-10.7c-1.5-1-4-1.8-5.4-0.7c-1.5,1.1-1.3,4,0,5.6
		c1.4,1.8,3.4,1.3,4.9,2.8C277.5,443.5,278.4,445.7,277,451z"/>
	<path class="st34" d="M335.9,458.4c1.5-1.3,3.8-3.9,5.2-7.7c1.6-4.4,2.5-12.3-2-16.3c-1.9-1.7-5.4-3.2-7.6-1.9
		c-2.4,1.5-2.6,5.6-1.2,8.2c1.6,2.9,4.6,2.4,6.5,4.8C338.1,447.3,339,450.8,335.9,458.4z"/>
	<path class="st35" d="M338.5,452.7c0.9-1,2.3-2.8,2.9-5.5c0.7-3,0.5-8.4-2.9-10.7c-1.5-1-4-1.8-5.4-0.7c-1.5,1.1-1.3,4,0,5.6
		c1.4,1.8,3.4,1.3,4.9,2.8C339,445.2,340,447.5,338.5,452.7z"/>
	<path class="st34" d="M403.7,438c1.5-1.3,3.8-3.9,5.2-7.7c1.6-4.4,2.5-12.3-2-16.3c-1.9-1.7-5.4-3.2-7.6-1.9
		c-2.4,1.5-2.6,5.6-1.2,8.2c1.6,2.9,4.6,2.4,6.5,4.8C405.9,426.9,406.9,430.4,403.7,438z"/>
	<path class="st35" d="M406.4,432.4c0.9-1,2.3-2.8,2.9-5.5c0.7-3,0.5-8.4-2.9-10.7c-1.5-1-4-1.8-5.4-0.7c-1.5,1.1-1.3,4,0,5.6
		c1.4,1.8,3.4,1.3,4.9,2.8C406.9,424.8,407.8,427.1,406.4,432.4z"/>
</g>
</svg>
